<svg width="440" height="440" viewBox="0 0 440 440" fill="none" xmlns="http://www.w3.org/2000/svg">
<g clip-path="url(#clip0_550_21177)">
<path d="M370.444 18.8488L244.167 158.605L268.72 181.351L405.401 46.9791C428.87 25.8785 403.939 -17.8374 370.444 18.8488Z" fill="#182435" stroke="#323232" stroke-width="2.80742"/>
<path d="M290.603 371.309C236.15 436.82 138.972 445.853 73.5508 391.474C8.12929 337.095 -0.752592 239.903 53.7009 174.393C108.154 108.882 205.331 99.8492 270.753 154.228C336.174 208.608 345.056 305.798 290.603 371.309Z" fill="#182435" stroke="#7F7F7F" stroke-width="5.11297"/>
<path d="M265.831 350.719C222.764 402.532 145.908 409.674 94.1697 366.668C42.4313 323.662 35.4045 246.796 78.4721 194.983C121.54 143.171 198.395 136.029 250.133 179.035C301.871 222.04 308.899 298.906 265.831 350.719Z" fill="#253243" stroke="#324053" stroke-width="1.27824"/>
<path d="M261.5 221.624C227.812 186.505 208 177.5 191 202.001L188 215C214.564 256.338 229.159 270.251 254 260C272.916 260.643 291.509 247.056 261.5 221.624Z" fill="#EFBE20" fill-opacity="0.2"/>
<path d="M197.981 223.526L178.583 248.076L147.98 239.412C145.06 238.585 142.674 236.477 141.492 233.682L128.205 202.24L152.421 181.586C155.097 179.303 158.777 178.595 162.11 179.721L184.629 187.328L198.835 212.397C200.84 215.935 200.502 220.335 197.981 223.526Z" fill="#FCD448"/>
<path d="M178.583 248.076L197.981 223.526C200.502 220.335 200.84 215.935 198.835 212.397L184.629 187.328M178.583 248.076L159.698 213.415M178.583 248.076L147.98 239.412C145.06 238.585 142.674 236.477 141.492 233.682L128.205 202.24M184.629 187.328L159.698 213.415M184.629 187.328L162.11 179.721C158.777 178.595 155.097 179.303 152.421 181.586L128.205 202.24M159.698 213.415L128.205 202.24" stroke="#EFBE20" stroke-width="3" stroke-linejoin="round"/>
</g>
<defs>
<clipPath id="clip0_550_21177">
<rect width="440" height="440" fill="white"/>
</clipPath>
</defs>
</svg>
