<svg width="440" height="440" viewBox="0 0 440 440" fill="none" xmlns="http://www.w3.org/2000/svg">
<g clip-path="url(#clip0_550_21240)">
<path d="M370.444 18.8488L244.167 158.605L268.72 181.351L405.401 46.9791C428.87 25.8785 403.939 -17.8374 370.444 18.8488Z" fill="#182435" stroke="#323232" stroke-width="2.80742"/>
<path d="M290.603 371.309C236.15 436.82 138.972 445.853 73.5508 391.474C8.12929 337.095 -0.752592 239.903 53.7009 174.393C108.154 108.882 205.331 99.8492 270.753 154.228C336.174 208.608 345.056 305.798 290.603 371.309Z" fill="#182435" stroke="#7F7F7F" stroke-width="5.11297"/>
<path d="M265.831 350.719C222.764 402.532 145.908 409.674 94.1697 366.668C42.4313 323.662 35.4045 246.796 78.4721 194.983C121.54 143.171 198.395 136.029 250.133 179.035C301.871 222.04 308.899 298.906 265.831 350.719Z" fill="#253243" stroke="#324053" stroke-width="1.27824"/>
<path d="M261.5 221.623C234.169 150.281 113.46 155.589 92.0002 205.5C57.3334 237.987 67.9394 323.11 97.9997 342.5C124.564 383.838 206.659 370.251 231.5 360C250.416 360.643 291.509 247.055 261.5 221.623Z" fill="#EFBE20" fill-opacity="0.2"/>
<path d="M355.981 130.526L336.583 155.076L305.98 146.412C303.06 145.585 300.674 143.477 299.492 140.682L286.205 109.24L310.421 88.5862C313.097 86.3031 316.777 85.5947 320.11 86.7207L342.629 94.3279L356.835 119.397C358.84 122.935 358.502 127.335 355.981 130.526Z" fill="#FCD448"/>
<path d="M336.583 155.076L355.981 130.526C358.502 127.335 358.84 122.935 356.835 119.397L342.629 94.3279M336.583 155.076L317.698 120.415M336.583 155.076L305.98 146.412C303.06 145.585 300.674 143.477 299.492 140.682L286.205 109.24M342.629 94.3279L317.698 120.415M342.629 94.3279L320.11 86.7207C316.777 85.5947 313.097 86.3031 310.421 88.5862L286.205 109.24M317.698 120.415L286.205 109.24" stroke="#EFBE20" stroke-width="3" stroke-linejoin="round"/>
</g>
<defs>
<clipPath id="clip0_550_21240">
<rect width="440" height="440" fill="white"/>
</clipPath>
</defs>
</svg>
