<svg width="440" height="440" viewBox="0 0 440 440" fill="none" xmlns="http://www.w3.org/2000/svg">
<g clip-path="url(#clip0_550_21204)">
<path d="M370.444 18.8488L244.167 158.605L268.72 181.351L405.401 46.9791C428.87 25.8785 403.939 -17.8374 370.444 18.8488Z" fill="#182435" stroke="#323232" stroke-width="2.80742"/>
<path d="M290.603 371.309C236.15 436.82 138.972 445.853 73.5508 391.474C8.12929 337.095 -0.752592 239.903 53.7009 174.393C108.154 108.882 205.331 99.8492 270.753 154.228C336.174 208.608 345.056 305.798 290.603 371.309Z" fill="#182435" stroke="#7F7F7F" stroke-width="5.11297"/>
<path d="M265.831 350.719C222.764 402.532 145.908 409.674 94.1697 366.668C42.4313 323.662 35.4045 246.796 78.4721 194.983C121.54 143.171 198.395 136.029 250.133 179.035C301.871 222.04 308.899 298.906 265.831 350.719Z" fill="#253243" stroke="#324053" stroke-width="1.27824"/>
<path d="M261.501 221.622C227.813 186.504 109.001 180.999 92.0006 205.5C73.2444 232.758 69.3542 282.546 82.5006 307.5C109.065 348.838 158.659 290.251 183.5 280C202.416 280.643 291.51 247.054 261.501 221.622Z" fill="#EFBE20" fill-opacity="0.2"/>
<path d="M172.981 345.526L153.583 370.076L122.98 361.412C120.06 360.585 117.674 358.477 116.492 355.682L103.205 324.24L127.421 303.586C130.097 301.303 133.777 300.595 137.11 301.721L159.629 309.328L173.835 334.397C175.84 337.935 175.502 342.335 172.981 345.526Z" fill="#FCD448"/>
<path d="M153.583 370.076L172.981 345.526C175.502 342.335 175.84 337.935 173.835 334.397L159.629 309.328M153.583 370.076L134.698 335.415M153.583 370.076L122.98 361.412C120.06 360.585 117.674 358.477 116.492 355.682L103.205 324.24M159.629 309.328L134.698 335.415M159.629 309.328L137.11 301.721C133.777 300.595 130.097 301.303 127.421 303.586L103.205 324.24M134.698 335.415L103.205 324.24" stroke="#EFBE20" stroke-width="3" stroke-linejoin="round"/>
</g>
<defs>
<clipPath id="clip0_550_21204">
<rect width="440" height="440" fill="white"/>
</clipPath>
</defs>
</svg>
