<svg width="236" height="270" viewBox="0 0 236 270" fill="none" xmlns="http://www.w3.org/2000/svg">
<g clip-path="url(#clip0_569_21124)">
<rect width="236" height="270" rx="20" fill="#96E77F"/>
<path d="M-1.27726 91.1541C26.9708 66.1261 77.7691 61.1033 122.525 86.1292C161.997 106.555 196.93 101.955 248.461 81.0177" stroke="#E4F0CB"/>
<path d="M-33.2801 139.596C1.25721 102.848 63.6227 95.9343 118.759 133.425C167.376 164.055 210.256 157.604 273.419 127.147" stroke="#E4F0CB"/>
<path d="M-62.5879 182.665C-25.5206 157.007 40.6722 150.875 98.6485 174.94C149.8 194.518 195.333 189.154 262.665 167.083" stroke="#E4F0CB"/>
<path d="M59.75 51.375C55.375 51.375 52.375 49.4844 51.5 46.8594C51.3906 46.5156 51.3125 46.1406 51.3125 45.7656C51.3125 44.75 51.9375 44.0938 52.8906 44.0938C53.6875 44.0938 54.2031 44.4531 54.5469 45.2969C55.25 47.4062 57.2969 48.3906 59.9062 48.3906C62.7656 48.3906 64.8125 46.9219 64.8125 44.9062C64.8125 43.1562 63.625 42.0625 60.6094 41.4062L58.1406 40.8906C53.6406 39.9375 51.5938 37.8438 51.5938 34.5938C51.5938 30.7344 54.9844 28.0781 59.7812 28.0781C63.6719 28.0781 66.7344 29.9062 67.6094 32.9219C67.6875 33.1406 67.7344 33.4062 67.7344 33.7344C67.7344 34.6406 67.0938 35.2344 66.1875 35.2344C65.3438 35.2344 64.8281 34.8438 64.4688 34.0312C63.7031 31.9531 61.9844 31.0625 59.7344 31.0625C57.0938 31.0625 55.1406 32.3438 55.1406 34.4062C55.1406 36.0469 56.3125 37.1406 59.2344 37.7656L61.6875 38.2812C66.4219 39.2812 68.3594 41.1719 68.3594 44.4531C68.3594 48.7031 65.0156 51.375 59.75 51.375ZM75.9062 51.2812C72.6875 51.2812 70.4219 49.2812 70.4219 46.3281C70.4219 43.4531 72.6406 41.6875 76.5312 41.4688L81.0469 41.2031V39.9375C81.0469 38.1094 79.8125 37.0156 77.75 37.0156C76.125 37.0156 75.0469 37.5938 74.1094 39.0938C73.7656 39.5938 73.3281 39.8125 72.7344 39.8125C71.8906 39.8125 71.2812 39.25 71.2812 38.4062C71.2812 38.0625 71.375 37.6875 71.5781 37.3125C72.4375 35.4531 74.9219 34.2656 77.875 34.2656C81.8594 34.2656 84.4062 36.375 84.4062 39.6719V49.5938C84.4062 50.6562 83.7344 51.2969 82.7812 51.2969C81.8438 51.2969 81.2031 50.6875 81.1719 49.6875V48.2969H81.0938C80.1406 50.125 78.0469 51.2812 75.9062 51.2812ZM76.8281 48.6094C79.1875 48.6094 81.0469 46.9844 81.0469 44.8438V43.5469L76.9844 43.7969C74.9688 43.9375 73.8281 44.8281 73.8281 46.2344C73.8281 47.6719 75.0312 48.6094 76.8281 48.6094ZM89.5 51.2969C88.5156 51.2969 87.8125 50.625 87.8125 49.5156V29.9375C87.8125 28.8281 88.5156 28.1562 89.5 28.1562C90.4844 28.1562 91.1875 28.8281 91.1875 29.9375V49.5156C91.1875 50.625 90.4844 51.2969 89.5 51.2969ZM99.4688 51.2812C96.25 51.2812 93.9844 49.2812 93.9844 46.3281C93.9844 43.4531 96.2031 41.6875 100.094 41.4688L104.609 41.2031V39.9375C104.609 38.1094 103.375 37.0156 101.312 37.0156C99.6875 37.0156 98.6094 37.5938 97.6719 39.0938C97.3281 39.5938 96.8906 39.8125 96.2969 39.8125C95.4531 39.8125 94.8438 39.25 94.8438 38.4062C94.8438 38.0625 94.9375 37.6875 95.1406 37.3125C96 35.4531 98.4844 34.2656 101.438 34.2656C105.422 34.2656 107.969 36.375 107.969 39.6719V49.5938C107.969 50.6562 107.297 51.2969 106.344 51.2969C105.406 51.2969 104.766 50.6875 104.734 49.6875V48.2969H104.656C103.703 50.125 101.609 51.2812 99.4688 51.2812ZM100.391 48.6094C102.75 48.6094 104.609 46.9844 104.609 44.8438V43.5469L100.547 43.7969C98.5312 43.9375 97.3906 44.8281 97.3906 46.2344C97.3906 47.6719 98.5938 48.6094 100.391 48.6094ZM117.422 51.2812C113.266 51.2812 110.516 47.9688 110.516 42.7812C110.516 37.5938 113.266 34.2969 117.391 34.2969C119.75 34.2969 121.625 35.4844 122.547 37.2969H122.609V29.9375C122.609 28.8281 123.312 28.1562 124.312 28.1562C125.297 28.1562 126 28.8281 126 29.9375V49.6094C126 50.6719 125.312 51.2969 124.328 51.2969C123.375 51.2969 122.609 50.6719 122.609 49.6094V48.0781H122.562C121.719 50 119.984 51.2812 117.422 51.2812ZM118.312 48.4219C120.906 48.4219 122.641 46.2188 122.641 42.7812C122.641 39.375 120.906 37.1406 118.312 37.1406C115.641 37.1406 113.969 39.3281 113.969 42.7812C113.969 46.25 115.641 48.4219 118.312 48.4219ZM134.281 51.2812C131.062 51.2812 128.797 49.2812 128.797 46.3281C128.797 43.4531 131.016 41.6875 134.906 41.4688L139.422 41.2031V39.9375C139.422 38.1094 138.188 37.0156 136.125 37.0156C134.5 37.0156 133.422 37.5938 132.484 39.0938C132.141 39.5938 131.703 39.8125 131.109 39.8125C130.266 39.8125 129.656 39.25 129.656 38.4062C129.656 38.0625 129.75 37.6875 129.953 37.3125C130.812 35.4531 133.297 34.2656 136.25 34.2656C140.234 34.2656 142.781 36.375 142.781 39.6719V49.5938C142.781 50.6562 142.109 51.2969 141.156 51.2969C140.219 51.2969 139.578 50.6875 139.547 49.6875V48.2969H139.469C138.516 50.125 136.422 51.2812 134.281 51.2812ZM135.203 48.6094C137.562 48.6094 139.422 46.9844 139.422 44.8438V43.5469L135.359 43.7969C133.344 43.9375 132.203 44.8281 132.203 46.2344C132.203 47.6719 133.406 48.6094 135.203 48.6094ZM158.734 51.2812C154.578 51.2812 151.828 47.9688 151.828 42.7812C151.828 37.5938 154.578 34.2969 158.703 34.2969C161.062 34.2969 162.938 35.4844 163.859 37.2969H163.922V29.9375C163.922 28.8281 164.625 28.1562 165.625 28.1562C166.609 28.1562 167.312 28.8281 167.312 29.9375V49.6094C167.312 50.6719 166.625 51.2969 165.641 51.2969C164.688 51.2969 163.922 50.6719 163.922 49.6094V48.0781H163.875C163.031 50 161.297 51.2812 158.734 51.2812ZM159.625 48.4219C162.219 48.4219 163.953 46.2188 163.953 42.7812C163.953 39.375 162.219 37.1406 159.625 37.1406C156.953 37.1406 155.281 39.3281 155.281 42.7812C155.281 46.25 156.953 48.4219 159.625 48.4219ZM177.906 51.3125C172.953 51.3125 170.047 48.1719 170.047 42.8594C170.047 37.6406 173.016 34.2656 177.672 34.2656C182.047 34.2656 185.062 37.4219 185.062 41.9062C185.062 43 184.438 43.625 183.391 43.625H173.453V43.7031C173.453 46.7031 175.141 48.5781 177.828 48.5781C179.672 48.5781 180.828 47.9375 182.078 46.2344C182.438 45.8125 182.781 45.6406 183.266 45.6406C184.078 45.6406 184.672 46.1719 184.672 47.0156C184.672 47.2812 184.578 47.5938 184.438 47.9219C183.359 50.0781 180.969 51.3125 177.906 51.3125ZM173.469 41.2656H181.688C181.609 38.6875 180 36.9844 177.656 36.9844C175.328 36.9844 173.641 38.7031 173.469 41.2656ZM89.9219 83.2969C88.8906 83.2969 88.2188 82.6562 88.2188 81.5312V69.2344H87.0469C86.25 69.2344 85.7031 68.7656 85.7031 67.9219C85.7031 67.1094 86.25 66.5938 87.0469 66.5938H88.2188V64.9844C88.2188 61.7969 89.7656 60.3125 92.5938 60.2969C94.3906 60.2969 95.25 60.875 95.25 61.7812C95.25 62.3281 94.9844 62.6562 94.4375 62.8125C94.2031 62.875 93.9219 62.9219 93.5781 62.9219C92.1562 62.9375 91.5625 63.6094 91.5625 65.1094V66.5938H93.7812C94.5781 66.5938 95.125 67.1094 95.125 67.9219C95.125 68.7656 94.5781 69.2344 93.7812 69.2344H91.6094V81.5312C91.6094 82.6562 90.9375 83.2969 89.9219 83.2969ZM99.2344 83.2969C98.2188 83.2969 97.5469 82.6094 97.5469 81.5156V67.9688C97.5469 66.9375 98.2031 66.2656 99.1562 66.2656C100.094 66.2656 100.75 66.9375 100.75 67.9688V69.375H100.828C101.281 67.5312 102.797 66.2969 104.438 66.2969C105.031 66.2969 105.484 66.4375 105.766 66.7031C106.078 66.9531 106.219 67.3594 106.219 67.8906C106.219 68.4219 106.047 68.8125 105.719 69.0781C105.375 69.375 104.875 69.5156 104.172 69.5156C101.859 69.5312 100.922 71.0781 100.922 73.125V81.5156C100.922 82.6094 100.234 83.2969 99.2344 83.2969ZM113.734 83.2969C110.156 83.2969 107.969 80.9688 107.969 77.2031V68.0625C107.969 66.9375 108.656 66.2656 109.656 66.2656C110.641 66.2656 111.344 66.9375 111.344 68.0625V76.5469C111.344 79.0469 112.531 80.3906 114.859 80.3906C117.297 80.3906 118.766 78.7031 118.766 76.1406V68.0625C118.766 66.9375 119.469 66.2656 120.453 66.2656C121.453 66.2656 122.141 66.9375 122.141 68.0625V81.5781C122.141 82.625 121.5 83.2969 120.531 83.2969C119.562 83.2969 118.906 82.625 118.906 81.5938V80.2188H118.828C117.922 82.1875 116.25 83.2969 113.734 83.2969ZM126.469 79.0625V69.2344H125.281C124.406 69.2344 123.875 68.7344 123.875 67.9062C123.875 67.0625 124.406 66.5625 125.281 66.5625H126.469V64.125C126.469 63.0469 127.141 62.3281 128.172 62.3281C129.188 62.3281 129.859 63.0469 129.859 64.125V66.5625H131.781C132.656 66.5625 133.188 67.0781 133.188 67.9062C133.188 68.7344 132.656 69.2344 131.781 69.2344H129.859V78.3125C129.859 79.625 130.312 80.2188 131.531 80.3125L131.797 80.3281C132.766 80.4219 133.25 80.8125 133.25 81.6094C133.25 82.625 132.469 83.1406 130.812 83.1406H130.641C127.875 83.1406 126.469 81.7812 126.469 79.0625ZM140.328 83.2812C137.109 83.2812 134.844 81.2812 134.844 78.3281C134.844 75.4531 137.062 73.6875 140.953 73.4688L145.469 73.2031V71.9375C145.469 70.1094 144.234 69.0156 142.172 69.0156C140.547 69.0156 139.469 69.5938 138.531 71.0938C138.188 71.5938 137.75 71.8125 137.156 71.8125C136.312 71.8125 135.703 71.25 135.703 70.4062C135.703 70.0625 135.797 69.6875 136 69.3125C136.859 67.4531 139.344 66.2656 142.297 66.2656C146.281 66.2656 148.828 68.375 148.828 71.6719V81.5938C148.828 82.6562 148.156 83.2969 147.203 83.2969C146.266 83.2969 145.625 82.6875 145.594 81.6875V80.2969H145.516C144.562 82.125 142.469 83.2812 140.328 83.2812ZM141.25 80.6094C143.609 80.6094 145.469 78.9844 145.469 76.8438V75.5469L141.406 75.7969C139.391 75.9375 138.25 76.8281 138.25 78.2344C138.25 79.6719 139.453 80.6094 141.25 80.6094Z" fill="white"/>
<ellipse cx="117.5" cy="222" rx="65.5" ry="15" fill="white" fill-opacity="0.63"/>
<path d="M132.624 117L169.551 147.925C157.532 163.205 114.784 146.833 132.624 117Z" fill="#FFEAEA" stroke="#B1675A" stroke-width="1.45529"/>
<path d="M75.902 113.368L114.392 145.602C101.864 161.53 57.3066 144.464 75.902 113.368Z" fill="#E8F2D4" stroke="#67B019" stroke-width="1.51691"/>
<path d="M85.6075 125.27C80.3185 155.993 83.4522 162.384 115.173 144.017C119.39 141.575 121.507 136.447 119.418 132.043C116.729 126.373 113.204 122.724 107.956 120.344C104.514 118.783 100.15 117.629 95.2933 117.192C90.4569 116.756 86.4314 120.485 85.6075 125.27Z" fill="#C8331C" stroke="#A22F1B" stroke-width="1.43665"/>
<ellipse cx="91.5825" cy="149.789" rx="0.897905" ry="2.51413" transform="rotate(27.0836 91.5825 149.789)" fill="#FE8166"/>
<ellipse cx="91.2238" cy="142.247" rx="0.897905" ry="2.51413" transform="rotate(11.2582 91.2238 142.247)" fill="#FE8166"/>
<ellipse cx="100.55" cy="145.343" rx="0.897905" ry="2.51413" transform="rotate(39.5155 100.55 145.343)" fill="#FE8166"/>
<ellipse cx="97.8351" cy="128.952" rx="0.897905" ry="2.51413" transform="rotate(11.2582 97.8351 128.952)" fill="#FE8166"/>
<ellipse cx="107.161" cy="132.047" rx="0.897905" ry="2.51413" transform="rotate(39.5155 107.161 132.047)" fill="#FE8166"/>
<ellipse cx="99.1123" cy="137.082" rx="0.897905" ry="2.51413" transform="rotate(21.8141 99.1123 137.082)" fill="#FE8166"/>
<ellipse cx="107.929" cy="141.549" rx="0.897905" ry="2.51413" transform="rotate(21.8141 107.929 141.549)" fill="#FE8166"/>
<ellipse cx="89.9716" cy="133.648" rx="0.897905" ry="2.51413" transform="rotate(21.8141 89.9716 133.648)" fill="#FE8166"/>
<path d="M78.142 130.318L115.068 161.243C103.049 176.524 60.302 160.152 78.142 130.318Z" fill="#FFEAEA" stroke="#B1675A" stroke-width="1.45529"/>
<path d="M93.8252 138.041C103.944 138.041 112.134 146.113 112.134 156.056C112.134 165.999 103.944 174.072 93.8252 174.072C83.7066 174.072 75.5167 165.999 75.5166 156.056C75.5166 146.113 83.7066 138.041 93.8252 138.041Z" fill="#EFBE20" stroke="#EFBE20" stroke-width="0.915054"/>
<path d="M94.6826 138.041C104.104 138.041 111.781 146.084 111.781 156.056C111.781 166.028 104.104 174.072 94.6826 174.072C85.2613 174.072 77.5851 166.028 77.585 156.056C77.585 146.084 85.2612 138.041 94.6826 138.041Z" fill="#FFDE5F" stroke="#EFBE20" stroke-width="0.915054"/>
<path d="M98.3493 149.844C96.6377 150.933 96.1121 151.873 95.6152 153.582C95.5912 153.665 95.6846 153.731 95.7542 153.68C97.4071 152.483 98.0418 151.614 98.4832 149.942C98.504 149.863 98.4183 149.8 98.3493 149.844Z" fill="#D1951E" stroke="#D1951E" stroke-width="0.915054"/>
<path d="M92.9378 158.574C91.6757 160.128 91.4885 161.18 91.5833 162.952C91.5879 163.037 91.6986 163.071 91.7481 163.001C92.9187 161.363 93.2329 160.346 93.0977 158.625C93.0913 158.544 92.9887 158.512 92.9378 158.574Z" fill="#D1951E" stroke="#D1951E" stroke-width="0.915054"/>
<path d="M87.6398 156.536C89.6068 157.09 90.6942 156.87 92.3762 156.135C92.4563 156.1 92.4438 155.988 92.3576 155.969C90.3424 155.527 89.2419 155.621 87.625 156.373C87.5498 156.408 87.5592 156.513 87.6398 156.536Z" fill="#D1951E" stroke="#D1951E" stroke-width="0.915054"/>
<path d="M90.869 149.127C90.7908 151.093 91.2787 152.051 92.4332 153.436C92.488 153.502 92.5983 153.462 92.5963 153.377C92.5493 151.394 92.1852 150.393 91.0294 149.073C90.9757 149.012 90.8722 149.047 90.869 149.127Z" fill="#D1951E" stroke="#D1951E" stroke-width="0.915054"/>
<path d="M96.5269 158.976C96.7378 160.932 97.3615 161.814 98.7074 163.029C98.7712 163.087 98.8744 163.032 98.8599 162.948C98.5226 160.992 98.0151 160.05 96.6774 158.899C96.6154 158.846 96.5182 158.896 96.5269 158.976Z" fill="#D1951E" stroke="#D1951E" stroke-width="0.915054"/>
<path d="M101.723 155.781C99.7057 155.427 98.6481 155.754 97.0551 156.654C96.979 156.697 97.0028 156.807 97.0903 156.818C99.1432 157.055 100.228 156.852 101.754 155.941C101.825 155.899 101.805 155.796 101.723 155.781Z" fill="#D1951E" stroke="#D1951E" stroke-width="0.915054"/>
<circle cx="138.622" cy="150.296" r="17.014" fill="#A0C363" stroke="#765920" stroke-width="1.08369"/>
<circle cx="138.622" cy="150.296" r="4.33478" fill="#D5F587"/>
<path d="M137.973 140.459C137.973 139.46 139.707 139.369 139.707 140.459C139.707 140.459 139.707 142.638 139.707 143.546C139.707 144.454 137.973 144.454 137.973 143.546C137.973 142.638 137.973 140.459 137.973 140.459Z" fill="#476A10"/>
<path d="M131.692 142.811C131.134 141.983 132.521 140.939 133.13 141.842C133.13 141.842 134.348 143.649 134.855 144.402C135.362 145.155 133.925 146.124 133.417 145.371C132.91 144.618 131.692 142.811 131.692 142.811Z" fill="#476A10"/>
<path d="M128.767 148.69C127.792 148.475 128.077 146.762 129.141 146.997C129.141 146.997 131.269 147.468 132.156 147.664C133.042 147.859 132.668 149.553 131.781 149.357C130.895 149.161 128.767 148.69 128.767 148.69Z" fill="#476A10"/>
<path d="M129.725 154.678C128.843 155.146 127.95 153.657 128.912 153.147C128.912 153.147 130.837 152.125 131.639 151.699C132.441 151.273 133.254 152.805 132.452 153.231C131.65 153.656 129.725 154.678 129.725 154.678Z" fill="#476A10"/>
<path d="M133.778 158.941C133.219 159.769 131.731 158.874 132.341 157.971C132.341 157.971 133.559 156.164 134.067 155.412C134.575 154.659 136.012 155.629 135.504 156.382C134.997 157.134 133.778 158.941 133.778 158.941Z" fill="#476A10"/>
<path d="M139.527 160.132C139.537 161.131 137.804 161.239 137.794 160.149C137.794 160.149 137.772 157.97 137.763 157.062C137.754 156.155 139.488 156.137 139.497 157.045C139.506 157.953 139.527 160.132 139.527 160.132Z" fill="#476A10"/>
<path d="M144.961 157.75C145.598 158.52 144.32 159.695 143.626 158.856C143.626 158.856 142.236 157.177 141.657 156.478C141.079 155.778 142.414 154.673 142.993 155.372C143.572 156.071 144.961 157.75 144.961 157.75Z" fill="#476A10"/>
<path d="M148.146 152.675C149.103 152.961 148.693 154.648 147.649 154.336C147.649 154.336 145.561 153.712 144.691 153.452C143.822 153.192 144.318 151.531 145.188 151.791C146.058 152.051 148.146 152.675 148.146 152.675Z" fill="#476A10"/>
<path d="M148.111 147.033C149.075 146.771 149.618 148.42 148.567 148.706C148.567 148.706 146.464 149.279 145.588 149.517C144.712 149.756 144.257 148.083 145.132 147.844C146.008 147.606 148.111 147.033 148.111 147.033Z" fill="#476A10"/>
<path d="M144.459 142.019C145.086 141.242 146.492 142.261 145.808 143.109C145.808 143.109 144.439 144.804 143.868 145.51C143.298 146.217 141.949 145.127 142.519 144.421C143.09 143.715 144.459 142.019 144.459 142.019Z" fill="#476A10"/>
<path d="M127.726 128.355C137.844 128.355 146.034 136.427 146.034 146.371C146.034 156.314 137.844 164.386 127.726 164.386C117.607 164.386 109.417 156.314 109.417 146.371C109.417 136.427 117.607 128.355 127.726 128.355Z" fill="#EFBE20" stroke="#EFBE20" stroke-width="0.915054"/>
<path d="M128.583 128.355C138.004 128.355 145.682 136.398 145.682 146.371C145.682 156.343 138.004 164.386 128.583 164.386C119.162 164.386 111.485 156.343 111.485 146.371C111.485 136.399 119.162 128.355 128.583 128.355Z" fill="#FFDE5F" stroke="#EFBE20" stroke-width="0.915054"/>
<path d="M132.25 140.158C130.538 141.247 130.012 142.187 129.516 143.897C129.492 143.979 129.585 144.045 129.655 143.995C131.307 142.797 131.942 141.929 132.384 140.256C132.404 140.177 132.319 140.114 132.25 140.158Z" fill="#D1951E" stroke="#D1951E" stroke-width="0.915054"/>
<path d="M126.838 148.889C125.576 150.443 125.389 151.494 125.484 153.266C125.488 153.352 125.599 153.385 125.648 153.316C126.819 151.677 127.133 150.66 126.998 148.94C126.992 148.859 126.889 148.826 126.838 148.889Z" fill="#D1951E" stroke="#D1951E" stroke-width="0.915054"/>
<path d="M121.54 146.85C123.507 147.404 124.595 147.185 126.277 146.449C126.357 146.414 126.344 146.302 126.258 146.283C124.243 145.842 123.142 145.935 121.525 146.688C121.45 146.723 121.46 146.827 121.54 146.85Z" fill="#D1951E" stroke="#D1951E" stroke-width="0.915054"/>
<path d="M124.769 139.442C124.691 141.407 125.179 142.365 126.334 143.75C126.388 143.816 126.499 143.777 126.497 143.692C126.45 141.709 126.086 140.708 124.93 139.387C124.876 139.326 124.773 139.361 124.769 139.442Z" fill="#D1951E" stroke="#D1951E" stroke-width="0.915054"/>
<path d="M130.427 149.291C130.638 151.246 131.262 152.129 132.608 153.344C132.672 153.402 132.775 153.346 132.76 153.262C132.423 151.306 131.916 150.365 130.578 149.214C130.516 149.161 130.419 149.21 130.427 149.291Z" fill="#D1951E" stroke="#D1951E" stroke-width="0.915054"/>
<path d="M135.623 146.096C133.606 145.742 132.548 146.069 130.955 146.969C130.879 147.012 130.903 147.122 130.991 147.132C133.044 147.37 134.128 147.166 135.654 146.256C135.726 146.213 135.706 146.11 135.623 146.096Z" fill="#D1951E" stroke="#D1951E" stroke-width="0.915054"/>
<circle cx="111.986" cy="139.399" r="17.014" fill="#A0C363" stroke="#765920" stroke-width="1.08369"/>
<circle cx="111.985" cy="139.399" r="4.33478" fill="#D5F587"/>
<path d="M111.336 129.562C111.336 128.564 113.07 128.473 113.07 129.562C113.07 129.562 113.07 131.742 113.07 132.649C113.07 133.557 111.336 133.557 111.336 132.649C111.336 131.742 111.336 129.562 111.336 129.562Z" fill="#476A10"/>
<path d="M105.055 131.914C104.497 131.086 105.884 130.042 106.493 130.945C106.493 130.945 107.711 132.752 108.218 133.505C108.726 134.258 107.288 135.227 106.781 134.474C106.273 133.721 105.055 131.914 105.055 131.914Z" fill="#476A10"/>
<path d="M102.13 137.793C101.155 137.578 101.441 135.865 102.505 136.1C102.505 136.1 104.632 136.571 105.519 136.767C106.405 136.963 106.031 138.656 105.145 138.46C104.258 138.264 102.13 137.793 102.13 137.793Z" fill="#476A10"/>
<path d="M103.089 143.781C102.206 144.249 101.313 142.76 102.276 142.25C102.276 142.25 104.2 141.228 105.002 140.802C105.804 140.376 106.617 141.908 105.815 142.334C105.013 142.759 103.089 143.781 103.089 143.781Z" fill="#476A10"/>
<path d="M107.141 148.044C106.583 148.872 105.095 147.977 105.704 147.074C105.704 147.074 106.923 145.268 107.43 144.515C107.938 143.762 109.375 144.732 108.868 145.485C108.36 146.237 107.141 148.044 107.141 148.044Z" fill="#476A10"/>
<path d="M112.891 149.235C112.901 150.234 111.168 150.342 111.157 149.253C111.157 149.253 111.135 147.074 111.126 146.166C111.117 145.258 112.851 145.241 112.86 146.149C112.869 147.056 112.891 149.235 112.891 149.235Z" fill="#476A10"/>
<path d="M118.325 146.854C118.961 147.623 117.684 148.799 116.989 147.959C116.989 147.959 115.599 146.28 115.021 145.581C114.442 144.882 115.778 143.776 116.356 144.476C116.935 145.175 118.325 146.854 118.325 146.854Z" fill="#476A10"/>
<path d="M121.509 141.778C122.466 142.064 122.057 143.751 121.013 143.439C121.013 143.439 118.925 142.816 118.055 142.556C117.185 142.296 117.681 140.635 118.551 140.894C119.421 141.154 121.509 141.778 121.509 141.778Z" fill="#476A10"/>
<path d="M121.474 136.137C122.438 135.875 122.981 137.524 121.93 137.81C121.93 137.81 119.827 138.382 118.951 138.621C118.075 138.859 117.62 137.186 118.496 136.948C119.372 136.709 121.474 136.137 121.474 136.137Z" fill="#476A10"/>
<path d="M117.822 131.122C118.45 130.345 119.856 131.364 119.171 132.212C119.171 132.212 117.802 133.907 117.232 134.613C116.661 135.32 115.312 134.23 115.883 133.524C116.453 132.818 117.822 131.122 117.822 131.122Z" fill="#476A10"/>
<path d="M132.624 147.269L169.551 178.193C157.532 193.474 114.784 177.102 132.624 147.269Z" fill="#FFEAEA" stroke="#B1675A" stroke-width="1.45529"/>
<path d="M95.0361 145.305C105.155 145.305 113.345 153.378 113.345 163.321C113.345 173.264 105.155 181.336 95.0361 181.336C84.9176 181.336 76.7277 173.264 76.7275 163.321C76.7275 153.378 84.9175 145.305 95.0361 145.305Z" fill="#EFBE20" stroke="#EFBE20" stroke-width="0.915054"/>
<path d="M95.8936 145.305C105.315 145.305 112.992 153.349 112.992 163.321C112.992 173.293 105.315 181.336 95.8936 181.336C86.4723 181.336 78.796 173.293 78.7959 163.321C78.7959 153.349 86.4722 145.305 95.8936 145.305Z" fill="#FFDE5F" stroke="#EFBE20" stroke-width="0.915054"/>
<path d="M99.5603 157.108C97.8487 158.197 97.323 159.137 96.8262 160.847C96.8022 160.929 96.8955 160.995 96.9652 160.945C98.618 159.748 99.2527 158.879 99.6941 157.207C99.715 157.128 99.6292 157.065 99.5603 157.108Z" fill="#D1951E" stroke="#D1951E" stroke-width="0.915054"/>
<path d="M94.1487 165.839C92.8867 167.393 92.6995 168.444 92.7942 170.217C92.7988 170.302 92.9095 170.335 92.959 170.266C94.1296 168.628 94.4438 167.611 94.3087 165.89C94.3023 165.809 94.1997 165.776 94.1487 165.839Z" fill="#D1951E" stroke="#D1951E" stroke-width="0.915054"/>
<path d="M88.8507 163.8C90.8177 164.354 91.9051 164.135 93.5871 163.4C93.6672 163.365 93.6547 163.253 93.5686 163.234C91.5534 162.792 90.4528 162.886 88.8359 163.638C88.7607 163.673 88.7702 163.778 88.8507 163.8Z" fill="#D1951E" stroke="#D1951E" stroke-width="0.915054"/>
<path d="M92.08 156.392C92.0017 158.358 92.4896 159.316 93.6441 160.701C93.699 160.766 93.8092 160.727 93.8072 160.642C93.7603 158.659 93.3961 157.658 92.2403 156.338C92.1867 156.276 92.0832 156.311 92.08 156.392Z" fill="#D1951E" stroke="#D1951E" stroke-width="0.915054"/>
<path d="M97.7378 166.241C97.9488 168.197 98.5724 169.079 99.9183 170.294C99.9821 170.352 100.085 170.296 100.071 170.212C99.7335 168.257 99.2261 167.315 97.8883 166.164C97.8264 166.111 97.7291 166.16 97.7378 166.241Z" fill="#D1951E" stroke="#D1951E" stroke-width="0.915054"/>
<path d="M102.934 163.046C100.917 162.692 99.859 163.019 98.266 163.919C98.19 163.962 98.2137 164.072 98.3013 164.082C100.354 164.32 101.439 164.116 102.965 163.206C103.036 163.163 103.016 163.06 102.934 163.046Z" fill="#D1951E" stroke="#D1951E" stroke-width="0.915054"/>
<path d="M103.77 162.803C98.4806 193.526 101.614 199.917 133.335 181.55C137.553 179.108 139.669 173.98 137.58 169.576C134.892 163.906 131.366 160.257 126.118 157.877C122.676 156.316 118.312 155.162 113.455 154.725C108.619 154.29 104.593 158.018 103.77 162.803Z" fill="#C8331C" stroke="#A22F1B" stroke-width="1.43665"/>
<ellipse cx="109.745" cy="183.69" rx="0.897905" ry="2.51413" transform="rotate(27.0836 109.745 183.69)" fill="#FE8166"/>
<ellipse cx="109.384" cy="176.148" rx="0.897905" ry="2.51413" transform="rotate(11.2582 109.384 176.148)" fill="#FE8166"/>
<ellipse cx="118.712" cy="179.244" rx="0.897905" ry="2.51413" transform="rotate(39.5155 118.712 179.244)" fill="#FE8166"/>
<ellipse cx="115.995" cy="162.852" rx="0.897905" ry="2.51413" transform="rotate(11.2582 115.995 162.852)" fill="#FE8166"/>
<ellipse cx="125.321" cy="165.948" rx="0.897905" ry="2.51413" transform="rotate(39.5155 125.321 165.948)" fill="#FE8166"/>
<ellipse cx="117.274" cy="170.983" rx="0.897905" ry="2.51413" transform="rotate(21.8141 117.274 170.983)" fill="#FE8166"/>
<ellipse cx="126.091" cy="175.45" rx="0.897905" ry="2.51413" transform="rotate(21.8141 126.091 175.45)" fill="#FE8166"/>
<ellipse cx="108.132" cy="167.549" rx="0.897905" ry="2.51413" transform="rotate(21.8141 108.132 167.549)" fill="#FE8166"/>
<path d="M55.32 137.583L93.81 169.817C81.2819 185.744 36.7245 168.679 55.32 137.583Z" fill="#E8F2D4" stroke="#67B019" stroke-width="1.51691"/>
<path d="M168.259 138.673C178.377 138.673 186.567 146.745 186.567 156.688C186.567 166.631 178.377 174.704 168.259 174.704C158.14 174.704 149.95 166.631 149.95 156.688C149.95 146.745 158.14 138.673 168.259 138.673Z" fill="#EFBE20" stroke="#EFBE20" stroke-width="0.915054"/>
<path d="M169.116 138.673C178.538 138.673 186.215 146.716 186.215 156.688C186.215 166.66 178.538 174.704 169.116 174.704C159.695 174.704 152.019 166.66 152.019 156.688C152.019 146.716 159.695 138.673 169.116 138.673Z" fill="#FFDE5F" stroke="#EFBE20" stroke-width="0.915054"/>
<path d="M172.783 150.476C171.071 151.565 170.546 152.505 170.049 154.214C170.025 154.297 170.118 154.363 170.188 154.312C171.841 153.115 172.475 152.247 172.917 150.574C172.938 150.495 172.852 150.432 172.783 150.476Z" fill="#D1951E" stroke="#D1951E" stroke-width="0.915054"/>
<path d="M167.371 159.207C166.109 160.761 165.922 161.812 166.017 163.584C166.021 163.67 166.132 163.703 166.182 163.634C167.352 161.995 167.666 160.978 167.531 159.258C167.525 159.177 167.422 159.144 167.371 159.207Z" fill="#D1951E" stroke="#D1951E" stroke-width="0.915054"/>
<path d="M162.073 157.168C164.04 157.722 165.128 157.503 166.81 156.767C166.89 156.732 166.877 156.62 166.791 156.601C164.776 156.159 163.675 156.253 162.059 157.006C161.983 157.041 161.993 157.145 162.073 157.168Z" fill="#D1951E" stroke="#D1951E" stroke-width="0.915054"/>
<path d="M165.303 149.76C165.224 151.725 165.712 152.683 166.867 154.068C166.922 154.134 167.032 154.094 167.03 154.009C166.983 152.027 166.619 151.026 165.463 149.705C165.409 149.644 165.306 149.679 165.303 149.76Z" fill="#D1951E" stroke="#D1951E" stroke-width="0.915054"/>
<path d="M170.96 159.609C171.171 161.564 171.795 162.447 173.141 163.662C173.205 163.719 173.308 163.664 173.294 163.58C172.956 161.624 172.449 160.683 171.111 159.532C171.049 159.478 170.952 159.528 170.96 159.609Z" fill="#D1951E" stroke="#D1951E" stroke-width="0.915054"/>
<path d="M176.156 156.414C174.139 156.059 173.082 156.387 171.489 157.287C171.413 157.33 171.436 157.44 171.524 157.45C173.577 157.687 174.661 157.484 176.188 156.574C176.259 156.531 176.239 156.428 176.156 156.414Z" fill="#D1951E" stroke="#D1951E" stroke-width="0.915054"/>
<path d="M46.7108 146.058C41.006 194.471 194.697 197.236 188.948 143.636C207.308 259.263 33.5662 254.42 46.7108 146.058Z" fill="#FDFDFD"/>
<path d="M56.8967 135.161C55.4878 137.706 46.9924 143.76 46.7108 146.058M179.182 136.977C180.765 139.971 188.563 140.979 188.948 143.636M46.7108 146.058C41.006 194.471 194.697 197.236 188.948 143.636M46.7108 146.058C33.5662 254.42 207.308 259.263 188.948 143.636" stroke="#E3E3E3" stroke-width="3" stroke-linecap="round"/>
<path d="M153.933 134.408C148.918 165.177 152.109 171.539 183.664 152.89C187.86 150.411 189.931 145.264 187.803 140.879C185.064 135.233 181.506 131.616 176.237 129.283C172.781 127.753 168.407 126.637 163.547 126.243C158.706 125.852 154.714 129.615 153.933 134.408Z" fill="#C8331C" stroke="#A22F1B" stroke-width="1.43665"/>
<ellipse cx="160.272" cy="155.615" rx="0.897905" ry="2.51413" transform="rotate(26.5727 160.272 155.615)" fill="#FE8166"/>
<ellipse cx="159.845" cy="148.075" rx="0.897905" ry="2.51413" transform="rotate(10.7473 159.845 148.075)" fill="#FE8166"/>
<ellipse cx="169.199" cy="151.088" rx="0.897905" ry="2.51413" transform="rotate(39.0047 169.199 151.088)" fill="#FE8166"/>
<ellipse cx="166.337" cy="134.722" rx="0.897905" ry="2.51413" transform="rotate(10.7473 166.337 134.722)" fill="#FE8166"/>
<ellipse cx="175.69" cy="137.735" rx="0.897905" ry="2.51413" transform="rotate(39.0047 175.69 137.735)" fill="#FE8166"/>
<ellipse cx="167.689" cy="142.841" rx="0.897905" ry="2.51413" transform="rotate(21.3032 167.689 142.841)" fill="#FE8166"/>
<ellipse cx="176.544" cy="147.229" rx="0.897905" ry="2.51413" transform="rotate(21.3032 176.544 147.229)" fill="#FE8166"/>
<ellipse cx="158.515" cy="139.488" rx="0.897905" ry="2.51413" transform="rotate(21.3032 158.515 139.488)" fill="#FE8166"/>
<circle cx="66.5559" cy="146.556" r="17.014" fill="#A0C363" stroke="#765920" stroke-width="1.08369"/>
<circle cx="66.5555" cy="146.556" r="4.33478" fill="#D5F587"/>
<path d="M65.9063 136.72C65.9063 135.721 67.6402 135.63 67.6402 136.72C67.6402 136.72 67.6402 138.899 67.6402 139.807C67.6402 140.715 65.9063 140.715 65.9063 139.807C65.9062 138.899 65.9063 136.72 65.9063 136.72Z" fill="#476A10"/>
<path d="M59.6255 139.072C59.0672 138.243 60.4542 137.199 61.0633 138.103C61.0633 138.103 62.2813 139.91 62.7887 140.662C63.2961 141.415 61.8583 142.384 61.3509 141.631C60.8435 140.879 59.6255 139.072 59.6255 139.072Z" fill="#476A10"/>
<path d="M56.7007 144.95C55.7253 144.735 56.0109 143.022 57.0749 143.257C57.0749 143.257 59.2028 143.728 60.0892 143.924C60.9757 144.12 60.6014 145.813 59.7149 145.617C58.8285 145.421 56.7007 144.95 56.7007 144.95Z" fill="#476A10"/>
<path d="M57.6589 150.938C56.7766 151.407 55.8834 149.918 56.8459 149.407C56.8459 149.407 58.7707 148.385 59.5726 147.959C60.3745 147.534 61.1874 149.065 60.3856 149.491C59.5837 149.916 57.6589 150.938 57.6589 150.938Z" fill="#476A10"/>
<path d="M61.7117 155.201C61.153 156.029 59.6648 155.135 60.2742 154.231C60.2742 154.231 61.493 152.425 62.0007 151.672C62.5084 150.92 63.9458 151.889 63.4381 152.642C62.9304 153.394 61.7117 155.201 61.7117 155.201Z" fill="#476A10"/>
<path d="M67.461 156.392C67.4709 157.391 65.738 157.499 65.7271 156.409C65.7271 156.409 65.7055 154.23 65.6965 153.323C65.6875 152.415 67.4213 152.398 67.4303 153.305C67.4393 154.213 67.461 156.392 67.461 156.392Z" fill="#476A10"/>
<path d="M72.8949 154.011C73.5318 154.78 72.2539 155.956 71.5591 155.116C71.5591 155.116 70.1697 153.437 69.5909 152.738C69.0121 152.038 70.3479 150.933 70.9267 151.632C71.5055 152.332 72.8949 154.011 72.8949 154.011Z" fill="#476A10"/>
<path d="M76.0793 148.935C77.0364 149.221 76.627 150.909 75.5829 150.597C75.5829 150.597 73.4949 149.973 72.6251 149.713C71.7552 149.453 72.2516 147.792 73.1214 148.052C73.9913 148.312 76.0793 148.935 76.0793 148.935Z" fill="#476A10"/>
<path d="M76.0428 143.294C77.0066 143.031 77.5496 144.681 76.4982 144.967C76.4982 144.967 74.3955 145.539 73.5195 145.778C72.6436 146.016 72.1881 144.343 73.0641 144.105C73.9401 143.866 76.0428 143.294 76.0428 143.294Z" fill="#476A10"/>
<path d="M72.3905 138.28C73.0181 137.502 74.4241 138.521 73.7395 139.369C73.7395 139.369 72.3703 141.064 71.8 141.771C71.2296 142.477 69.8806 141.388 70.451 140.681C71.0214 139.975 72.3905 138.28 72.3905 138.28Z" fill="#476A10"/>
</g>
<defs>
<clipPath id="clip0_569_21124">
<rect width="236" height="270" rx="20" fill="white"/>
</clipPath>
</defs>
</svg>
