<svg width="440" height="440" viewBox="0 0 440 440" fill="none" xmlns="http://www.w3.org/2000/svg">
<g clip-path="url(#clip0_550_21222)">
<path d="M370.444 18.8488L244.167 158.605L268.72 181.351L405.401 46.9791C428.87 25.8785 403.939 -17.8374 370.444 18.8488Z" fill="#182435" stroke="#323232" stroke-width="2.80742"/>
<path d="M290.603 371.309C236.15 436.82 138.972 445.853 73.5508 391.474C8.12929 337.095 -0.752592 239.903 53.7009 174.393C108.154 108.882 205.331 99.8492 270.753 154.228C336.174 208.608 345.056 305.798 290.603 371.309Z" fill="#182435" stroke="#7F7F7F" stroke-width="5.11297"/>
<path d="M265.831 350.719C222.764 402.532 145.908 409.674 94.1697 366.668C42.4313 323.662 35.4045 246.796 78.4721 194.983C121.54 143.171 198.395 136.029 250.133 179.035C301.871 222.04 308.899 298.906 265.831 350.719Z" fill="#253243" stroke="#324053" stroke-width="1.27824"/>
<path d="M261.501 221.623C234.169 150.281 113.461 155.589 92.0007 205.5C57.3339 237.987 67.9399 323.11 98.0002 342.5C124.564 383.838 206.659 370.251 231.5 360C250.416 360.643 291.51 247.055 261.501 221.623Z" fill="#EFBE20" fill-opacity="0.2"/>
<path d="M269.981 328.526L250.583 353.076L219.98 344.412C217.06 343.585 214.674 341.477 213.492 338.682L200.205 307.24L224.421 286.586C227.097 284.303 230.777 283.595 234.11 284.721L256.629 292.328L270.835 317.397C272.84 320.935 272.502 325.335 269.981 328.526Z" fill="#FCD448"/>
<path d="M250.583 353.076L269.981 328.526C272.502 325.335 272.84 320.935 270.835 317.397L256.629 292.328M250.583 353.076L231.698 318.415M250.583 353.076L219.98 344.412C217.06 343.585 214.674 341.477 213.492 338.682L200.205 307.24M256.629 292.328L231.698 318.415M256.629 292.328L234.11 284.721C230.777 283.595 227.097 284.303 224.421 286.586L200.205 307.24M231.698 318.415L200.205 307.24" stroke="#EFBE20" stroke-width="3" stroke-linejoin="round"/>
</g>
<defs>
<clipPath id="clip0_550_21222">
<rect width="440" height="440" fill="white"/>
</clipPath>
</defs>
</svg>
