<svg width="236" height="270" viewBox="0 0 236 270" fill="none" xmlns="http://www.w3.org/2000/svg">
<g clip-path="url(#clip0_568_21069)">
<rect width="236" height="270" rx="20" fill="#F8F0AF"/>
<rect width="236" height="270" rx="20" fill="#B697FF"/>
<path d="M-1.27726 91.1541C26.9708 66.1261 77.7691 61.1033 122.525 86.1292C161.997 106.555 196.93 101.955 248.461 81.0177" stroke="#E2CCFC"/>
<path d="M-33.2801 139.596C1.25721 102.848 63.6227 95.9343 118.759 133.425C167.376 164.055 210.256 157.604 273.419 127.147" stroke="#E2CCFC"/>
<path d="M-62.5879 182.665C-25.5206 157.007 40.6722 150.875 98.6485 174.94C149.8 194.518 195.333 189.154 262.665 167.083" stroke="#E2CCFC"/>
<path d="M63.9375 66.375C57.5625 66.375 53.5781 61.9062 53.5781 54.7188C53.5781 47.5781 57.6094 43.0781 63.9062 43.0781C68.0469 43.0781 71.3594 45.0938 72.7656 48.4219C72.9844 48.875 73.0938 49.3438 73.0938 49.7656C73.0938 50.7031 72.4688 51.3125 71.5312 51.3125C70.7031 51.3125 70.1562 50.9062 69.7656 50C68.7188 47.4844 66.5 46.1406 63.9062 46.1406C59.8125 46.1406 57.1562 49.5 57.1562 54.7188C57.1562 59.9844 59.7812 63.3125 63.9219 63.3125C66.6719 63.3125 68.7812 62.1406 69.8281 59.7031C70.2031 58.875 70.6562 58.5312 71.4219 58.5312C72.375 58.5312 73.0312 59.1875 73.0312 60.1094C73.0312 60.5938 72.9062 61.0469 72.6562 61.5625C71.2031 64.6094 68.125 66.375 63.9375 66.375ZM81.0156 66.2812C77.7969 66.2812 75.5312 64.2812 75.5312 61.3281C75.5312 58.4531 77.75 56.6875 81.6406 56.4688L86.1562 56.2031V54.9375C86.1562 53.1094 84.9219 52.0156 82.8594 52.0156C81.2344 52.0156 80.1562 52.5938 79.2188 54.0938C78.875 54.5938 78.4375 54.8125 77.8438 54.8125C77 54.8125 76.3906 54.25 76.3906 53.4062C76.3906 53.0625 76.4844 52.6875 76.6875 52.3125C77.5469 50.4531 80.0312 49.2656 82.9844 49.2656C86.9688 49.2656 89.5156 51.375 89.5156 54.6719V64.5938C89.5156 65.6562 88.8438 66.2969 87.8906 66.2969C86.9531 66.2969 86.3125 65.6875 86.2812 64.6875V63.2969H86.2031C85.25 65.125 83.1562 66.2812 81.0156 66.2812ZM81.9375 63.6094C84.2969 63.6094 86.1562 61.9844 86.1562 59.8438V58.5469L82.0938 58.7969C80.0781 58.9375 78.9375 59.8281 78.9375 61.2344C78.9375 62.6719 80.1406 63.6094 81.9375 63.6094ZM94.6094 66.2969C93.625 66.2969 92.9219 65.625 92.9219 64.5156V44.9375C92.9219 43.8281 93.625 43.1562 94.6094 43.1562C95.5938 43.1562 96.2969 43.8281 96.2969 44.9375V56.5781H96.3281L103.156 49.8906C103.578 49.4375 103.938 49.2656 104.438 49.2656C105.266 49.2656 105.906 49.9062 105.906 50.7031C105.906 51.1875 105.766 51.5 105.328 51.9062L100.25 56.7188L105.828 63.625C106.188 64.0781 106.281 64.3906 106.281 64.8125C106.281 65.6719 105.609 66.2969 104.703 66.2969C104.078 66.2969 103.703 66.0938 103.25 65.4688L97.7969 58.7188L96.2969 60.125V64.5156C96.2969 65.625 95.5938 66.2969 94.6094 66.2969ZM115.297 66.3125C110.344 66.3125 107.438 63.1719 107.438 57.8594C107.438 52.6406 110.406 49.2656 115.062 49.2656C119.438 49.2656 122.453 52.4219 122.453 56.9062C122.453 58 121.828 58.625 120.781 58.625H110.844V58.7031C110.844 61.7031 112.531 63.5781 115.219 63.5781C117.062 63.5781 118.219 62.9375 119.469 61.2344C119.828 60.8125 120.172 60.6406 120.656 60.6406C121.469 60.6406 122.062 61.1719 122.062 62.0156C122.062 62.2812 121.969 62.5938 121.828 62.9219C120.75 65.0781 118.359 66.3125 115.297 66.3125ZM110.859 56.2656H119.078C119 53.6875 117.391 51.9844 115.047 51.9844C112.719 51.9844 111.031 53.7031 110.859 56.2656ZM133.734 66.25C132.641 66.25 131.984 65.5625 131.984 64.4375V45.2656C131.984 44.1406 132.641 43.4531 133.734 43.4531H140.438C144.812 43.4531 147.859 46.4688 147.859 50.8594C147.859 55.2656 144.75 58.2969 140.328 58.2969H135.484V64.4375C135.484 65.5625 134.812 66.25 133.734 66.25ZM135.484 55.3594H139.5C142.547 55.3594 144.281 53.7188 144.281 50.875C144.281 48.0312 142.547 46.4062 139.516 46.4062H135.484V55.3594ZM156.859 66.3125C152.156 66.3125 149.062 63.0781 149.062 57.7812C149.062 52.5 152.172 49.2656 156.859 49.2656C161.547 49.2656 164.656 52.5 164.656 57.7812C164.656 63.0781 161.562 66.3125 156.859 66.3125ZM156.859 63.5312C159.516 63.5312 161.219 61.4375 161.219 57.7812C161.219 54.1406 159.5 52.0469 156.859 52.0469C154.219 52.0469 152.5 54.1406 152.5 57.7812C152.5 61.4375 154.219 63.5312 156.859 63.5312ZM168.953 71.8281C167.953 71.8281 167.266 71.1406 167.266 70.0312V51C167.266 49.9219 167.938 49.2656 168.891 49.2656C169.844 49.2656 170.531 49.9219 170.531 51V52.3906H170.594C171.562 50.5 173.453 49.2969 175.828 49.2969C180 49.2969 182.75 52.5781 182.75 57.7812C182.75 62.9844 180.016 66.2812 175.891 66.2812C173.531 66.2812 171.656 65.125 170.719 63.2969H170.641V70.0312C170.641 71.1406 169.938 71.8281 168.953 71.8281ZM174.938 63.4219C177.609 63.4219 179.281 61.2344 179.281 57.7812C179.281 54.3438 177.609 52.1406 174.938 52.1406C172.359 52.1406 170.625 54.3906 170.625 57.7812C170.625 61.2031 172.344 63.4219 174.938 63.4219Z" fill="white"/>
<path d="M143.011 177.023L150.795 179.618L134.048 231.273C131.926 236.698 125.085 234.811 126.736 229.15L143.011 177.023Z" fill="#FED695" stroke="#E5B365" stroke-width="1.88694"/>
<path fill-rule="evenodd" clip-rule="evenodd" d="M181.814 164.44C176.641 187.555 124.97 190.294 124.011 148.781L129.988 147.71C131.933 147.361 133.865 148.281 134.948 149.934C138.494 155.347 141.813 157.707 148.965 155.44C151.416 154.663 154.134 155.616 155.418 157.844C159.997 165.785 164.043 166.573 172.615 157.272C177.014 163.096 179.776 165.309 181.814 164.44Z" fill="#F78187"/>
<path d="M185.824 156.565C184.83 160.3 183.843 162.815 182.578 163.944C182.334 164.161 182.08 164.327 181.814 164.44C179.776 165.309 177.014 163.096 172.615 157.272C164.043 166.573 159.997 165.785 155.418 157.844C154.134 155.616 151.416 154.663 148.965 155.44C141.813 157.707 138.494 155.347 134.948 149.934C133.865 148.281 131.933 147.361 129.988 147.71L124.011 148.781C124.023 103.259 195.024 113.165 185.824 156.565Z" fill="#F67371"/>
<path d="M181.814 164.44C176.641 187.555 124.97 190.294 124.011 148.781M181.814 164.44C179.776 165.309 177.014 163.096 172.615 157.272M181.814 164.44C182.08 164.327 182.334 164.161 182.578 163.944M124.011 148.781L129.988 147.71C131.933 147.361 133.865 148.281 134.948 149.934C138.494 155.347 141.813 157.707 148.965 155.44C151.416 154.663 154.134 155.616 155.418 157.844C159.997 165.785 164.043 166.573 172.615 157.272M124.011 148.781C124.023 103.259 195.024 113.165 185.824 156.565C184.83 160.3 183.843 162.815 182.578 163.944M172.615 157.272C177.589 163.857 180.469 165.825 182.578 163.944" stroke="#DF4D54" stroke-width="1.88694"/>
<circle cx="140.286" cy="131.973" r="1.65107" fill="white" fill-opacity="0.66"/>
<circle cx="156.796" cy="139.521" r="1.65107" fill="white" fill-opacity="0.66"/>
<ellipse cx="163.401" cy="131.029" rx="1.65107" ry="2.59454" fill="white" fill-opacity="0.66"/>
<circle cx="163.401" cy="146.596" r="1.65107" fill="white" fill-opacity="0.66"/>
<circle cx="171.656" cy="138.813" r="2.35867" fill="white" fill-opacity="0.66"/>
<ellipse cx="175.193" cy="148.719" rx="1.17934" ry="1.4152" fill="white" fill-opacity="0.66"/>
<ellipse cx="152.786" cy="130.322" rx="2.35867" ry="1.88694" fill="white" fill-opacity="0.66"/>
<ellipse cx="143.351" cy="143.059" rx="1.4152" ry="1.88694" fill="white" fill-opacity="0.66"/>
<path d="M98.6352 155.023L90.8516 157.618L107.598 209.273C109.721 214.698 116.561 212.811 114.91 207.15L98.6352 155.023Z" fill="#FED695" stroke="#E5B365" stroke-width="1.88694"/>
<path fill-rule="evenodd" clip-rule="evenodd" d="M59.8324 142.44C65.0058 165.555 116.676 168.294 117.636 126.781L111.659 125.71C109.713 125.361 107.781 126.281 106.698 127.934C103.153 133.347 99.8337 135.707 92.6817 133.44C90.2302 132.663 87.5129 133.616 86.2284 135.844C81.6497 143.785 77.6032 144.573 69.0313 135.272C64.6323 141.096 61.8706 143.309 59.8324 142.44Z" fill="#AA5E33"/>
<path d="M55.8227 134.565C56.8168 138.3 57.8038 140.815 59.0688 141.944C59.3124 142.161 59.5662 142.327 59.8324 142.44C61.8706 143.309 64.6323 141.096 69.0313 135.272C77.6032 144.573 81.6497 143.785 86.2284 135.844C87.5129 133.616 90.2302 132.663 92.6817 133.44C99.8337 135.707 103.153 133.347 106.698 127.934C107.781 126.281 109.713 125.361 111.659 125.71L117.636 126.781C117.623 81.259 46.6224 91.1652 55.8227 134.565Z" fill="#8F4922"/>
<path d="M59.8324 142.44C65.0058 165.555 116.676 168.294 117.636 126.781M59.8324 142.44C61.8706 143.309 64.6323 141.096 69.0313 135.272M59.8324 142.44C59.5662 142.327 59.3124 142.161 59.0688 141.944M117.636 126.781L111.659 125.71C109.713 125.361 107.781 126.281 106.698 127.934C103.153 133.347 99.8337 135.707 92.6817 133.44C90.2302 132.663 87.5129 133.616 86.2284 135.844C81.6497 143.785 77.6032 144.573 69.0313 135.272M117.636 126.781C117.623 81.259 46.6224 91.1652 55.8227 134.565C56.8168 138.3 57.8038 140.815 59.0688 141.944M69.0313 135.272C64.0578 141.857 61.1771 143.825 59.0688 141.944" stroke="#8A4520" stroke-width="1.88694"/>
<ellipse cx="68.4454" cy="117.938" rx="4.95321" ry="2.83041" fill="#FB9738"/>
<ellipse cx="79.1386" cy="110.21" rx="6.0495" ry="2.83041" transform="rotate(44.1326 79.1386 110.21)" fill="#F7543D"/>
<ellipse cx="90.6154" cy="105.192" rx="4.56681" ry="2.83041" transform="rotate(23.5335 90.6154 105.192)" fill="#FB9738"/>
<ellipse cx="87.3261" cy="119.539" rx="4.56681" ry="1.7452" transform="rotate(-44.1004 87.3261 119.539)" fill="#99CFD0"/>
<ellipse cx="76.15" cy="129.384" rx="4.56681" ry="2.60006" transform="rotate(37.4494 76.15 129.384)" fill="#F7543D"/>
<ellipse cx="63.0314" cy="128.044" rx="1.5882" ry="2.60006" transform="rotate(37.4494 63.0314 128.044)" fill="#FB9738"/>
<ellipse cx="101.649" cy="110.033" rx="2.40964" ry="2.71205" transform="rotate(35.9269 101.649 110.033)" fill="#99CFD0"/>
<ellipse cx="99.9897" cy="120.744" rx="1.71355" ry="4.36624" transform="rotate(35.9269 99.9897 120.744)" fill="#F7543D"/>
</g>
<defs>
<clipPath id="clip0_568_21069">
<rect width="236" height="270" rx="20" fill="white"/>
</clipPath>
</defs>
</svg>
