<svg width="236" height="270" viewBox="0 0 236 270" fill="none" xmlns="http://www.w3.org/2000/svg">
<g clip-path="url(#clip0_570_21374)">
<rect width="236" height="270" rx="20" fill="#F599A3"/>
<path d="M-1.27726 91.1541C26.9708 66.1261 77.7691 61.1033 122.525 86.1292C161.997 106.555 196.93 101.955 248.461 81.0177" stroke="#F0B1B8"/>
<path d="M-33.2801 139.596C1.25721 102.848 63.6227 95.9343 118.759 133.425C167.376 164.055 210.256 157.604 273.419 127.147" stroke="#F0B1B8"/>
<path d="M-62.5879 182.665C-25.5206 157.007 40.6722 150.875 98.6485 174.94C149.8 194.518 195.333 189.154 262.665 167.083" stroke="#F0B1B8"/>
<path d="M46 51.25C45 51.25 44.4062 50.625 44.4062 49.5781V30.4219C44.4062 29.0625 45.2656 28.2031 46.6562 28.2031C47.8438 28.2031 48.5469 28.7344 49.0781 30.0469L55.75 46.25H55.875L62.5312 30.0469C63.0625 28.75 63.7812 28.2031 65 28.2031C66.3594 28.2031 67.2188 29.0469 67.2188 30.4219V49.5781C67.2188 50.625 66.6094 51.25 65.625 51.25C64.625 51.25 64.0156 50.625 64.0156 49.5781V34.4062H63.9062L57.625 49.5469C57.25 50.4531 56.6875 50.8594 55.8125 50.8594C54.9375 50.8594 54.3594 50.4531 54 49.5781L47.7031 34.4062H47.5938V49.5781C47.5938 50.625 47 51.25 46 51.25ZM78.0312 51.3125C73.3281 51.3125 70.2344 48.0781 70.2344 42.7812C70.2344 37.5 73.3438 34.2656 78.0312 34.2656C82.7188 34.2656 85.8281 37.5 85.8281 42.7812C85.8281 48.0781 82.7344 51.3125 78.0312 51.3125ZM78.0312 48.5312C80.6875 48.5312 82.3906 46.4375 82.3906 42.7812C82.3906 39.1406 80.6719 37.0469 78.0312 37.0469C75.3906 37.0469 73.6719 39.1406 73.6719 42.7812C73.6719 46.4375 75.3906 48.5312 78.0312 48.5312ZM94.125 51.2969C90.5469 51.2969 88.3594 48.9688 88.3594 45.2031V36.0625C88.3594 34.9375 89.0469 34.2656 90.0469 34.2656C91.0312 34.2656 91.7344 34.9375 91.7344 36.0625V44.5469C91.7344 47.0469 92.9219 48.3906 95.25 48.3906C97.6875 48.3906 99.1562 46.7031 99.1562 44.1406V36.0625C99.1562 34.9375 99.8594 34.2656 100.844 34.2656C101.844 34.2656 102.531 34.9375 102.531 36.0625V49.5781C102.531 50.625 101.891 51.2969 100.922 51.2969C99.9531 51.2969 99.2969 50.625 99.2969 49.5938V48.2188H99.2188C98.3125 50.1875 96.6406 51.2969 94.125 51.2969ZM111.938 51.3125C108.703 51.3125 106.328 49.9844 105.547 47.9688C105.438 47.7188 105.406 47.4844 105.406 47.2656C105.406 46.4219 106.016 45.9219 106.859 45.9219C107.422 45.9219 107.906 46.1875 108.328 46.8125C109.172 48.1406 110.156 48.7344 112.109 48.7344C114.031 48.7344 115.328 47.9062 115.328 46.5469C115.328 45.4688 114.688 44.8906 112.922 44.4688L110.328 43.8594C107.141 43.1094 105.578 41.5469 105.578 39.2031C105.578 36.2344 108.156 34.2656 112.062 34.2656C115.031 34.2656 117.469 35.7812 117.938 37.7188C117.969 37.9062 118 38.0625 118 38.2188C118 38.9688 117.531 39.4688 116.688 39.4688C116.141 39.4688 115.656 39.2812 115.328 38.75C114.594 37.5 113.594 36.8438 111.938 36.8438C110.125 36.8438 108.875 37.7344 108.875 39.0156C108.875 40.0469 109.672 40.7656 111.406 41.1719L113.953 41.7656C117.406 42.5625 118.734 43.7969 118.734 46.2344C118.734 49.2812 116 51.3125 111.938 51.3125ZM127.406 51.3125C124.172 51.3125 121.797 49.9844 121.016 47.9688C120.906 47.7188 120.875 47.4844 120.875 47.2656C120.875 46.4219 121.484 45.9219 122.328 45.9219C122.891 45.9219 123.375 46.1875 123.797 46.8125C124.641 48.1406 125.625 48.7344 127.578 48.7344C129.5 48.7344 130.797 47.9062 130.797 46.5469C130.797 45.4688 130.156 44.8906 128.391 44.4688L125.797 43.8594C122.609 43.1094 121.047 41.5469 121.047 39.2031C121.047 36.2344 123.625 34.2656 127.531 34.2656C130.5 34.2656 132.938 35.7812 133.406 37.7188C133.438 37.9062 133.469 38.0625 133.469 38.2188C133.469 38.9688 133 39.4688 132.156 39.4688C131.609 39.4688 131.125 39.2812 130.797 38.75C130.062 37.5 129.062 36.8438 127.406 36.8438C125.594 36.8438 124.344 37.7344 124.344 39.0156C124.344 40.0469 125.141 40.7656 126.875 41.1719L129.422 41.7656C132.875 42.5625 134.203 43.7969 134.203 46.2344C134.203 49.2812 131.469 51.3125 127.406 51.3125ZM143.938 51.3125C138.984 51.3125 136.078 48.1719 136.078 42.8594C136.078 37.6406 139.047 34.2656 143.703 34.2656C148.078 34.2656 151.094 37.4219 151.094 41.9062C151.094 43 150.469 43.625 149.422 43.625H139.484V43.7031C139.484 46.7031 141.172 48.5781 143.859 48.5781C145.703 48.5781 146.859 47.9375 148.109 46.2344C148.469 45.8125 148.812 45.6406 149.297 45.6406C150.109 45.6406 150.703 46.1719 150.703 47.0156C150.703 47.2812 150.609 47.5938 150.469 47.9219C149.391 50.0781 147 51.3125 143.938 51.3125ZM139.5 41.2656H147.719C147.641 38.6875 146.031 36.9844 143.688 36.9844C141.359 36.9844 139.672 38.7031 139.5 41.2656ZM166.391 51.2812C162.234 51.2812 159.484 47.9688 159.484 42.7812C159.484 37.5938 162.234 34.2969 166.359 34.2969C168.719 34.2969 170.594 35.4844 171.516 37.2969H171.578V29.9375C171.578 28.8281 172.281 28.1562 173.281 28.1562C174.266 28.1562 174.969 28.8281 174.969 29.9375V49.6094C174.969 50.6719 174.281 51.2969 173.297 51.2969C172.344 51.2969 171.578 50.6719 171.578 49.6094V48.0781H171.531C170.688 50 168.953 51.2812 166.391 51.2812ZM167.281 48.4219C169.875 48.4219 171.609 46.2188 171.609 42.7812C171.609 39.375 169.875 37.1406 167.281 37.1406C164.609 37.1406 162.938 39.3281 162.938 42.7812C162.938 46.25 164.609 48.4219 167.281 48.4219ZM185.562 51.3125C180.609 51.3125 177.703 48.1719 177.703 42.8594C177.703 37.6406 180.672 34.2656 185.328 34.2656C189.703 34.2656 192.719 37.4219 192.719 41.9062C192.719 43 192.094 43.625 191.047 43.625H181.109V43.7031C181.109 46.7031 182.797 48.5781 185.484 48.5781C187.328 48.5781 188.484 47.9375 189.734 46.2344C190.094 45.8125 190.438 45.6406 190.922 45.6406C191.734 45.6406 192.328 46.1719 192.328 47.0156C192.328 47.2812 192.234 47.5938 192.094 47.9219C191.016 50.0781 188.625 51.3125 185.562 51.3125ZM181.125 41.2656H189.344C189.266 38.6875 187.656 36.9844 185.312 36.9844C182.984 36.9844 181.297 38.7031 181.125 41.2656ZM84.2969 83.2969C83.3125 83.2969 82.6094 82.625 82.6094 81.5156V61.9375C82.6094 60.8281 83.3125 60.1562 84.2969 60.1562C85.2812 60.1562 85.9844 60.8281 85.9844 61.9375V81.5156C85.9844 82.625 85.2812 83.2969 84.2969 83.2969ZM91.25 64.0781C90.1719 64.0781 89.2969 63.2031 89.2969 62.1406C89.2969 61.0625 90.1719 60.2188 91.25 60.2188C92.3438 60.2188 93.2188 61.0625 93.2188 62.1406C93.2188 63.2031 92.3438 64.0781 91.25 64.0781ZM91.25 83.2969C90.2344 83.2969 89.5625 82.5938 89.5625 81.5156V68.0625C89.5625 66.9688 90.2344 66.2656 91.25 66.2656C92.2656 66.2656 92.9375 66.9688 92.9375 68.0625V81.5156C92.9375 82.5938 92.2656 83.2969 91.25 83.2969ZM98.0781 83.2969C97.0625 83.2969 96.3906 82.5938 96.3906 81.5156V67.9844C96.3906 66.9219 97.0469 66.2656 98 66.2656C98.9375 66.2656 99.6094 66.9062 99.6094 67.9844V69.3281H99.6875C100.422 67.5 102.141 66.2812 104.359 66.2812C106.641 66.2812 108.297 67.4531 108.953 69.5H109.031C109.875 67.5 111.812 66.2812 114.156 66.2812C117.406 66.2812 119.531 68.4375 119.531 71.7031V81.5156C119.531 82.5938 118.844 83.2969 117.828 83.2969C116.812 83.2969 116.141 82.5938 116.141 81.5156V72.5156C116.141 70.3906 115 69.1719 113 69.1719C111 69.1719 109.609 70.6562 109.609 72.7344V81.5156C109.609 82.5938 108.969 83.2969 107.953 83.2969C106.938 83.2969 106.297 82.5938 106.297 81.5156V72.2656C106.297 70.375 105.094 69.1719 103.188 69.1719C101.188 69.1719 99.7656 70.7344 99.7656 72.8438V81.5156C99.7656 82.5938 99.0938 83.2969 98.0781 83.2969ZM125.359 64.375C124.734 64.375 124.344 63.9688 124.344 63.2969C124.344 61.2188 125.688 59.9062 127.469 59.9062C129.641 59.9062 130.375 62.1875 131.531 62.1875C132.094 62.1875 132.406 61.7656 132.578 60.7656C132.703 60.0312 132.984 59.6875 133.609 59.6875C134.219 59.6875 134.625 60.1094 134.625 60.7656C134.625 62.7812 133.266 64.1719 131.562 64.1719C129.469 64.1719 128.672 61.8906 127.5 61.8906C126.844 61.8906 126.531 62.2969 126.391 63.375C126.297 64.0312 125.969 64.375 125.359 64.375ZM127.609 83.2812C124.391 83.2812 122.125 81.2812 122.125 78.3281C122.125 75.4531 124.344 73.6875 128.234 73.4688L132.75 73.2031V71.9375C132.75 70.1094 131.516 69.0156 129.453 69.0156C127.828 69.0156 126.75 69.5938 125.812 71.0938C125.469 71.5938 125.031 71.8125 124.438 71.8125C123.594 71.8125 122.984 71.25 122.984 70.4062C122.984 70.0625 123.078 69.6875 123.281 69.3125C124.141 67.4531 126.625 66.2656 129.578 66.2656C133.562 66.2656 136.109 68.375 136.109 71.6719V81.5938C136.109 82.6562 135.438 83.2969 134.484 83.2969C133.547 83.2969 132.906 82.6875 132.875 81.6875V80.2969H132.797C131.844 82.125 129.75 83.2812 127.609 83.2812ZM128.531 80.6094C130.891 80.6094 132.75 78.9844 132.75 76.8438V75.5469L128.688 75.7969C126.672 75.9375 125.531 76.8281 125.531 78.2344C125.531 79.6719 126.734 80.6094 128.531 80.6094ZM146.453 83.3125C141.75 83.3125 138.656 80.0781 138.656 74.7812C138.656 69.5 141.766 66.2656 146.453 66.2656C151.141 66.2656 154.25 69.5 154.25 74.7812C154.25 80.0781 151.156 83.3125 146.453 83.3125ZM146.453 80.5312C149.109 80.5312 150.812 78.4375 150.812 74.7812C150.812 71.1406 149.094 69.0469 146.453 69.0469C143.812 69.0469 142.094 71.1406 142.094 74.7812C142.094 78.4375 143.812 80.5312 146.453 80.5312Z" fill="white"/>
<ellipse cx="118.5" cy="218" rx="65.5" ry="15" fill="white" fill-opacity="0.63"/>
<path d="M154.256 205.809C134.36 220.685 105.872 219.375 85.0512 205.809C70.4187 230.938 158.213 236.003 154.256 205.809Z" fill="#F6F6F6"/>
<path d="M58.4901 147.646C55.3712 174.186 67.4815 194.361 85.0512 205.809C105.872 219.375 134.36 220.685 154.256 205.809C167.473 195.927 176.899 178.901 177.767 153.581C169.809 179.73 55.9305 173.476 58.4901 147.646Z" fill="#FCFFEB"/>
<path d="M78.2867 128.511C64.9112 135.701 59.0375 142.121 58.4901 147.646M161.5 133C169.501 139.473 176.585 142.847 177.814 147.646M177.814 147.646C177.849 149.673 177.833 151.651 177.767 153.581M177.814 147.646C178.361 149.784 178.32 151.761 177.767 153.581M58.4901 147.646C55.3712 174.186 67.4815 194.361 85.0512 205.809M58.4901 147.646C55.9305 173.476 169.809 179.73 177.767 153.581M85.0512 205.809C105.872 219.375 134.36 220.685 154.256 205.809M85.0512 205.809C70.4187 230.938 158.213 236.003 154.256 205.809M154.256 205.809C167.473 195.927 176.899 178.901 177.767 153.581" stroke="#E3E3E3" stroke-width="3" stroke-linecap="round"/>
<path d="M73.9277 128.667C61.4338 134.349 61.0179 137.921 61.3259 148.635C61.3886 150.817 62.206 152.946 63.8912 154.334C89.296 175.252 174.06 171.139 175.052 153.462C175.063 153.256 175.091 153.041 175.146 152.842C179.368 137.466 172.165 133.78 146.949 125.43C146.674 125.339 146.406 125.188 146.185 125.003C131.572 112.753 124.426 115.511 112.095 118.827C111.448 119.001 110.759 118.867 110.193 118.51C100.853 112.63 90.8934 118.778 73.9277 128.667Z" fill="#FCFFEB"/>
<path d="M94.5821 128.667C93.6748 137.895 106.401 141.893 122.721 141.893M88.3914 138.516C90.2258 145.957 93.7788 149.161 107.526 152.023M141.293 152.023C148.408 149.645 150.937 147.465 152.549 141.893M73.9277 128.667C61.4338 134.349 61.0179 137.921 61.3259 148.635C61.3886 150.817 62.206 152.946 63.8912 154.334C89.296 175.252 174.06 171.139 175.052 153.462C175.063 153.256 175.091 153.041 175.146 152.842C179.368 137.466 172.165 133.78 146.949 125.43C146.674 125.339 146.406 125.188 146.185 125.003C131.572 112.753 124.426 115.511 112.095 118.827C111.448 119.001 110.759 118.867 110.193 118.51C100.853 112.63 90.8934 118.778 73.9277 128.667Z" stroke="#D1DAA0" stroke-width="2.25114" stroke-linecap="round"/>
<ellipse cx="95.8094" cy="181.906" rx="3.37671" ry="2.25114" transform="rotate(38.7924 95.8094 181.906)" fill="#D1DAA0"/>
<ellipse cx="83.6975" cy="190.144" rx="1.35266" ry="1.60769" transform="rotate(38.7924 83.6975 190.144)" fill="#D1DAA0"/>
<ellipse cx="130.971" cy="197.02" rx="1.35266" ry="1.60769" transform="rotate(38.7924 130.971 197.02)" fill="#D1DAA0"/>
<ellipse cx="118.589" cy="202.648" rx="1.35266" ry="1.60769" transform="rotate(-15.1394 118.589 202.648)" fill="#D1DAA0"/>
<path d="M130.911 127.386C120.687 121.745 129.957 112.538 147.424 106.814C148.772 106.373 150.17 107.326 150.225 108.744C151.081 131.154 135.914 135.835 130.911 127.386Z" fill="#79AE5E"/>
<path d="M130.911 127.386C120.687 121.745 129.957 112.538 147.424 106.814C148.772 106.373 150.17 107.326 150.225 108.744C151.081 131.154 135.914 135.835 130.911 127.386ZM130.911 127.386C134.813 125.569 136.57 124.196 137.665 120.07" stroke="#448327" stroke-linecap="round"/>
</g>
<defs>
<clipPath id="clip0_570_21374">
<rect width="236" height="270" rx="20" fill="white"/>
</clipPath>
</defs>
</svg>
