<svg width="440" height="440" viewBox="0 0 440 440" fill="none" xmlns="http://www.w3.org/2000/svg">
<g clip-path="url(#clip0_550_21249)">
<path d="M370.444 18.8488L244.167 158.605L268.72 181.351L405.401 46.9791C428.87 25.8785 403.939 -17.8374 370.444 18.8488Z" fill="#182435" stroke="#323232" stroke-width="2.80742"/>
<path d="M290.603 371.309C236.15 436.82 138.972 445.853 73.5508 391.474C8.12929 337.095 -0.752592 239.903 53.7009 174.393C108.154 108.882 205.331 99.8492 270.753 154.228C336.174 208.608 345.056 305.798 290.603 371.309Z" fill="#182435" stroke="#7F7F7F" stroke-width="5.11297"/>
<path d="M265.831 350.719C222.764 402.532 145.908 409.674 94.1697 366.668C42.4313 323.662 35.4045 246.796 78.4721 194.983C121.54 143.171 198.395 136.029 250.133 179.035C301.871 222.04 308.899 298.906 265.831 350.719Z" fill="#253243" stroke="#324053" stroke-width="1.27824"/>
<path d="M261.501 221.623C234.169 150.281 113.461 155.589 92.0007 205.5C57.3339 237.987 67.9399 323.11 98.0002 342.5C124.564 383.838 206.659 370.251 231.5 360C250.416 360.643 291.51 247.055 261.501 221.623Z" fill="#EFBE20" fill-opacity="0.2"/>
<path d="M418.981 67.5263L399.583 92.076L368.98 83.4116C366.06 82.585 363.674 80.4774 362.492 77.6823L349.205 46.2395L373.421 25.5862C376.097 23.3031 379.777 22.5947 383.11 23.7207L405.629 31.3279L419.835 56.3965C421.84 59.9349 421.502 64.3352 418.981 67.5263Z" fill="#FCD448"/>
<path d="M399.583 92.076L418.981 67.5263C421.502 64.3352 421.84 59.9349 419.835 56.3965L405.629 31.3279M399.583 92.076L380.698 57.4153M399.583 92.076L368.98 83.4116C366.06 82.585 363.674 80.4774 362.492 77.6823L349.205 46.2395M405.629 31.3279L380.698 57.4153M405.629 31.3279L383.11 23.7207C379.777 22.5947 376.097 23.3031 373.421 25.5862L349.205 46.2395M380.698 57.4153L349.205 46.2395" stroke="#EFBE20" stroke-width="3" stroke-linejoin="round"/>
</g>
<defs>
<clipPath id="clip0_550_21249">
<rect width="440" height="440" fill="white"/>
</clipPath>
</defs>
</svg>
