<svg width="1150" height="1510" viewBox="0 0 1150 1510" fill="none" xmlns="http://www.w3.org/2000/svg">
<g clip-path="url(#clip0_570_35485)">
<rect width="1150" height="1510" fill="#FCFCFC"/>
<path d="M237.429 514.617H232.91C231.756 514.617 230.842 513.644 230.914 512.492L232.526 486.702C232.553 486.257 232.423 485.803 232.172 485.434C184.899 415.765 237.327 348.601 258.393 343.097C258.666 343.025 258.928 343.026 259.203 343.089C288.65 349.841 307.215 446.147 244.023 489.099C243.566 489.41 243.243 489.899 243.152 490.444L239.402 512.946C239.241 513.91 238.407 514.617 237.429 514.617Z" fill="#749640" stroke="#5F7C39" stroke-width="2"/>
<path d="M238.623 478.864C241.187 470.28 243.346 462.555 245.178 455.421M256.5 366.24C255.439 381.806 253.942 403.44 252.925 415.103M245.178 455.421L229.089 431.192M245.178 455.421L271.993 432.98M245.178 455.421C249.833 431.192 249.261 434.172 252.925 415.103M245.178 455.421L252.925 415.103M252.925 415.103L236.24 389.48M252.925 415.103L271.993 384.117" stroke="#5F7C39" stroke-width="4" stroke-linecap="round"/>
<rect width="1154" height="1518" transform="translate(-2 -4)" fill="#F1F1F1"/>
<rect x="-2" y="-4" width="91.7954" height="90.6269" rx="8" fill="#C3D9DC"/>
<rect x="116.022" y="-4" width="91.7954" height="90.6269" rx="8" fill="#E4EBE3"/>
<rect x="234.046" y="-4" width="91.7954" height="90.6269" rx="8" fill="#C3D9DC"/>
<rect x="352.068" y="-4" width="91.7954" height="90.6269" rx="8" fill="#C3D9DC"/>
<rect x="470.091" y="-4" width="91.7954" height="90.6269" rx="8" fill="#759DC5" fill-opacity="0.13"/>
<rect x="588.114" y="-4" width="91.7954" height="90.6269" rx="8" fill="#E4EBE3"/>
<rect x="706.136" y="-4" width="91.7954" height="90.6269" rx="8" fill="#C3D9DC"/>
<rect x="824.159" y="-4" width="91.7954" height="90.6269" rx="8" fill="#C3D9DC"/>
<rect x="942.182" y="-4" width="91.7955" height="90.6269" rx="8" fill="#C3D9DC"/>
<rect x="1060.2" y="-4" width="91.7955" height="90.6269" rx="8" fill="#E4EBE3"/>
<rect x="824.159" y="97.9556" width="91.7954" height="90.6268" rx="8" fill="#C3D9DC"/>
<rect x="942.182" y="97.9556" width="91.7955" height="90.6268" rx="8" fill="#E4EBE3"/>
<rect x="1060.2" y="97.9556" width="91.7955" height="90.6268" rx="8" fill="#C3D9DC"/>
<rect x="942.182" y="199.911" width="91.7955" height="90.6269" rx="8" fill="#759DC5" fill-opacity="0.13"/>
<rect x="-2" y="97.9556" width="91.7954" height="90.6268" rx="8" fill="#E4EBE3"/>
<rect x="116.022" y="97.9556" width="91.7954" height="90.6268" rx="8" fill="#C3D9DC"/>
<rect x="1060.2" y="199.911" width="91.7955" height="90.6269" rx="8" fill="#E4EBE3"/>
<rect x="234.046" y="97.9556" width="91.7954" height="90.6268" rx="8" fill="#99DBF5" fill-opacity="0.09"/>
<rect x="352.068" y="97.9556" width="91.7954" height="90.6268" rx="8" fill="#C3D9DC"/>
<rect x="470.091" y="97.9556" width="91.7954" height="90.6268" rx="8" fill="#E4EBE3"/>
<rect x="588.114" y="97.9556" width="91.7954" height="90.6268" rx="8" fill="#C3D9DC"/>
<rect x="706.136" y="97.9556" width="91.7954" height="90.6268" rx="8" fill="#E4EBE3"/>
<rect x="588.114" y="199.911" width="91.7954" height="90.6269" rx="8" fill="#C3D9DC"/>
<rect x="706.136" y="199.911" width="91.7954" height="90.6269" rx="8" fill="#E4EBE3"/>
<rect x="824.159" y="199.911" width="91.7954" height="90.6269" rx="8" fill="#C3D9DC"/>
<rect x="-2" y="199.911" width="91.7954" height="90.6269" rx="8" fill="#99DBF5" fill-opacity="0.09"/>
<rect x="116.022" y="199.911" width="91.7954" height="90.6269" rx="8" fill="#C3D9DC"/>
<rect x="234.046" y="199.911" width="91.7954" height="90.6269" rx="8" fill="#E4EBE3"/>
<rect x="352.068" y="199.911" width="91.7954" height="90.6269" rx="8" fill="#C3D9DC"/>
<rect x="470.091" y="199.911" width="91.7954" height="90.6269" rx="8" fill="#E4EBE3"/>
<rect x="-2" y="-4" width="91.7954" height="90.6269" rx="8" fill="#C3D9DC"/>
<rect x="116.022" y="-4" width="91.7954" height="90.6269" rx="8" fill="#E4EBE3"/>
<rect x="234.046" y="-4" width="91.7954" height="90.6269" rx="8" fill="#C3D9DC"/>
<rect x="352.068" y="-4" width="91.7954" height="90.6269" rx="8" fill="#C3D9DC"/>
<rect x="470.091" y="-4" width="91.7954" height="90.6269" rx="8" fill="#759DC5" fill-opacity="0.13"/>
<rect x="588.114" y="-4" width="91.7954" height="90.6269" rx="8" fill="#E4EBE3"/>
<rect x="706.136" y="-4" width="91.7954" height="90.6269" rx="8" fill="#C3D9DC"/>
<rect x="824.159" y="-4" width="91.7954" height="90.6269" rx="8" fill="#C3D9DC"/>
<rect x="942.182" y="-4" width="91.7955" height="90.6269" rx="8" fill="#C3D9DC"/>
<rect x="1060.2" y="-4" width="91.7955" height="90.6269" rx="8" fill="#E4EBE3"/>
<rect x="824.159" y="97.9556" width="91.7954" height="90.6268" rx="8" fill="#C3D9DC"/>
<rect x="942.182" y="97.9556" width="91.7955" height="90.6268" rx="8" fill="#E4EBE3"/>
<rect x="1060.2" y="97.9556" width="91.7955" height="90.6268" rx="8" fill="#C3D9DC"/>
<rect x="942.182" y="199.911" width="91.7955" height="90.6269" rx="8" fill="#759DC5" fill-opacity="0.13"/>
<rect x="-2" y="97.9556" width="91.7954" height="90.6268" rx="8" fill="#E4EBE3"/>
<rect x="116.022" y="97.9556" width="91.7954" height="90.6268" rx="8" fill="#C3D9DC"/>
<rect x="1060.2" y="199.911" width="91.7955" height="90.6269" rx="8" fill="#E4EBE3"/>
<rect x="234.046" y="97.9556" width="91.7954" height="90.6268" rx="8" fill="#99DBF5" fill-opacity="0.09"/>
<rect x="352.068" y="97.9556" width="91.7954" height="90.6268" rx="8" fill="#C3D9DC"/>
<rect x="470.091" y="97.9556" width="91.7954" height="90.6268" rx="8" fill="#E4EBE3"/>
<rect x="588.114" y="97.9556" width="91.7954" height="90.6268" rx="8" fill="#C3D9DC"/>
<rect x="706.136" y="97.9556" width="91.7954" height="90.6268" rx="8" fill="#E4EBE3"/>
<rect x="-2" y="1219.46" width="91.7954" height="90.6268" rx="8" fill="#C3D9DC"/>
<rect x="116.022" y="1219.46" width="91.7954" height="90.6268" rx="8" fill="#E4EBE3"/>
<rect x="234.046" y="1219.46" width="91.7954" height="90.6268" rx="8" fill="#C3D9DC"/>
<rect x="352.068" y="1219.46" width="91.7954" height="90.6268" rx="8" fill="#C3D9DC"/>
<rect x="470.091" y="1219.46" width="91.7954" height="90.6268" rx="8" fill="#759DC5" fill-opacity="0.13"/>
<rect x="588.114" y="1219.46" width="91.7954" height="90.6268" rx="8" fill="#E4EBE3"/>
<rect x="706.136" y="1219.46" width="91.7954" height="90.6268" rx="8" fill="#C3D9DC"/>
<rect x="824.159" y="1219.46" width="91.7954" height="90.6268" rx="8" fill="#C3D9DC"/>
<rect x="942.182" y="1219.46" width="91.7955" height="90.6268" rx="8" fill="#C3D9DC"/>
<rect x="1060.2" y="1219.46" width="91.7955" height="90.6268" rx="8" fill="#E4EBE3"/>
<rect x="824.159" y="1321.42" width="91.7954" height="90.6268" rx="8" fill="#C3D9DC"/>
<rect x="942.182" y="1321.42" width="91.7955" height="90.6268" rx="8" fill="#E4EBE3"/>
<rect x="1060.2" y="1321.42" width="91.7955" height="90.6268" rx="8" fill="#C3D9DC"/>
<rect x="-2" y="1321.42" width="91.7954" height="90.6268" rx="8" fill="#E4EBE3"/>
<rect x="116.022" y="1321.42" width="91.7954" height="90.6268" rx="8" fill="#C3D9DC"/>
<rect x="234.046" y="1321.42" width="91.7954" height="90.6268" rx="8" fill="#99DBF5" fill-opacity="0.09"/>
<rect x="352.068" y="1321.42" width="91.7954" height="90.6268" rx="8" fill="#C3D9DC"/>
<rect x="470.091" y="1321.42" width="91.7954" height="90.6268" rx="8" fill="#E4EBE3"/>
<rect x="588.114" y="1321.42" width="91.7954" height="90.6268" rx="8" fill="#C3D9DC"/>
<rect x="706.136" y="1321.42" width="91.7954" height="90.6268" rx="8" fill="#E4EBE3"/>
<rect x="-2" y="1219.46" width="91.7954" height="90.6268" rx="8" fill="#C3D9DC"/>
<rect x="116.022" y="1219.46" width="91.7954" height="90.6268" rx="8" fill="#E4EBE3"/>
<rect x="234.046" y="1219.46" width="91.7954" height="90.6268" rx="8" fill="#C3D9DC"/>
<rect x="352.068" y="1219.46" width="91.7954" height="90.6268" rx="8" fill="#C3D9DC"/>
<rect x="470.091" y="1219.46" width="91.7954" height="90.6268" rx="8" fill="#759DC5" fill-opacity="0.13"/>
<rect x="588.114" y="1219.46" width="91.7954" height="90.6268" rx="8" fill="#E4EBE3"/>
<rect x="706.136" y="1219.46" width="91.7954" height="90.6268" rx="8" fill="#C3D9DC"/>
<rect x="824.159" y="1219.46" width="91.7954" height="90.6268" rx="8" fill="#C3D9DC"/>
<rect x="942.182" y="1219.46" width="91.7955" height="90.6268" rx="8" fill="#C3D9DC"/>
<rect x="1060.2" y="1219.46" width="91.7955" height="90.6268" rx="8" fill="#E4EBE3"/>
<rect x="824.159" y="1321.42" width="91.7954" height="90.6268" rx="8" fill="#C3D9DC"/>
<rect x="942.182" y="1321.42" width="91.7955" height="90.6268" rx="8" fill="#E4EBE3"/>
<rect x="1060.2" y="1321.42" width="91.7955" height="90.6268" rx="8" fill="#C3D9DC"/>
<rect x="-2" y="1321.42" width="91.7954" height="90.6268" rx="8" fill="#E4EBE3"/>
<rect x="116.022" y="1321.42" width="91.7954" height="90.6268" rx="8" fill="#C3D9DC"/>
<rect x="234.046" y="1321.42" width="91.7954" height="90.6268" rx="8" fill="#99DBF5" fill-opacity="0.09"/>
<rect x="352.068" y="1321.42" width="91.7954" height="90.6268" rx="8" fill="#C3D9DC"/>
<rect x="470.091" y="1321.42" width="91.7954" height="90.6268" rx="8" fill="#E4EBE3"/>
<rect x="588.114" y="1321.42" width="91.7954" height="90.6268" rx="8" fill="#C3D9DC"/>
<rect x="706.136" y="1321.42" width="91.7954" height="90.6268" rx="8" fill="#E4EBE3"/>
<rect x="588.114" y="199.911" width="91.7954" height="90.6269" rx="8" fill="#C3D9DC"/>
<rect x="706.136" y="199.911" width="91.7954" height="90.6269" rx="8" fill="#E4EBE3"/>
<rect x="824.159" y="199.911" width="91.7954" height="90.6269" rx="8" fill="#C3D9DC"/>
<rect x="-2" y="199.911" width="91.7954" height="90.6269" rx="8" fill="#99DBF5" fill-opacity="0.09"/>
<rect x="116.022" y="199.911" width="91.7954" height="90.6269" rx="8" fill="#C3D9DC"/>
<rect x="234.046" y="199.911" width="91.7954" height="90.6269" rx="8" fill="#E4EBE3"/>
<rect x="352.068" y="199.911" width="91.7954" height="90.6269" rx="8" fill="#C3D9DC"/>
<rect x="-2" y="301.866" width="91.7954" height="90.6269" rx="8" fill="#E4EBE3"/>
<rect x="116.022" y="301.866" width="91.7954" height="90.6269" rx="8" fill="#C3D9DC"/>
<rect x="234.046" y="301.866" width="91.7954" height="90.6269" rx="8" fill="#C3D9DC"/>
<rect x="352.068" y="301.866" width="91.7954" height="90.6269" rx="8" fill="#C3D9DC"/>
<rect x="470.091" y="301.866" width="91.7954" height="90.6269" rx="8" fill="#E4EBE3"/>
<rect x="588.114" y="301.866" width="91.7954" height="90.6269" rx="8" fill="#C3D9DC"/>
<rect x="706.136" y="301.866" width="91.7954" height="90.6269" rx="8" fill="#99DBF5" fill-opacity="0.09"/>
<rect x="824.159" y="301.866" width="91.7954" height="90.6269" rx="8" fill="#C3D9DC"/>
<rect x="942.182" y="301.866" width="91.7955" height="90.6269" rx="8" fill="#E4EBE3"/>
<rect x="1060.2" y="301.866" width="91.7955" height="90.6269" rx="8" fill="#C3D9DC"/>
<rect x="234.046" y="403.82" width="91.7954" height="90.6268" rx="8" fill="#C3D9DC"/>
<rect x="352.068" y="403.82" width="91.7954" height="90.6268" rx="8" fill="#E4EBE3"/>
<rect x="470.091" y="403.82" width="91.7954" height="90.6268" rx="8" fill="#C3D9DC"/>
<rect x="588.114" y="403.82" width="91.7954" height="90.6268" rx="8" fill="#C3D9DC"/>
<rect x="706.136" y="403.82" width="91.7954" height="90.6268" rx="8" fill="#759DC5" fill-opacity="0.13"/>
<rect x="352.068" y="505.776" width="91.7954" height="90.6269" rx="8" fill="#759DC5" fill-opacity="0.13"/>
<rect x="824.159" y="403.82" width="91.7954" height="90.6268" rx="8" fill="#E4EBE3"/>
<rect x="942.182" y="403.82" width="91.7955" height="90.6268" rx="8" fill="#C3D9DC"/>
<rect x="1060.2" y="403.82" width="91.7955" height="90.6268" rx="8" fill="#C3D9DC"/>
<rect x="470.091" y="505.776" width="91.7954" height="90.6269" rx="8" fill="#E4EBE3"/>
<rect x="588.114" y="505.776" width="91.7954" height="90.6269" rx="8" fill="#C3D9DC"/>
<rect x="-2" y="403.82" width="91.7954" height="90.6268" rx="8" fill="#C3D9DC"/>
<rect x="116.022" y="403.82" width="91.7954" height="90.6268" rx="8" fill="#E4EBE3"/>
<rect x="-2" y="505.776" width="91.7954" height="90.6269" rx="8" fill="#C3D9DC"/>
<rect x="116.022" y="505.776" width="91.7954" height="90.6269" rx="8" fill="#E4EBE3"/>
<rect x="234.046" y="505.776" width="91.7954" height="90.6269" rx="8" fill="#C3D9DC"/>
<rect x="706.136" y="505.776" width="91.7954" height="90.6269" rx="8" fill="#99DBF5" fill-opacity="0.09"/>
<rect x="824.159" y="505.776" width="91.7954" height="90.6269" rx="8" fill="#C3D9DC"/>
<rect x="942.182" y="505.776" width="91.7955" height="90.6269" rx="8" fill="#E4EBE3"/>
<rect x="1060.2" y="505.776" width="91.7955" height="90.6269" rx="8" fill="#C3D9DC"/>
<rect x="-2" y="301.866" width="91.7954" height="90.6269" rx="8" fill="#E4EBE3"/>
<rect x="116.022" y="301.866" width="91.7954" height="90.6269" rx="8" fill="#C3D9DC"/>
<rect x="234.046" y="301.866" width="91.7954" height="90.6269" rx="8" fill="#C3D9DC"/>
<rect x="352.068" y="301.866" width="91.7954" height="90.6269" rx="8" fill="#C3D9DC"/>
<rect x="470.091" y="301.866" width="91.7954" height="90.6269" rx="8" fill="#E4EBE3"/>
<rect x="588.114" y="301.866" width="91.7954" height="90.6269" rx="8" fill="#C3D9DC"/>
<rect x="706.136" y="301.866" width="91.7954" height="90.6269" rx="8" fill="#99DBF5" fill-opacity="0.09"/>
<rect x="824.159" y="301.866" width="91.7954" height="90.6269" rx="8" fill="#C3D9DC"/>
<rect x="942.182" y="301.866" width="91.7955" height="90.6269" rx="8" fill="#E4EBE3"/>
<rect x="1060.2" y="301.866" width="91.7955" height="90.6269" rx="8" fill="#C3D9DC"/>
<rect x="234.046" y="403.82" width="91.7954" height="90.6268" rx="8" fill="#C3D9DC"/>
<rect x="352.068" y="403.82" width="91.7954" height="90.6268" rx="8" fill="#E4EBE3"/>
<rect x="470.091" y="403.82" width="91.7954" height="90.6268" rx="8" fill="#C3D9DC"/>
<rect x="588.114" y="403.82" width="91.7954" height="90.6268" rx="8" fill="#C3D9DC"/>
<rect x="706.136" y="403.82" width="91.7954" height="90.6268" rx="8" fill="#759DC5" fill-opacity="0.13"/>
<rect x="352.068" y="505.776" width="91.7954" height="90.6269" rx="8" fill="#759DC5" fill-opacity="0.13"/>
<rect x="824.159" y="403.82" width="91.7954" height="90.6268" rx="8" fill="#E4EBE3"/>
<rect x="942.182" y="403.82" width="91.7955" height="90.6268" rx="8" fill="#C3D9DC"/>
<rect x="1060.2" y="403.82" width="91.7955" height="90.6268" rx="8" fill="#C3D9DC"/>
<rect x="470.091" y="505.776" width="91.7954" height="90.6269" rx="8" fill="#E4EBE3"/>
<rect x="588.114" y="505.776" width="91.7954" height="90.6269" rx="8" fill="#C3D9DC"/>
<rect x="-2" y="403.82" width="91.7954" height="90.6268" rx="8" fill="#C3D9DC"/>
<rect x="116.022" y="403.82" width="91.7954" height="90.6268" rx="8" fill="#E4EBE3"/>
<rect x="-2" y="505.776" width="91.7954" height="90.6269" rx="8" fill="#C3D9DC"/>
<rect x="116.022" y="505.776" width="91.7954" height="90.6269" rx="8" fill="#E4EBE3"/>
<rect x="234.046" y="505.776" width="91.7954" height="90.6269" rx="8" fill="#C3D9DC"/>
<rect x="706.136" y="505.776" width="91.7954" height="90.6269" rx="8" fill="#99DBF5" fill-opacity="0.09"/>
<rect x="824.159" y="505.776" width="91.7954" height="90.6269" rx="8" fill="#C3D9DC"/>
<rect x="942.182" y="505.776" width="91.7955" height="90.6269" rx="8" fill="#E4EBE3"/>
<rect x="1060.2" y="505.776" width="91.7955" height="90.6269" rx="8" fill="#C3D9DC"/>
<rect x="470.091" y="199.911" width="91.7954" height="90.6269" rx="8" fill="#E4EBE3"/>
<rect x="-2" y="607.731" width="91.7954" height="90.6268" rx="8" fill="#C3D9DC"/>
<rect x="116.022" y="607.731" width="91.7954" height="90.6268" rx="8" fill="#E4EBE3"/>
<rect x="234.046" y="607.731" width="91.7954" height="90.6268" rx="8" fill="#C3D9DC"/>
<rect x="352.068" y="607.731" width="91.7954" height="90.6268" rx="8" fill="#C3D9DC"/>
<rect x="470.091" y="607.731" width="91.7954" height="90.6268" rx="8" fill="#759DC5" fill-opacity="0.13"/>
<rect x="588.114" y="607.731" width="91.7954" height="90.6268" rx="8" fill="#E4EBE3"/>
<rect x="706.136" y="607.731" width="91.7954" height="90.6268" rx="8" fill="#C3D9DC"/>
<rect x="824.159" y="607.731" width="91.7954" height="90.6268" rx="8" fill="#C3D9DC"/>
<rect x="942.182" y="607.731" width="91.7955" height="90.6268" rx="8" fill="#C3D9DC"/>
<rect x="1060.2" y="607.731" width="91.7955" height="90.6268" rx="8" fill="#E4EBE3"/>
<rect x="824.159" y="709.687" width="91.7954" height="90.6269" rx="8" fill="#C3D9DC"/>
<rect x="942.182" y="709.687" width="91.7955" height="90.6269" rx="8" fill="#E4EBE3"/>
<rect x="1060.2" y="709.687" width="91.7955" height="90.6269" rx="8" fill="#C3D9DC"/>
<rect x="942.182" y="811.642" width="91.7955" height="90.6268" rx="8" fill="#759DC5" fill-opacity="0.13"/>
<rect x="-2" y="709.687" width="91.7954" height="90.6269" rx="8" fill="#E4EBE3"/>
<rect x="116.022" y="709.687" width="91.7954" height="90.6269" rx="8" fill="#C3D9DC"/>
<rect x="1060.2" y="811.642" width="91.7955" height="90.6268" rx="8" fill="#E4EBE3"/>
<rect x="234.046" y="709.687" width="91.7954" height="90.6269" rx="8" fill="#99DBF5" fill-opacity="0.09"/>
<rect x="352.068" y="709.687" width="91.7954" height="90.6269" rx="8" fill="#C3D9DC"/>
<rect x="470.091" y="709.687" width="91.7954" height="90.6269" rx="8" fill="#E4EBE3"/>
<rect x="588.114" y="709.687" width="91.7954" height="90.6269" rx="8" fill="#C3D9DC"/>
<rect x="706.136" y="709.687" width="91.7954" height="90.6269" rx="8" fill="#E4EBE3"/>
<rect x="588.114" y="811.642" width="91.7954" height="90.6268" rx="8" fill="#C3D9DC"/>
<rect x="706.136" y="811.642" width="91.7954" height="90.6268" rx="8" fill="#E4EBE3"/>
<rect x="824.159" y="811.642" width="91.7954" height="90.6268" rx="8" fill="#C3D9DC"/>
<rect x="-2" y="811.642" width="91.7954" height="90.6268" rx="8" fill="#99DBF5" fill-opacity="0.09"/>
<rect x="116.022" y="811.642" width="91.7954" height="90.6268" rx="8" fill="#C3D9DC"/>
<rect x="234.046" y="811.642" width="91.7954" height="90.6268" rx="8" fill="#E4EBE3"/>
<rect x="352.068" y="811.642" width="91.7954" height="90.6268" rx="8" fill="#C3D9DC"/>
<rect x="470.091" y="811.642" width="91.7954" height="90.6268" rx="8" fill="#E4EBE3"/>
<rect x="-2" y="607.731" width="91.7954" height="90.6268" rx="8" fill="#C3D9DC"/>
<rect x="116.022" y="607.731" width="91.7954" height="90.6268" rx="8" fill="#E4EBE3"/>
<rect x="234.046" y="607.731" width="91.7954" height="90.6268" rx="8" fill="#C3D9DC"/>
<rect x="352.068" y="607.731" width="91.7954" height="90.6268" rx="8" fill="#C3D9DC"/>
<rect x="470.091" y="607.731" width="91.7954" height="90.6268" rx="8" fill="#759DC5" fill-opacity="0.13"/>
<rect x="588.114" y="607.731" width="91.7954" height="90.6268" rx="8" fill="#E4EBE3"/>
<rect x="706.136" y="607.731" width="91.7954" height="90.6268" rx="8" fill="#C3D9DC"/>
<rect x="824.159" y="607.731" width="91.7954" height="90.6268" rx="8" fill="#C3D9DC"/>
<rect x="942.182" y="607.731" width="91.7955" height="90.6268" rx="8" fill="#C3D9DC"/>
<rect x="1060.2" y="607.731" width="91.7955" height="90.6268" rx="8" fill="#E4EBE3"/>
<rect x="824.159" y="709.687" width="91.7954" height="90.6269" rx="8" fill="#C3D9DC"/>
<rect x="942.182" y="709.687" width="91.7955" height="90.6269" rx="8" fill="#E4EBE3"/>
<rect x="1060.2" y="709.687" width="91.7955" height="90.6269" rx="8" fill="#C3D9DC"/>
<rect x="942.182" y="811.642" width="91.7955" height="90.6268" rx="8" fill="#759DC5" fill-opacity="0.13"/>
<rect x="-2" y="709.687" width="91.7954" height="90.6269" rx="8" fill="#E4EBE3"/>
<rect x="116.022" y="709.687" width="91.7954" height="90.6269" rx="8" fill="#C3D9DC"/>
<rect x="1060.2" y="811.642" width="91.7955" height="90.6268" rx="8" fill="#E4EBE3"/>
<rect x="234.046" y="709.687" width="91.7954" height="90.6269" rx="8" fill="#99DBF5" fill-opacity="0.09"/>
<rect x="352.068" y="709.687" width="91.7954" height="90.6269" rx="8" fill="#C3D9DC"/>
<rect x="470.091" y="709.687" width="91.7954" height="90.6269" rx="8" fill="#E4EBE3"/>
<rect x="588.114" y="709.687" width="91.7954" height="90.6269" rx="8" fill="#C3D9DC"/>
<rect x="706.136" y="709.687" width="91.7954" height="90.6269" rx="8" fill="#E4EBE3"/>
<rect x="588.114" y="811.642" width="91.7954" height="90.6268" rx="8" fill="#C3D9DC"/>
<rect x="706.136" y="811.642" width="91.7954" height="90.6268" rx="8" fill="#E4EBE3"/>
<rect x="824.159" y="811.642" width="91.7954" height="90.6268" rx="8" fill="#C3D9DC"/>
<rect x="-2" y="811.642" width="91.7954" height="90.6268" rx="8" fill="#99DBF5" fill-opacity="0.09"/>
<rect x="116.022" y="811.642" width="91.7954" height="90.6268" rx="8" fill="#C3D9DC"/>
<rect x="234.046" y="811.642" width="91.7954" height="90.6268" rx="8" fill="#E4EBE3"/>
<rect x="352.068" y="811.642" width="91.7954" height="90.6268" rx="8" fill="#C3D9DC"/>
<rect x="-2" y="913.597" width="91.7954" height="90.6268" rx="8" fill="#E4EBE3"/>
<rect x="116.022" y="913.597" width="91.7954" height="90.6268" rx="8" fill="#C3D9DC"/>
<rect x="234.046" y="913.597" width="91.7954" height="90.6268" rx="8" fill="#C3D9DC"/>
<rect x="352.068" y="913.597" width="91.7954" height="90.6268" rx="8" fill="#C3D9DC"/>
<rect x="470.091" y="913.597" width="91.7954" height="90.6268" rx="8" fill="#E4EBE3"/>
<rect x="588.114" y="913.597" width="91.7954" height="90.6268" rx="8" fill="#C3D9DC"/>
<rect x="706.136" y="913.597" width="91.7954" height="90.6268" rx="8" fill="#99DBF5" fill-opacity="0.09"/>
<rect x="824.159" y="913.597" width="91.7954" height="90.6268" rx="8" fill="#C3D9DC"/>
<rect x="942.182" y="913.597" width="91.7955" height="90.6268" rx="8" fill="#E4EBE3"/>
<rect x="1060.2" y="913.597" width="91.7955" height="90.6268" rx="8" fill="#C3D9DC"/>
<rect x="234.046" y="1015.55" width="91.7954" height="90.6269" rx="8" fill="#C3D9DC"/>
<rect x="352.068" y="1015.55" width="91.7954" height="90.6269" rx="8" fill="#E4EBE3"/>
<rect x="470.091" y="1015.55" width="91.7954" height="90.6269" rx="8" fill="#C3D9DC"/>
<rect x="588.114" y="1015.55" width="91.7954" height="90.6269" rx="8" fill="#C3D9DC"/>
<rect x="706.136" y="1015.55" width="91.7954" height="90.6269" rx="8" fill="#759DC5" fill-opacity="0.13"/>
<rect x="352.068" y="1117.51" width="91.7954" height="90.627" rx="8" fill="#759DC5" fill-opacity="0.13"/>
<rect x="824.159" y="1015.55" width="91.7954" height="90.6269" rx="8" fill="#E4EBE3"/>
<rect x="942.182" y="1015.55" width="91.7955" height="90.6269" rx="8" fill="#C3D9DC"/>
<rect x="1060.2" y="1015.55" width="91.7955" height="90.6269" rx="8" fill="#C3D9DC"/>
<rect x="470.091" y="1117.51" width="91.7954" height="90.627" rx="8" fill="#E4EBE3"/>
<rect x="588.114" y="1117.51" width="91.7954" height="90.627" rx="8" fill="#C3D9DC"/>
<rect x="-2" y="1015.55" width="91.7954" height="90.6269" rx="8" fill="#C3D9DC"/>
<rect x="116.022" y="1015.55" width="91.7954" height="90.6269" rx="8" fill="#E4EBE3"/>
<rect x="-2" y="1117.51" width="91.7954" height="90.627" rx="8" fill="#C3D9DC"/>
<rect x="116.022" y="1117.51" width="91.7954" height="90.627" rx="8" fill="#E4EBE3"/>
<rect x="234.046" y="1117.51" width="91.7954" height="90.627" rx="8" fill="#C3D9DC"/>
<rect x="706.136" y="1117.51" width="91.7954" height="90.627" rx="8" fill="#99DBF5" fill-opacity="0.09"/>
<rect x="824.159" y="1117.51" width="91.7954" height="90.627" rx="8" fill="#C3D9DC"/>
<rect x="942.182" y="1117.51" width="91.7955" height="90.627" rx="8" fill="#E4EBE3"/>
<rect x="1060.2" y="1117.51" width="91.7955" height="90.627" rx="8" fill="#C3D9DC"/>
<rect x="-2" y="913.597" width="91.7954" height="90.6268" rx="8" fill="#E4EBE3"/>
<rect x="116.022" y="913.597" width="91.7954" height="90.6268" rx="8" fill="#C3D9DC"/>
<rect x="234.046" y="913.597" width="91.7954" height="90.6268" rx="8" fill="#C3D9DC"/>
<rect x="352.068" y="913.597" width="91.7954" height="90.6268" rx="8" fill="#C3D9DC"/>
<rect x="470.091" y="913.597" width="91.7954" height="90.6268" rx="8" fill="#E4EBE3"/>
<rect x="588.114" y="913.597" width="91.7954" height="90.6268" rx="8" fill="#C3D9DC"/>
<rect x="706.136" y="913.597" width="91.7954" height="90.6268" rx="8" fill="#99DBF5" fill-opacity="0.09"/>
<rect x="824.159" y="913.597" width="91.7954" height="90.6268" rx="8" fill="#C3D9DC"/>
<rect x="942.182" y="913.597" width="91.7955" height="90.6268" rx="8" fill="#E4EBE3"/>
<rect x="1060.2" y="913.597" width="91.7955" height="90.6268" rx="8" fill="#C3D9DC"/>
<rect x="234.046" y="1015.55" width="91.7954" height="90.6269" rx="8" fill="#C3D9DC"/>
<rect x="352.068" y="1015.55" width="91.7954" height="90.6269" rx="8" fill="#E4EBE3"/>
<rect x="470.091" y="1015.55" width="91.7954" height="90.6269" rx="8" fill="#C3D9DC"/>
<rect x="588.114" y="1015.55" width="91.7954" height="90.6269" rx="8" fill="#C3D9DC"/>
<rect x="706.136" y="1015.55" width="91.7954" height="90.6269" rx="8" fill="#759DC5" fill-opacity="0.13"/>
<rect x="352.068" y="1117.51" width="91.7954" height="90.627" rx="8" fill="#759DC5" fill-opacity="0.13"/>
<rect x="824.159" y="1015.55" width="91.7954" height="90.6269" rx="8" fill="#E4EBE3"/>
<rect x="942.182" y="1015.55" width="91.7955" height="90.6269" rx="8" fill="#C3D9DC"/>
<rect x="1060.2" y="1015.55" width="91.7955" height="90.6269" rx="8" fill="#C3D9DC"/>
<rect x="470.091" y="1117.51" width="91.7954" height="90.627" rx="8" fill="#E4EBE3"/>
<rect x="588.114" y="1117.51" width="91.7954" height="90.627" rx="8" fill="#C3D9DC"/>
<rect x="-2" y="1015.55" width="91.7954" height="90.6269" rx="8" fill="#C3D9DC"/>
<rect x="116.022" y="1015.55" width="91.7954" height="90.6269" rx="8" fill="#E4EBE3"/>
<rect x="-2" y="1117.51" width="91.7954" height="90.627" rx="8" fill="#C3D9DC"/>
<rect x="116.022" y="1117.51" width="91.7954" height="90.627" rx="8" fill="#E4EBE3"/>
<rect x="234.046" y="1117.51" width="91.7954" height="90.627" rx="8" fill="#C3D9DC"/>
<rect x="706.136" y="1117.51" width="91.7954" height="90.627" rx="8" fill="#99DBF5" fill-opacity="0.09"/>
<rect x="824.159" y="1117.51" width="91.7954" height="90.627" rx="8" fill="#C3D9DC"/>
<rect x="942.182" y="1117.51" width="91.7955" height="90.627" rx="8" fill="#E4EBE3"/>
<rect x="1060.2" y="1117.51" width="91.7955" height="90.627" rx="8" fill="#C3D9DC"/>
<rect x="470.091" y="811.642" width="91.7954" height="90.6268" rx="8" fill="#E4EBE3"/>
<rect x="-2" y="1423.37" width="91.7954" height="90.627" rx="8" fill="#E4EBE3"/>
<rect x="116.022" y="1423.37" width="91.7954" height="90.627" rx="8" fill="#C3D9DC"/>
<rect x="234.046" y="1423.37" width="91.7954" height="90.627" rx="8" fill="#C3D9DC"/>
<rect x="352.068" y="1423.37" width="91.7954" height="90.627" rx="8" fill="#C3D9DC"/>
<rect x="470.091" y="1423.37" width="91.7954" height="90.627" rx="8" fill="#E4EBE3"/>
<rect x="588.114" y="1423.37" width="91.7954" height="90.627" rx="8" fill="#C3D9DC"/>
<rect x="706.136" y="1423.37" width="91.7954" height="90.627" rx="8" fill="#99DBF5" fill-opacity="0.09"/>
<rect x="824.159" y="1423.37" width="91.7954" height="90.627" rx="8" fill="#C3D9DC"/>
<rect x="942.182" y="1423.37" width="91.7955" height="90.627" rx="8" fill="#E4EBE3"/>
<rect x="1060.2" y="1423.37" width="91.7955" height="90.627" rx="8" fill="#C3D9DC"/>
<rect x="-2" y="1423.37" width="91.7954" height="90.627" rx="8" fill="#E4EBE3"/>
<rect x="116.022" y="1423.37" width="91.7954" height="90.627" rx="8" fill="#C3D9DC"/>
<rect x="234.046" y="1423.37" width="91.7954" height="90.627" rx="8" fill="#C3D9DC"/>
<rect x="352.068" y="1423.37" width="91.7954" height="90.627" rx="8" fill="#C3D9DC"/>
<rect x="470.091" y="1423.37" width="91.7954" height="90.627" rx="8" fill="#E4EBE3"/>
<rect x="588.114" y="1423.37" width="91.7954" height="90.627" rx="8" fill="#C3D9DC"/>
<rect x="706.136" y="1423.37" width="91.7954" height="90.627" rx="8" fill="#99DBF5" fill-opacity="0.09"/>
<rect x="824.159" y="1423.37" width="91.7954" height="90.627" rx="8" fill="#C3D9DC"/>
<rect x="942.182" y="1423.37" width="91.7955" height="90.627" rx="8" fill="#E4EBE3"/>
<rect x="1060.2" y="1423.37" width="91.7955" height="90.627" rx="8" fill="#C3D9DC"/>
<path d="M922.372 615.571C968.872 629.218 976.406 638.331 1046.58 579.677C972.485 613.947 972.871 587.036 922.372 615.571Z" fill="#8DBA51"/>
<path d="M1046.58 579.677C1026 563.012 989.251 543.627 922.372 615.571C972.871 587.036 972.485 613.947 1046.58 579.677Z" fill="#70A223"/>
<path d="M922.372 615.571C968.872 629.218 976.406 638.331 1046.58 579.677M922.372 615.571C989.251 543.627 1026 563.012 1046.58 579.677M922.372 615.571C972.871 587.036 972.485 613.947 1046.58 579.677M922.372 615.571L910.98 619.765" stroke="#8DBA51" stroke-width="1.59729"/>
<path d="M709.133 298.06C756.648 288.532 767.555 293.099 802.431 208.548C752.75 273.331 740.584 249.324 709.133 298.06Z" fill="#8DBA51"/>
<path d="M802.431 208.548C776.459 203.359 734.912 203.276 709.133 298.06C740.584 249.324 752.75 273.331 802.431 208.548Z" fill="#70A223"/>
<path d="M709.133 298.06C756.648 288.532 767.555 293.099 802.431 208.548M709.133 298.06C734.912 203.276 776.459 203.359 802.431 208.548M709.133 298.06C740.584 249.324 752.75 273.331 802.431 208.548M709.133 298.06L700.996 307.069" stroke="#8DBA51" stroke-width="1.59729"/>
<path d="M281.405 860.08C233.19 864.964 222.777 859.362 179.88 940.139C235.599 880.47 245.383 905.543 281.405 860.08Z" fill="#8DBA51"/>
<path d="M179.88 940.139C205.227 947.818 246.571 951.924 281.405 860.08C245.383 905.543 235.599 880.47 179.88 940.139Z" fill="#70A223"/>
<path d="M281.405 860.08C233.19 864.964 222.777 859.362 179.88 940.139M281.405 860.08C246.571 951.924 205.227 947.818 179.88 940.139M281.405 860.08C245.383 905.543 235.599 880.47 179.88 940.139M281.405 860.08L290.376 851.901" stroke="#8DBA51" stroke-width="1.59729"/>
<path d="M231.061 446.222C195.508 413.29 192.822 401.775 103.864 423.029C185.471 425.353 173.138 449.275 231.061 446.222Z" fill="#8DBA51"/>
<path d="M103.864 423.029C114.87 447.119 139.136 480.843 231.061 446.222C173.138 449.275 185.471 425.353 103.864 423.029Z" fill="#70A223"/>
<path d="M231.061 446.222C195.508 413.29 192.822 401.775 103.864 423.029M231.061 446.222C139.136 480.843 114.87 447.119 103.864 423.029M231.061 446.222C173.138 449.275 185.471 425.353 103.864 423.029M231.061 446.222L243.128 447.542" stroke="#8DBA51" stroke-width="1.59729"/>
<rect x="653.056" y="-35.5953" width="523.874" height="216.21" rx="14.2515" transform="rotate(11.6999 653.056 -35.5953)" fill="#F1E3C7" stroke="#A89672" stroke-width="7.12573"/>
<rect x="667.733" y="-3.76509" width="477.009" height="167.133" rx="17.369" transform="rotate(11.6999 667.733 -3.76509)" fill="#DFC798" stroke="#D7B36C" stroke-width="0.890717"/>
<path d="M670.796 45.479C690.853 117.718 785.239 90.3689 755.891 20.3207C712.042 -68.1249 652.766 -39.2013 670.796 45.479Z" fill="#D39556" stroke="#AF6F33" stroke-width="2"/>
<path d="M655.913 121.595C675.97 193.834 770.355 166.485 741.008 96.4369C697.159 7.99135 637.883 36.9149 655.913 121.595Z" fill="#D39556" stroke="#AF6F33" stroke-width="2"/>
<path d="M743.775 60.8574C763.832 133.096 858.217 105.747 828.87 35.6991C785.021 -52.7464 725.745 -23.8229 743.775 60.8574Z" fill="#D39556" stroke="#AF6F33" stroke-width="2"/>
<path d="M727.729 136.164C747.786 208.403 842.172 181.054 812.825 111.006C768.975 22.5602 709.699 51.4838 727.729 136.164Z" fill="#D39556" stroke="#AF6F33" stroke-width="2"/>
<path d="M811.296 74.1616C831.353 146.4 925.738 119.052 896.391 49.0033C852.542 -39.4422 793.266 -10.5187 811.296 74.1616Z" fill="#D39556" stroke="#AF6F33" stroke-width="2"/>
<path d="M795.427 150.457C815.483 222.695 909.869 195.346 880.522 125.298C836.673 36.8527 777.397 65.7763 795.427 150.457Z" fill="#D39556" stroke="#AF6F33" stroke-width="2"/>
<path d="M883.29 89.7178C903.347 161.957 997.733 134.608 968.386 64.5595C924.536 -23.8861 865.26 5.03749 883.29 89.7178Z" fill="#D39556" stroke="#AF6F33" stroke-width="2"/>
<path d="M867.245 165.024C887.302 237.263 981.687 209.914 952.34 139.866C908.491 51.4206 849.215 80.3441 867.245 165.024Z" fill="#D39556" stroke="#AF6F33" stroke-width="2"/>
<path d="M954.123 104.464C974.18 176.703 1068.57 149.354 1039.22 79.306C995.369 -9.13951 936.093 19.7841 954.123 104.464Z" fill="#D39556" stroke="#AF6F33" stroke-width="2"/>
<path d="M938.077 179.771C958.134 252.01 1052.52 224.661 1023.17 154.613C979.323 66.1671 920.047 95.0907 938.077 179.771Z" fill="#D39556" stroke="#AF6F33" stroke-width="2"/>
<path d="M1025.94 119.033C1046 191.271 1140.38 163.923 1111.04 93.8744C1067.19 5.42885 1007.91 34.3524 1025.94 119.033Z" fill="#D39556" stroke="#AF6F33" stroke-width="2"/>
<path d="M1010.07 195.327C1030.13 267.566 1124.51 240.217 1095.17 170.169C1051.32 81.7233 992.042 110.647 1010.07 195.327Z" fill="#D39556" stroke="#AF6F33" stroke-width="2"/>
<path d="M1288.23 1174.48L990.546 1329.13L1017.36 1382.37L1329.06 1243.18C1381.36 1222.57 1366.95 1134.11 1288.23 1174.48Z" fill="#182435" stroke="#323232" stroke-width="5"/>
<path d="M879.189 1661.03C754.402 1707.87 615.318 1644.83 568.542 1520.21C521.766 1395.59 585.019 1256.61 709.805 1209.77C834.592 1162.93 973.676 1225.97 1020.45 1350.58C1067.23 1475.2 1003.97 1614.19 879.189 1661.03Z" fill="#182435" stroke="#7F7F7F" stroke-width="8"/>
<path d="M861.477 1613.84C762.782 1650.89 652.785 1601.03 615.792 1502.47C578.8 1403.92 628.822 1294 727.516 1256.95C826.211 1219.91 936.209 1269.77 973.201 1368.32C1010.19 1466.87 960.171 1576.79 861.477 1613.84Z" fill="#253243" stroke="#324053" stroke-width="2"/>
<circle cx="221.693" cy="-11.7235" r="155.378" transform="rotate(-20.0193 221.693 -11.7235)" fill="#1F210C" stroke="#DECDAD" stroke-width="31.9457"/>
<path d="M137.769 25.7775C82.9409 -24.1623 23.1899 -11.6993 -44.0389 26.8296C36.975 34.3473 78.7802 35.7021 137.769 25.7775Z" fill="#8DBA51"/>
<path d="M-44.0389 26.8296C-21.4972 71.2601 60.4768 84.872 137.769 25.7775C78.7802 35.7021 36.975 34.3473 -44.0389 26.8296Z" fill="#70A223"/>
<path d="M152.476 37.1693C111.746 63.4288 99.9247 63.1706 98.4178 154.619C120.938 76.147 141.047 94.0355 152.476 37.1693Z" fill="#8DBA51"/>
<path d="M98.4178 154.619C124.487 149.941 163.181 134.812 152.476 37.1693C141.047 94.0355 120.938 76.147 98.4178 154.619Z" fill="#70A223"/>
<path d="M167.864 30.5338C188.062 92.6398 225.981 76.5176 247.972 81.3278C213.541 43.0146 211.731 68.4815 167.864 30.5338Z" fill="#8DBA51"/>
<path d="M247.972 81.3278C256.737 56.3348 216.178 27.4027 167.864 30.5338C211.731 68.4815 213.541 43.0146 247.972 81.3278Z" fill="#70A223"/>
<path d="M156.513 16.7641C169.831 -25.621 142.838 -44.7403 132.551 -56.0845C136.51 -21.2662 147.181 -21.5757 156.513 16.7641Z" fill="#8DBA51"/>
<path d="M132.551 -56.0845C117.831 -45.6943 128.506 -0.567897 156.513 16.7641C147.181 -21.5757 136.51 -21.2662 132.551 -56.0845Z" fill="#70A223"/>
<path d="M137.769 25.7775C82.9409 -24.1623 23.1899 -11.6993 -44.0389 26.8296M137.769 25.7775C60.4768 84.872 -21.4972 71.2601 -44.0389 26.8296M137.769 25.7775C78.7802 35.7021 36.975 34.3473 -44.0389 26.8296M137.769 25.7775L157.215 25.8292M152.476 37.1693C111.746 63.4288 99.9247 63.1706 98.4178 154.619M152.476 37.1693C163.181 134.812 124.487 149.941 98.4178 154.619M152.476 37.1693C141.047 94.0355 120.938 76.147 98.4178 154.619M152.476 37.1693L156.752 25.8073M167.864 30.5338C188.062 92.6398 225.981 76.5176 247.972 81.3278M167.864 30.5338C216.178 27.4027 256.737 56.3348 247.972 81.3278M167.864 30.5338C211.731 68.4815 213.541 43.0146 247.972 81.3278M167.864 30.5338L156.522 25.7944M156.513 16.7641C169.831 -25.621 142.838 -44.7403 132.551 -56.0845M156.513 16.7641C128.506 -0.567897 117.831 -45.6943 132.551 -56.0845M156.513 16.7641C147.181 -21.5757 136.51 -21.2662 132.551 -56.0845M156.513 16.7641L156.753 25.806" stroke="#8DBA51" stroke-width="1.59729"/>
<path d="M191.315 -80.8905C216.983 -126.714 206.198 -164.331 186.49 -181.27C183.095 -142.404 183.573 -120.47 191.315 -80.8905Z" fill="#8DBA51"/>
<path d="M186.49 -181.27C160.367 -144.99 162.105 -100.273 191.315 -80.8905C183.573 -120.47 183.095 -142.404 186.49 -181.27Z" fill="#70A223"/>
<path d="M60.4194 -129.429C87.0063 -75.3724 130.345 -55.7224 179.231 -73.5341C130.372 -91.7804 105.303 -105.397 60.4194 -129.429Z" fill="#70A223"/>
<path d="M179.231 -73.5341C143.375 -132.089 105.941 -139.957 60.4194 -129.429C105.303 -105.397 130.372 -91.7804 179.231 -73.5341Z" fill="#8DBA51"/>
<path d="M184.059 -60.2805C133.235 -49.7532 121.511 -30.8945 111.717 11.3625C133.379 -1.16828 148.78 -15.7858 184.059 -60.2805Z" fill="#8DBA51"/>
<path d="M184.059 -60.2805C181.662 -9.21328 155.339 3.42464 111.717 11.3625C133.379 -1.16828 148.78 -15.7858 184.059 -60.2805Z" fill="#70A223"/>
<path d="M195.477 -62.7178C193.249 -36.8594 199.496 -17.9127 215.268 -8.40005C210.802 -30.4819 205.573 -42.1346 195.477 -62.7178Z" fill="#8DBA51"/>
<path d="M195.477 -62.7178C209.909 -57.6926 225.447 -31.7981 215.268 -8.40005C210.802 -30.4819 205.573 -42.1346 195.477 -62.7178Z" fill="#70A223"/>
<path d="M191.856 -69.274L191.315 -80.8905M191.856 -69.274L179.231 -73.5341M191.856 -69.274L184.059 -60.2805M191.856 -69.274L195.477 -62.7178M191.315 -80.8905C216.983 -126.714 206.198 -164.331 186.49 -181.27M191.315 -80.8905C162.105 -100.273 160.367 -144.99 186.49 -181.27M191.315 -80.8905C183.573 -120.47 183.095 -142.404 186.49 -181.27M179.231 -73.5341C143.375 -132.089 105.941 -139.957 60.4194 -129.429M179.231 -73.5341C130.345 -55.7224 87.0063 -75.3724 60.4194 -129.429M179.231 -73.5341C130.372 -91.7804 105.303 -105.397 60.4194 -129.429M184.059 -60.2805C133.235 -49.7532 121.511 -30.8945 111.717 11.3625M184.059 -60.2805C181.662 -9.21328 155.339 3.42464 111.717 11.3625M184.059 -60.2805C148.78 -15.7858 133.379 -1.16828 111.717 11.3625M195.477 -62.7178C193.249 -36.8594 199.496 -17.9127 215.268 -8.40005M195.477 -62.7178C209.909 -57.6926 225.447 -31.7981 215.268 -8.40005M195.477 -62.7178C205.573 -42.1346 210.802 -30.4819 215.268 -8.40005" stroke="#8DBA51" stroke-width="1.59729"/>
<path d="M201.963 101.643C132.025 76.9692 81.8306 111.697 34.8884 173.346C112.444 148.752 151.483 133.736 201.963 101.643Z" fill="#8DBA51"/>
<path d="M34.8884 173.346C72.9402 205.506 153.752 186.153 201.963 101.643C151.483 133.736 112.444 148.752 34.8884 173.346Z" fill="#70A223"/>
<path d="M219.943 106.415C192.639 146.452 181.648 150.814 215.839 235.644C206.055 154.592 231.539 163.248 219.943 106.415Z" fill="#8DBA51"/>
<path d="M215.839 235.644C238.034 221.192 267.793 192.201 219.943 106.415C231.539 163.248 206.055 154.592 215.839 235.644Z" fill="#70A223"/>
<path d="M231.537 94.316C274.307 143.671 302.966 114.066 325.096 109.941C278.471 88.0425 286.712 112.207 231.537 94.316Z" fill="#8DBA51"/>
<path d="M325.096 109.941C323.446 83.5076 274.826 72.6348 231.537 94.316C286.712 112.207 278.471 88.0425 325.096 109.941Z" fill="#70A223"/>
<path d="M215.724 86.0473C211.502 41.8201 179.198 34.7089 165.307 28.2608C182.5 58.7958 192.211 54.3589 215.724 86.0473Z" fill="#8DBA51"/>
<path d="M165.307 28.2608C155.789 43.5594 183.18 80.9773 215.724 86.0473C192.211 54.3589 182.5 58.7958 165.307 28.2608Z" fill="#70A223"/>
<path d="M201.963 101.643C132.025 76.9692 81.8306 111.697 34.8884 173.346M201.963 101.643C153.752 186.153 72.9402 205.506 34.8884 173.346M201.963 101.643C151.483 133.736 112.444 148.752 34.8884 173.346M201.963 101.643L219.897 94.125M219.943 106.415C192.639 146.452 181.648 150.814 215.839 235.644M219.943 106.415C267.793 192.201 238.034 221.192 215.839 235.644M219.943 106.415C231.539 163.248 206.055 154.592 215.839 235.644M219.943 106.415L219.462 94.2853M231.537 94.316C274.307 143.671 302.966 114.066 325.096 109.941M231.537 94.316C274.826 72.6348 323.446 83.5076 325.096 109.941M231.537 94.316C286.712 112.207 278.471 88.0425 325.096 109.941M231.537 94.316L219.246 94.3625M215.724 86.0473C211.502 41.8201 179.198 34.7089 165.307 28.2608M215.724 86.0473C183.18 80.9773 155.789 43.5594 165.307 28.2608M215.724 86.0473C192.211 54.3589 182.5 58.7958 165.307 28.2608M215.724 86.0473L219.463 94.2833" stroke="#8DBA51" stroke-width="1.59729"/>
<path d="M195.02 50.8621C237.065 52.6141 284.266 29.6654 289.432 -18.9773C254.707 10.7535 234.244 26.2841 195.02 50.8621Z" fill="#70A223"/>
<path d="M289.432 -18.9773C234.295 -12.9177 204.262 12.0546 195.02 50.8621C234.244 26.2841 254.707 10.7535 289.432 -18.9773Z" fill="#8DBA51"/>
<path d="M289.534 -33.5705C285.045 -79.7491 253.947 -119.85 204.731 -111.621C239.466 -81.9004 259.196 -68.5309 289.534 -33.5705Z" fill="#70A223"/>
<path d="M204.731 -111.621C219.229 -58.08 249.765 -36.7114 289.534 -33.5705C259.196 -68.5309 239.466 -81.9004 204.731 -111.621Z" fill="#8DBA51"/>
<path d="M393.399 131.955C405.917 95.0469 371.64 -10.3144 308.124 -9.87022C342.859 19.8505 363.062 96.9951 393.399 131.955Z" fill="#70A223"/>
<path d="M308.124 -9.87022C300.989 43.1268 336.357 128.383 393.399 131.955C363.062 96.9951 342.859 19.8505 308.124 -9.87022Z" fill="#8DBA51"/>
<path d="M480.811 -11.136C448.637 -44.2302 345.988 -73.5381 315.263 -25.8208C360.484 -32.5176 434.523 -11.1954 480.811 -11.136Z" fill="#70A223"/>
<path d="M315.263 -25.8208C359.21 7.67048 448.762 23.3079 480.811 -11.136C434.523 -11.1954 360.484 -32.5176 315.263 -25.8208Z" fill="#8DBA51"/>
<path d="M391.162 -160.597C332.528 -149.078 285.853 -84.9828 305.889 -40.6799C334.637 -76.2238 357.055 -129.303 391.162 -160.597Z" fill="#70A223"/>
<path d="M305.889 -40.6799C368.633 -54.3281 403.379 -127.357 391.162 -160.597C357.055 -129.303 334.637 -76.2238 305.889 -40.6799Z" fill="#8DBA51"/>
<path d="M298.154 -26.7867L289.012 -18.7796M298.154 -26.7867L289.18 -33.8538M298.154 -26.7867L306.245 -41.056M298.154 -26.7867L308.359 -9.58527M298.154 -26.7867L315.955 -25.8891M289.432 -18.9773C234.295 -12.9177 204.262 12.0546 195.02 50.8621M289.432 -18.9773C284.266 29.6654 237.065 52.6141 195.02 50.8621M289.432 -18.9773C254.707 10.7535 234.244 26.2841 195.02 50.8621M204.731 -111.621C219.229 -58.08 249.765 -36.7114 289.534 -33.5705M204.731 -111.621C253.947 -119.85 285.045 -79.7491 289.534 -33.5705M204.731 -111.621C239.466 -81.9004 259.196 -68.5309 289.534 -33.5705M308.124 -9.87022C300.989 43.1268 336.357 128.383 393.399 131.955M308.124 -9.87022C371.64 -10.3144 405.917 95.0469 393.399 131.955M308.124 -9.87022C342.859 19.8505 363.062 96.9951 393.399 131.955M315.263 -25.8208C359.21 7.67048 448.762 23.3079 480.811 -11.136M315.263 -25.8208C345.988 -73.5381 448.637 -44.2302 480.811 -11.136M315.263 -25.8208C360.484 -32.5176 434.523 -11.1954 480.811 -11.136M305.889 -40.6799C368.633 -54.3281 403.379 -127.357 391.162 -160.597M305.889 -40.6799C285.853 -84.9828 332.528 -149.078 391.162 -160.597M305.889 -40.6799C334.637 -76.2238 357.055 -129.303 391.162 -160.597" stroke="#8DBA51" stroke-width="1.59729"/>
</g>
<defs>
<clipPath id="clip0_570_35485">
<rect width="1150" height="1510" fill="white"/>
</clipPath>
</defs>
</svg>
