<svg width="440" height="440" viewBox="0 0 440 440" fill="none" xmlns="http://www.w3.org/2000/svg">
<g clip-path="url(#clip0_550_21231)">
<path d="M370.444 18.8488L244.167 158.605L268.72 181.351L405.401 46.9791C428.87 25.8785 403.939 -17.8374 370.444 18.8488Z" fill="#182435" stroke="#323232" stroke-width="2.80742"/>
<path d="M290.603 371.309C236.15 436.82 138.972 445.853 73.5508 391.474C8.12929 337.095 -0.752592 239.903 53.7009 174.393C108.154 108.882 205.331 99.8492 270.753 154.228C336.174 208.608 345.056 305.798 290.603 371.309Z" fill="#182435" stroke="#7F7F7F" stroke-width="5.11297"/>
<path d="M265.831 350.719C222.764 402.532 145.908 409.674 94.1697 366.668C42.4313 323.662 35.4045 246.796 78.4721 194.983C121.54 143.171 198.395 136.029 250.133 179.035C301.871 222.04 308.899 298.906 265.831 350.719Z" fill="#253243" stroke="#324053" stroke-width="1.27824"/>
<path d="M261.501 221.623C234.169 150.281 113.461 155.589 92.0007 205.5C57.3339 237.987 67.9399 323.11 98.0002 342.5C124.564 383.838 206.659 370.251 231.5 360C250.416 360.643 291.51 247.055 261.501 221.623Z" fill="#EFBE20" fill-opacity="0.2"/>
<path d="M289.981 242.526L270.583 267.076L239.98 258.412C237.06 257.585 234.674 255.477 233.492 252.682L220.205 221.24L244.421 200.586C247.097 198.303 250.777 197.595 254.11 198.721L276.629 206.328L290.835 231.397C292.84 234.935 292.502 239.335 289.981 242.526Z" fill="#FCD448"/>
<path d="M270.583 267.076L289.981 242.526C292.502 239.335 292.84 234.935 290.835 231.397L276.629 206.328M270.583 267.076L251.698 232.415M270.583 267.076L239.98 258.412C237.06 257.585 234.674 255.477 233.492 252.682L220.205 221.24M276.629 206.328L251.698 232.415M276.629 206.328L254.11 198.721C250.777 197.595 247.097 198.303 244.421 200.586L220.205 221.24M251.698 232.415L220.205 221.24" stroke="#EFBE20" stroke-width="3" stroke-linejoin="round"/>
</g>
<defs>
<clipPath id="clip0_550_21231">
<rect width="440" height="440" fill="white"/>
</clipPath>
</defs>
</svg>
