<svg width="236" height="270" viewBox="0 0 236 270" fill="none" xmlns="http://www.w3.org/2000/svg">
<g clip-path="url(#clip0_570_21542)">
<rect width="236" height="270" rx="20" fill="#FFDC5F"/>
<path d="M-1.27726 91.1541C26.9708 66.1261 77.7691 61.1033 122.525 86.1292C161.997 106.555 196.93 101.955 248.461 81.0177" stroke="#F9F5B9"/>
<path d="M-33.2801 139.596C1.25721 102.848 63.6227 95.9343 118.759 133.425C167.376 164.055 210.256 157.604 273.419 127.147" stroke="#F9F5B9"/>
<path d="M-62.5879 182.665C-25.5206 157.007 40.6722 150.875 98.6485 174.94C149.8 194.518 195.333 189.154 262.665 167.083" stroke="#F9F5B9"/>
<path d="M70.5156 51.25C69.4219 51.25 68.7656 50.5625 68.7656 49.4375V30.2656C68.7656 29.1406 69.4219 28.4531 70.5156 28.4531H77.2188C81.5938 28.4531 84.6406 31.4688 84.6406 35.8594C84.6406 40.2656 81.5312 43.2969 77.1094 43.2969H72.2656V49.4375C72.2656 50.5625 71.5938 51.25 70.5156 51.25ZM72.2656 40.3594H76.2812C79.3281 40.3594 81.0625 38.7188 81.0625 35.875C81.0625 33.0312 79.3281 31.4062 76.2969 31.4062H72.2656V40.3594ZM90.7969 51.2812C87.5781 51.2812 85.3125 49.2812 85.3125 46.3281C85.3125 43.4531 87.5312 41.6875 91.4219 41.4688L95.9375 41.2031V39.9375C95.9375 38.1094 94.7031 37.0156 92.6406 37.0156C91.0156 37.0156 89.9375 37.5938 89 39.0938C88.6562 39.5938 88.2188 39.8125 87.625 39.8125C86.7812 39.8125 86.1719 39.25 86.1719 38.4062C86.1719 38.0625 86.2656 37.6875 86.4688 37.3125C87.3281 35.4531 89.8125 34.2656 92.7656 34.2656C96.75 34.2656 99.2969 36.375 99.2969 39.6719V49.5938C99.2969 50.6562 98.625 51.2969 97.6719 51.2969C96.7344 51.2969 96.0938 50.6875 96.0625 49.6875V48.2969H95.9844C95.0312 50.125 92.9375 51.2812 90.7969 51.2812ZM91.7188 48.6094C94.0781 48.6094 95.9375 46.9844 95.9375 44.8438V43.5469L91.875 43.7969C89.8594 43.9375 88.7188 44.8281 88.7188 46.2344C88.7188 47.6719 89.9219 48.6094 91.7188 48.6094ZM103.562 47.0625V37.2344H102.375C101.5 37.2344 100.969 36.7344 100.969 35.9062C100.969 35.0625 101.5 34.5625 102.375 34.5625H103.562V32.125C103.562 31.0469 104.234 30.3281 105.266 30.3281C106.281 30.3281 106.953 31.0469 106.953 32.125V34.5625H108.875C109.75 34.5625 110.281 35.0781 110.281 35.9062C110.281 36.7344 109.75 37.2344 108.875 37.2344H106.953V46.3125C106.953 47.625 107.406 48.2188 108.625 48.3125L108.891 48.3281C109.859 48.4219 110.344 48.8125 110.344 49.6094C110.344 50.625 109.562 51.1406 107.906 51.1406H107.734C104.969 51.1406 103.562 49.7812 103.562 47.0625ZM115.844 32.6406C115.219 32.6406 114.75 32.1719 114.75 31.625C114.75 31.2969 114.859 31.0781 115.109 30.7969L117.672 27.9219C118.172 27.3281 118.625 27.1094 119.359 27.1094C120.031 27.1094 120.5 27.3281 121 27.9219L123.562 30.7969C123.797 31.0781 123.922 31.2969 123.922 31.625C123.922 32.1719 123.453 32.6406 122.828 32.6406C122.375 32.6406 122.109 32.4844 121.734 32.0312L119.375 29.3125H119.281L116.938 32.0312C116.547 32.4844 116.281 32.6406 115.844 32.6406ZM119.578 51.3125C114.625 51.3125 111.719 48.1719 111.719 42.8594C111.719 37.6406 114.688 34.2656 119.344 34.2656C123.719 34.2656 126.734 37.4219 126.734 41.9062C126.734 43 126.109 43.625 125.062 43.625H115.125V43.7031C115.125 46.7031 116.812 48.5781 119.5 48.5781C121.344 48.5781 122.5 47.9375 123.75 46.2344C124.109 45.8125 124.453 45.6406 124.938 45.6406C125.75 45.6406 126.344 46.1719 126.344 47.0156C126.344 47.2812 126.25 47.5938 126.109 47.9219C125.031 50.0781 122.641 51.3125 119.578 51.3125ZM115.141 41.2656H123.359C123.281 38.6875 121.672 36.9844 119.328 36.9844C117 36.9844 115.312 38.7031 115.141 41.2656ZM142.031 51.2812C137.875 51.2812 135.125 47.9688 135.125 42.7812C135.125 37.5938 137.875 34.2969 142 34.2969C144.359 34.2969 146.234 35.4844 147.156 37.2969H147.219V29.9375C147.219 28.8281 147.922 28.1562 148.922 28.1562C149.906 28.1562 150.609 28.8281 150.609 29.9375V49.6094C150.609 50.6719 149.922 51.2969 148.938 51.2969C147.984 51.2969 147.219 50.6719 147.219 49.6094V48.0781H147.172C146.328 50 144.594 51.2812 142.031 51.2812ZM142.922 48.4219C145.516 48.4219 147.25 46.2188 147.25 42.7812C147.25 39.375 145.516 37.1406 142.922 37.1406C140.25 37.1406 138.578 39.3281 138.578 42.7812C138.578 46.25 140.25 48.4219 142.922 48.4219ZM161.203 51.3125C156.25 51.3125 153.344 48.1719 153.344 42.8594C153.344 37.6406 156.312 34.2656 160.969 34.2656C165.344 34.2656 168.359 37.4219 168.359 41.9062C168.359 43 167.734 43.625 166.688 43.625H156.75V43.7031C156.75 46.7031 158.438 48.5781 161.125 48.5781C162.969 48.5781 164.125 47.9375 165.375 46.2344C165.734 45.8125 166.078 45.6406 166.562 45.6406C167.375 45.6406 167.969 46.1719 167.969 47.0156C167.969 47.2812 167.875 47.5938 167.734 47.9219C166.656 50.0781 164.266 51.3125 161.203 51.3125ZM156.766 41.2656H164.984C164.906 38.6875 163.297 36.9844 160.953 36.9844C158.625 36.9844 156.938 38.7031 156.766 41.2656ZM89.125 83.2812C85.9062 83.2812 83.6406 81.2812 83.6406 78.3281C83.6406 75.4531 85.8594 73.6875 89.75 73.4688L94.2656 73.2031V71.9375C94.2656 70.1094 93.0312 69.0156 90.9688 69.0156C89.3438 69.0156 88.2656 69.5938 87.3281 71.0938C86.9844 71.5938 86.5469 71.8125 85.9531 71.8125C85.1094 71.8125 84.5 71.25 84.5 70.4062C84.5 70.0625 84.5938 69.6875 84.7969 69.3125C85.6562 67.4531 88.1406 66.2656 91.0938 66.2656C95.0781 66.2656 97.625 68.375 97.625 71.6719V81.5938C97.625 82.6562 96.9531 83.2969 96 83.2969C95.0625 83.2969 94.4219 82.6875 94.3906 81.6875V80.2969H94.3125C93.3594 82.125 91.2656 83.2812 89.125 83.2812ZM90.0469 80.6094C92.4062 80.6094 94.2656 78.9844 94.2656 76.8438V75.5469L90.2031 75.7969C88.1875 75.9375 87.0469 76.8281 87.0469 78.2344C87.0469 79.6719 88.25 80.6094 90.0469 80.6094ZM101.891 79.0625V69.2344H100.703C99.8281 69.2344 99.2969 68.7344 99.2969 67.9062C99.2969 67.0625 99.8281 66.5625 100.703 66.5625H101.891V64.125C101.891 63.0469 102.562 62.3281 103.594 62.3281C104.609 62.3281 105.281 63.0469 105.281 64.125V66.5625H107.203C108.078 66.5625 108.609 67.0781 108.609 67.9062C108.609 68.7344 108.078 69.2344 107.203 69.2344H105.281V78.3125C105.281 79.625 105.734 80.2188 106.953 80.3125L107.219 80.3281C108.188 80.4219 108.672 80.8125 108.672 81.6094C108.672 82.625 107.891 83.1406 106.234 83.1406H106.062C103.297 83.1406 101.891 81.7812 101.891 79.0625ZM116.875 83.2969C113.297 83.2969 111.109 80.9688 111.109 77.2031V68.0625C111.109 66.9375 111.797 66.2656 112.797 66.2656C113.781 66.2656 114.484 66.9375 114.484 68.0625V76.5469C114.484 79.0469 115.672 80.3906 118 80.3906C120.438 80.3906 121.906 78.7031 121.906 76.1406V68.0625C121.906 66.9375 122.609 66.2656 123.594 66.2656C124.594 66.2656 125.281 66.9375 125.281 68.0625V81.5781C125.281 82.625 124.641 83.2969 123.672 83.2969C122.703 83.2969 122.047 82.625 122.047 81.5938V80.2188H121.969C121.062 82.1875 119.391 83.2969 116.875 83.2969ZM130.312 83.2969C129.297 83.2969 128.625 82.5938 128.625 81.5156V67.9844C128.625 66.9219 129.281 66.2656 130.234 66.2656C131.172 66.2656 131.844 66.9062 131.844 67.9844V69.3281H131.922C132.656 67.5 134.375 66.2812 136.594 66.2812C138.875 66.2812 140.531 67.4531 141.188 69.5H141.266C142.109 67.5 144.047 66.2812 146.391 66.2812C149.641 66.2812 151.766 68.4375 151.766 71.7031V81.5156C151.766 82.5938 151.078 83.2969 150.062 83.2969C149.047 83.2969 148.375 82.5938 148.375 81.5156V72.5156C148.375 70.3906 147.234 69.1719 145.234 69.1719C143.234 69.1719 141.844 70.6562 141.844 72.7344V81.5156C141.844 82.5938 141.203 83.2969 140.188 83.2969C139.172 83.2969 138.531 82.5938 138.531 81.5156V72.2656C138.531 70.375 137.328 69.1719 135.422 69.1719C133.422 69.1719 132 70.7344 132 72.8438V81.5156C132 82.5938 131.328 83.2969 130.312 83.2969Z" fill="white"/>
<ellipse cx="117.5" cy="216" rx="78.5" ry="18" fill="white" fill-opacity="0.57"/>
<path d="M118.592 200.972C101.727 213.582 77.5793 212.471 59.9302 200.972C47.5268 222.273 121.947 226.566 118.592 200.972Z" fill="#F6F6F6"/>
<path d="M37.4154 151.669C34.7717 174.166 45.0371 191.268 59.9302 200.972C77.5793 212.471 101.727 213.582 118.592 200.972C129.796 192.595 137.786 178.163 138.522 156.7C131.777 178.865 35.2458 173.564 37.4154 151.669Z" fill="white"/>
<path d="M54.1962 135.449C42.8584 141.544 37.8795 146.986 37.4154 151.669M127.185 137.357C133.968 142.844 137.52 147.601 138.562 151.669M138.562 151.669C138.592 153.387 138.578 155.064 138.522 156.7M138.562 151.669C139.026 153.481 138.991 155.157 138.522 156.7M37.4154 151.669C34.7717 174.166 45.0371 191.268 59.9302 200.972M37.4154 151.669C35.2458 173.564 131.777 178.865 138.522 156.7M59.9302 200.972C77.5793 212.471 101.727 213.582 118.592 200.972M59.9302 200.972C47.5268 222.273 121.947 226.566 118.592 200.972M118.592 200.972C129.796 192.595 137.786 178.163 138.522 156.7" stroke="#E3E3E3" stroke-width="3" stroke-linecap="round"/>
<path d="M50.4988 134.734C40.1122 139.457 39.5731 142.461 39.8024 151.141C39.86 153.324 40.672 155.455 42.3853 156.808C64.3644 174.161 135.231 170.653 136.215 155.799C136.228 155.593 136.256 155.378 136.31 155.179C139.859 142.198 133.757 139.065 112.46 132.011C112.186 131.92 111.918 131.77 111.697 131.584C99.4057 121.301 93.3498 123.563 83.0052 126.351C82.3585 126.525 81.6719 126.388 81.1012 126.038C73.2238 121.201 64.7964 126.399 50.4988 134.734Z" fill="#EBA59C"/>
<path d="M68.0067 134.734C67.2377 142.556 78.0248 145.944 91.8593 145.944M62.7592 143.082C64.3141 149.39 67.3258 152.105 78.9789 154.531M107.602 154.531C113.633 152.516 115.777 150.668 117.143 145.944M50.4988 134.734C40.1122 139.457 39.5731 142.461 39.8024 151.141C39.86 153.324 40.672 155.455 42.3853 156.808C64.3644 174.161 135.231 170.653 136.215 155.799C136.228 155.593 136.256 155.378 136.31 155.179C139.859 142.198 133.757 139.065 112.46 132.011C112.186 131.92 111.918 131.77 111.697 131.584C99.4057 121.301 93.3498 123.563 83.0052 126.351C82.3585 126.525 81.6719 126.388 81.1012 126.038C73.2238 121.201 64.7964 126.399 50.4988 134.734Z" stroke="#E0755D" stroke-width="3" stroke-linecap="round"/>
<ellipse cx="100.61" cy="147.621" rx="2.86231" ry="1.90821" transform="rotate(38.7924 100.61 147.621)" fill="#E0755D"/>
<ellipse cx="55.7001" cy="151.207" rx="1.1466" ry="1.36278" transform="rotate(38.7924 55.7001 151.207)" fill="#E0755D"/>
<ellipse cx="102.321" cy="159.683" rx="1.1466" ry="1.36278" transform="rotate(38.7924 102.321 159.683)" fill="#E0755D"/>
<ellipse cx="79.1502" cy="134.088" rx="1.1466" ry="1.36278" transform="rotate(-15.1394 79.1502 134.088)" fill="#E0755D"/>
<path d="M124 195.422L160.854 216.437C164.136 218.308 168.28 217.628 170.792 214.807L190.308 192.885L193.753 191.759C195.995 190.672 197.504 189.424 198.393 188.069C199.643 186.162 199.663 184.045 198.758 181.872C193.564 169.403 157.937 155.099 149.949 168.203C149.148 169.516 149.467 171.162 149.205 172.677C149.063 173.502 148.594 174.114 147.825 174.858L124 195.422Z" fill="#FBC960"/>
<path d="M170.792 214.807C168.28 217.628 164.136 218.308 160.854 216.437L124 195.422L124.418 199.384C124.695 202.016 126.287 204.351 128.606 205.626C175.409 231.34 159.842 233.683 191.744 199.084L190.308 192.885L170.792 214.807Z" fill="#F3B23D"/>
<path d="M193.753 191.759L190.308 192.885L191.744 199.084C202.784 192.358 202.285 188.592 198.758 181.872C199.663 184.045 199.643 186.162 198.393 188.069C197.504 189.424 195.995 190.672 193.753 191.759Z" fill="#F3B23D"/>
<path d="M124 195.422L160.854 216.437C164.136 218.308 168.28 217.628 170.792 214.807L190.308 192.885M124 195.422L147.825 174.858C148.594 174.114 149.063 173.502 149.205 172.677C149.467 171.162 149.148 169.516 149.949 168.203C157.937 155.099 193.564 169.403 198.758 181.872M124 195.422L124.418 199.384C124.695 202.016 126.287 204.351 128.606 205.626C175.409 231.34 159.842 233.683 191.744 199.084M190.308 192.885L193.753 191.759C195.995 190.672 197.504 189.424 198.393 188.069C199.643 186.162 199.663 184.045 198.758 181.872M190.308 192.885L191.744 199.084M191.744 199.084C202.784 192.358 202.285 188.592 198.758 181.872" stroke="#E4A02E" stroke-width="2" stroke-linecap="round"/>
<path d="M112 194.422L148.854 215.437C152.136 217.308 156.28 216.628 158.792 213.807L178.308 191.885L181.753 190.759C183.995 189.672 185.504 188.424 186.393 187.069C187.643 185.162 187.663 183.045 186.758 180.872C181.564 168.403 145.936 154.099 137.949 167.203C137.148 168.516 137.467 170.162 137.205 171.677C137.063 172.502 136.594 173.114 135.825 173.858L112 194.422Z" fill="#FFD579"/>
<path d="M158.792 213.807C156.28 216.628 152.136 217.308 148.854 215.437L112 194.422L112.418 198.384C112.695 201.016 114.287 203.351 116.606 204.626C163.409 230.34 147.842 232.683 179.744 198.084L178.308 191.885L158.792 213.807Z" fill="#F3B23D"/>
<path d="M181.753 190.759L178.308 191.885L179.744 198.084C190.784 191.358 190.285 187.592 186.758 180.872C187.663 183.045 187.643 185.162 186.393 187.069C185.504 188.424 183.995 189.672 181.753 190.759Z" fill="#F3B23D"/>
<path d="M112 194.422L148.854 215.437C152.136 217.308 156.28 216.628 158.792 213.807L178.308 191.885M112 194.422L135.825 173.858C136.594 173.114 137.063 172.502 137.205 171.677C137.467 170.162 137.148 168.516 137.949 167.203C145.936 154.099 181.564 168.403 186.758 180.872M112 194.422L112.418 198.384C112.695 201.016 114.287 203.351 116.606 204.626C163.409 230.34 147.842 232.683 179.744 198.084M178.308 191.885L181.753 190.759C183.995 189.672 185.504 188.424 186.393 187.069C187.643 185.162 187.663 183.045 186.758 180.872M178.308 191.885L179.744 198.084M179.744 198.084C190.784 191.358 190.285 187.592 186.758 180.872" stroke="#E4A02E" stroke-width="2" stroke-linecap="round"/>
</g>
<defs>
<clipPath id="clip0_570_21542">
<rect width="236" height="270" rx="20" fill="white"/>
</clipPath>
</defs>
</svg>
