<svg width="440" height="440" viewBox="0 0 440 440" fill="none" xmlns="http://www.w3.org/2000/svg">
<g clip-path="url(#clip0_550_21169)">
<path d="M370.444 18.8488L244.167 158.605L268.72 181.351L405.401 46.9791C428.87 25.8785 403.939 -17.8374 370.444 18.8488Z" fill="#182435" stroke="#323232" stroke-width="2.80742"/>
<path d="M290.603 371.309C236.15 436.82 138.972 445.853 73.5508 391.474C8.12929 337.095 -0.752592 239.903 53.7009 174.393C108.154 108.882 205.331 99.8492 270.753 154.228C336.174 208.608 345.056 305.798 290.603 371.309Z" fill="#182435" stroke="#7F7F7F" stroke-width="5.11297"/>
<path d="M265.831 350.719C222.764 402.532 145.908 409.674 94.1697 366.668C42.4313 323.662 35.4045 246.796 78.4721 194.983C121.54 143.171 198.395 136.029 250.133 179.035C301.871 222.04 308.899 298.906 265.831 350.719Z" fill="#253243" stroke="#324053" stroke-width="1.27824"/>
<path d="M249.981 223.526L230.583 248.076L199.98 239.412C197.06 238.585 194.674 236.477 193.492 233.682L180.205 202.24L204.421 181.586C207.097 179.303 210.777 178.595 214.11 179.721L236.629 187.328L250.835 212.397C252.84 215.935 252.502 220.335 249.981 223.526Z" fill="#FCD448"/>
<path d="M230.583 248.076L249.981 223.526C252.502 220.335 252.84 215.935 250.835 212.397L236.629 187.328M230.583 248.076L211.698 213.415M230.583 248.076L199.98 239.412C197.06 238.585 194.674 236.477 193.492 233.682L180.205 202.24M236.629 187.328L211.698 213.415M236.629 187.328L214.11 179.721C210.777 178.595 207.097 179.303 204.421 181.586L180.205 202.24M211.698 213.415L180.205 202.24" stroke="#EFBE20" stroke-width="3" stroke-linejoin="round"/>
</g>
<defs>
<clipPath id="clip0_550_21169">
<rect width="440" height="440" fill="white"/>
</clipPath>
</defs>
</svg>
