<svg width="236" height="270" viewBox="0 0 236 270" fill="none" xmlns="http://www.w3.org/2000/svg">
<g clip-path="url(#clip0_565_21028)">
<rect width="236" height="270" rx="20" fill="#97DBFF"/>
<path d="M-1.27726 91.1541C26.9708 66.1261 77.7691 61.1033 122.525 86.1292C161.997 106.555 196.93 101.955 248.461 81.0177" stroke="#D6F4FF"/>
<path d="M-33.2801 139.596C1.25721 102.848 63.6227 95.9343 118.759 133.425C167.376 164.055 210.256 157.604 273.419 127.147" stroke="#D6F4FF"/>
<path d="M-62.5879 182.665C-25.5206 157.007 40.6722 150.875 98.6485 174.94C149.8 194.518 195.333 189.154 262.665 167.083" stroke="#D6F4FF"/>
<path d="M72 69.375C65.5469 69.375 61.4844 64.8594 61.4844 57.625C61.4844 50.5156 65.5312 46.0781 71.9531 46.0781C76.1562 46.0781 79.5312 48.1719 80.7812 51.1875C80.9844 51.6875 81.0312 52.0781 81.0312 52.4688C81.0312 53.3906 80.4219 54.0156 79.4688 54.0156C78.6719 54.0156 78.1562 53.6406 77.7188 52.7656C76.5781 50.375 74.5781 49.1406 71.9688 49.1406C67.6562 49.1406 65.0625 52.2969 65.0625 57.5938C65.0625 62.9844 67.7344 66.3125 72.0312 66.3125C75.6875 66.3125 78.2188 63.9688 78.2656 60.5469V60.1562H73.7188C72.8125 60.1562 72.1875 59.5938 72.1875 58.75C72.1875 57.8906 72.8125 57.3281 73.7188 57.3281H79.9688C81.0469 57.3281 81.7188 58.0156 81.7188 59.1562V59.7188C81.7188 65.6719 78.1406 69.375 72 69.375ZM91.8594 69.3125C86.9062 69.3125 84 66.1719 84 60.8594C84 55.6406 86.9688 52.2656 91.625 52.2656C96 52.2656 99.0156 55.4219 99.0156 59.9062C99.0156 61 98.3906 61.625 97.3438 61.625H87.4062V61.7031C87.4062 64.7031 89.0938 66.5781 91.7812 66.5781C93.625 66.5781 94.7812 65.9375 96.0312 64.2344C96.3906 63.8125 96.7344 63.6406 97.2188 63.6406C98.0312 63.6406 98.625 64.1719 98.625 65.0156C98.625 65.2812 98.5312 65.5938 98.3906 65.9219C97.3125 68.0781 94.9219 69.3125 91.8594 69.3125ZM87.4219 59.2656H95.6406C95.5625 56.6875 93.9531 54.9844 91.6094 54.9844C89.2812 54.9844 87.5938 56.7031 87.4219 59.2656ZM103.453 69.2969C102.469 69.2969 101.766 68.625 101.766 67.5156V47.9375C101.766 46.8281 102.469 46.1562 103.453 46.1562C104.438 46.1562 105.141 46.8281 105.141 47.9375V67.5156C105.141 68.625 104.438 69.2969 103.453 69.2969ZM113.422 69.2812C110.203 69.2812 107.938 67.2812 107.938 64.3281C107.938 61.4531 110.156 59.6875 114.047 59.4688L118.562 59.2031V57.9375C118.562 56.1094 117.328 55.0156 115.266 55.0156C113.641 55.0156 112.562 55.5938 111.625 57.0938C111.281 57.5938 110.844 57.8125 110.25 57.8125C109.406 57.8125 108.797 57.25 108.797 56.4062C108.797 56.0625 108.891 55.6875 109.094 55.3125C109.953 53.4531 112.438 52.2656 115.391 52.2656C119.375 52.2656 121.922 54.375 121.922 57.6719V67.5938C121.922 68.6562 121.25 69.2969 120.297 69.2969C119.359 69.2969 118.719 68.6875 118.688 67.6875V66.2969H118.609C117.656 68.125 115.562 69.2812 113.422 69.2812ZM114.344 66.6094C116.703 66.6094 118.562 64.9844 118.562 62.8438V61.5469L114.5 61.7969C112.484 61.9375 111.344 62.8281 111.344 64.2344C111.344 65.6719 112.547 66.6094 114.344 66.6094ZM126.188 65.0625V55.2344H125C124.125 55.2344 123.594 54.7344 123.594 53.9062C123.594 53.0625 124.125 52.5625 125 52.5625H126.188V50.125C126.188 49.0469 126.859 48.3281 127.891 48.3281C128.906 48.3281 129.578 49.0469 129.578 50.125V52.5625H131.5C132.375 52.5625 132.906 53.0781 132.906 53.9062C132.906 54.7344 132.375 55.2344 131.5 55.2344H129.578V64.3125C129.578 65.625 130.031 66.2188 131.25 66.3125L131.516 66.3281C132.484 66.4219 132.969 66.8125 132.969 67.6094C132.969 68.625 132.188 69.1406 130.531 69.1406H130.359C127.594 69.1406 126.188 67.7812 126.188 65.0625ZM137.281 50.0781C136.203 50.0781 135.328 49.2031 135.328 48.1406C135.328 47.0625 136.203 46.2188 137.281 46.2188C138.375 46.2188 139.25 47.0625 139.25 48.1406C139.25 49.2031 138.375 50.0781 137.281 50.0781ZM137.281 69.2969C136.266 69.2969 135.594 68.5938 135.594 67.5156V54.0625C135.594 52.9688 136.266 52.2656 137.281 52.2656C138.297 52.2656 138.969 52.9688 138.969 54.0625V67.5156C138.969 68.5938 138.297 69.2969 137.281 69.2969ZM144.109 69.2969C143.109 69.2969 142.422 68.625 142.422 67.5156V53.9688C142.422 52.9375 143.047 52.2656 144.031 52.2656C145 52.2656 145.672 52.9375 145.672 53.9844V55.2812H145.75C146.641 53.4062 148.359 52.2812 150.891 52.2812C154.516 52.2812 156.594 54.5938 156.594 58.3594V67.5156C156.594 68.625 155.891 69.2969 154.891 69.2969C153.906 69.2969 153.203 68.625 153.203 67.5156V59.0156C153.203 56.5469 152.047 55.1875 149.703 55.1875C147.328 55.1875 145.797 56.875 145.797 59.4219V67.5156C145.797 68.625 145.094 69.2969 144.109 69.2969ZM164.672 69.2812C161.453 69.2812 159.188 67.2812 159.188 64.3281C159.188 61.4531 161.406 59.6875 165.297 59.4688L169.812 59.2031V57.9375C169.812 56.1094 168.578 55.0156 166.516 55.0156C164.891 55.0156 163.812 55.5938 162.875 57.0938C162.531 57.5938 162.094 57.8125 161.5 57.8125C160.656 57.8125 160.047 57.25 160.047 56.4062C160.047 56.0625 160.141 55.6875 160.344 55.3125C161.203 53.4531 163.688 52.2656 166.641 52.2656C170.625 52.2656 173.172 54.375 173.172 57.6719V67.5938C173.172 68.6562 172.5 69.2969 171.547 69.2969C170.609 69.2969 169.969 68.6875 169.938 67.6875V66.2969H169.859C168.906 68.125 166.812 69.2812 164.672 69.2812ZM165.594 66.6094C167.953 66.6094 169.812 64.9844 169.812 62.8438V61.5469L165.75 61.7969C163.734 61.9375 162.594 62.8281 162.594 64.2344C162.594 65.6719 163.797 66.6094 165.594 66.6094Z" fill="white"/>
<path d="M117.5 147.055C139.32 147.055 159.025 151.838 173.239 159.521C187.493 167.226 196 177.703 196 189.028C196 200.352 187.493 210.829 173.239 218.534C159.025 226.217 139.32 231 117.5 231C95.6797 231 75.9748 226.217 61.7607 218.534C47.507 210.829 39.0001 200.352 39 189.028C39 177.703 47.5069 167.226 61.7607 159.521C75.9748 151.838 95.6798 147.055 117.5 147.055Z" fill="#FDFDFD" stroke="#E3E3E3" stroke-width="2"/>
<path d="M128.176 142.984L139.413 204.418C139.719 207.45 138.266 209.926 135.716 211.833C152.176 208.539 167.279 208.146 169.964 200.96C170.511 199.495 170.542 197.748 169.964 195.637C160.886 161.212 155.705 143.674 145.348 131.462C143.962 129.823 142.519 128.649 141.067 127.91C137.642 126.167 134.168 126.84 131.286 129.523C131.098 129.698 130.912 129.882 130.729 130.074C128.938 131.956 127.407 134.648 126.302 138.044C127.144 139.511 127.792 141.174 128.176 142.984Z" fill="#D3D3D3"/>
<path d="M139.413 204.418L128.176 142.984C127.792 141.174 127.144 139.511 126.302 138.044C121.671 129.977 111.161 127.808 106.297 139.592C106.07 140.667 105.699 141.799 105.165 142.984L94.4625 204.418C94.4271 207.04 95.5769 209.23 97.5298 210.996C105.531 218.23 127.013 218.342 135.716 211.833C138.266 209.926 139.719 207.45 139.413 204.418Z" fill="#D3D3D3"/>
<path d="M94.4625 204.418L105.165 142.984C105.495 141.745 105.875 140.616 106.297 139.592C107.181 135.422 105.909 132.116 103.61 129.933C103.436 129.768 103.257 129.61 103.073 129.458C100.111 127.022 95.77 126.258 92.0533 127.622C90.3389 128.251 88.7573 129.333 87.505 130.913C75.3391 154.412 70.7378 169.143 62.8891 195.637C62.7163 197.248 62.8545 198.707 63.2496 200.026C66.9615 212.415 93.3456 212.483 97.5298 210.996C95.5769 209.23 94.4271 207.04 94.4625 204.418Z" fill="#D3D3D3"/>
<path d="M62.8891 195.637C70.7378 169.143 75.3391 154.412 87.505 130.913C88.7573 129.333 90.3389 128.251 92.0533 127.622C90.9324 125.527 89.8806 124.157 88.6241 123.454C86.4713 122.249 83.7177 123.004 78.9868 125.428C65.0895 134.992 60.5039 149.528 53.7889 169.857C52.6377 173.342 51.4239 176.998 50.0899 180.828C45.4686 193.468 51.48 196.023 63.2496 200.026C62.8545 198.707 62.7163 197.248 62.8891 195.637Z" fill="#D3D3D3"/>
<path d="M141.067 127.91C142.519 128.649 143.962 129.823 145.348 131.462C155.705 143.674 160.886 161.212 169.964 195.637C170.542 197.748 170.511 199.495 169.964 200.96C183.198 195.332 186.28 190.707 183.342 178.633C182.46 175.491 181.598 172.577 180.743 169.857C174.317 149.429 168.266 140 157.121 127.91C152.943 123.797 148.921 122.243 145.635 123.475C145.606 123.486 145.578 123.497 145.549 123.508C143.819 124.185 142.297 125.641 141.067 127.91Z" fill="#D3D3D3"/>
<path d="M88.6241 123.454C89.8806 124.157 90.9324 125.527 92.0533 127.622C95.77 126.258 100.111 127.022 103.073 129.458C108.574 124.503 129.681 127.329 131.286 129.523C134.168 126.84 137.642 126.167 141.067 127.91C142.297 125.641 143.819 124.185 145.549 123.508C145.578 123.497 145.606 123.486 145.635 123.475C138.144 115.576 130.452 118.471 128.224 128.17C126.35 118.297 115.996 111.763 105.694 124.331C103.121 115.458 93.9138 117.725 88.6241 123.454Z" fill="#D3D3D3"/>
<path d="M131.286 129.523C129.681 127.329 108.574 124.503 103.073 129.458C103.257 129.61 103.436 129.768 103.61 129.933C105.909 132.116 107.181 135.422 106.297 139.592C111.161 127.808 121.671 129.977 126.302 138.044C127.407 134.648 128.938 131.956 130.729 130.074C130.912 129.882 131.098 129.698 131.286 129.523Z" fill="#D3D3D3"/>
<path d="M105.165 142.984L94.4625 204.418C94.4271 207.04 95.5769 209.23 97.5298 210.996M105.165 142.984C105.699 141.799 106.07 140.667 106.297 139.592M105.165 142.984C105.495 141.745 105.875 140.616 106.297 139.592M97.5298 210.996C93.3456 212.483 66.9615 212.415 63.2496 200.026M97.5298 210.996C105.531 218.23 127.013 218.342 135.716 211.833M63.2496 200.026C62.8545 198.707 62.7163 197.248 62.8891 195.637C70.7378 169.143 75.3391 154.412 87.505 130.913C88.7573 129.333 90.3389 128.251 92.0533 127.622M63.2496 200.026C51.48 196.023 45.4686 193.468 50.0899 180.828C51.4239 176.998 52.6377 173.342 53.7889 169.857C60.5039 149.528 65.0895 134.992 78.9868 125.428C83.7177 123.004 86.4713 122.249 88.6241 123.454M92.0533 127.622C90.9324 125.527 89.8806 124.157 88.6241 123.454M92.0533 127.622C95.77 126.258 100.111 127.022 103.073 129.458M92.0533 127.622C96.0015 126.173 100.654 127.125 103.61 129.933M88.6241 123.454C93.9138 117.725 103.121 115.458 105.694 124.331M106.368 127.738C106.258 126.503 105.973 125.294 105.694 124.331M103.073 129.458C108.574 124.503 129.681 127.329 131.286 129.523M103.073 129.458C103.257 129.61 103.436 129.768 103.61 129.933M131.286 129.523C134.168 126.84 137.642 126.167 141.067 127.91M131.286 129.523C131.098 129.698 130.912 129.882 130.729 130.074M126.302 138.044C127.144 139.511 127.792 141.174 128.176 142.984L139.413 204.418C139.719 207.45 138.266 209.926 135.716 211.833M126.302 138.044C121.671 129.977 111.161 127.808 106.297 139.592M126.302 138.044C127.407 134.648 128.938 131.956 130.729 130.074M105.694 124.331C115.996 111.763 126.35 118.297 128.224 128.17C130.452 118.471 138.144 115.576 145.635 123.475M145.635 123.475C148.921 122.243 152.943 123.797 157.121 127.91M145.635 123.475C145.606 123.486 145.578 123.497 145.549 123.508M141.067 127.91C142.519 128.649 143.962 129.823 145.348 131.462C155.705 143.674 160.886 161.212 169.964 195.637C170.542 197.748 170.511 199.495 169.964 200.96M141.067 127.91C142.297 125.641 143.819 124.185 145.549 123.508M141.067 127.91C137.418 126.053 133.714 126.938 130.729 130.074M157.121 127.91C168.266 140 174.317 149.429 180.743 169.857C181.598 172.577 182.46 175.491 183.342 178.633C186.28 190.707 183.198 195.332 169.964 200.96M157.121 127.91C152.907 123.761 148.851 122.216 145.549 123.508M135.716 211.833C152.176 208.539 167.279 208.146 169.964 200.96M106.297 139.592C107.181 135.422 105.909 132.116 103.61 129.933" stroke="#D3D3D3" stroke-width="2"/>
<path d="M128.997 138.69L140.054 200.394C140.355 203.439 138.925 205.926 136.416 207.842C152.61 204.534 167.47 204.139 170.111 196.921C170.649 195.45 170.68 193.695 170.111 191.575C161.179 156.998 156.082 139.382 145.892 127.116C144.529 125.47 143.109 124.292 141.68 123.549C138.311 121.798 134.893 122.474 132.058 125.169C131.872 125.345 131.69 125.53 131.51 125.723C129.748 127.613 128.241 130.316 127.154 133.727C127.982 135.202 128.62 136.872 128.997 138.69Z" fill="#FFDC60"/>
<path d="M140.054 200.394L128.997 138.69C128.62 136.872 127.982 135.202 127.154 133.727C122.598 125.625 112.257 123.447 107.472 135.282C107.248 136.362 106.883 137.499 106.358 138.69L95.8284 200.394C95.7936 203.027 96.9248 205.227 98.8462 207.001C106.718 214.267 127.853 214.379 136.416 207.842C138.925 205.926 140.355 203.439 140.054 200.394Z" fill="#FFDC60"/>
<path d="M95.8284 200.394L106.358 138.69C106.683 137.445 107.056 136.311 107.472 135.282C108.342 131.094 107.09 127.774 104.828 125.581C104.657 125.415 104.481 125.256 104.3 125.104C101.386 122.657 97.1148 121.89 93.4581 123.26C91.7714 123.892 90.2153 124.979 88.9833 126.565C77.0138 150.168 72.4867 164.964 64.7647 191.575C64.5947 193.193 64.7307 194.658 65.1194 195.982C68.7713 208.427 94.7295 208.495 98.8462 207.001C96.9248 205.227 95.7936 203.027 95.8284 200.394Z" fill="#FFDC60"/>
<path d="M64.7647 191.575C72.4867 164.964 77.0138 150.168 88.9833 126.565C90.2153 124.979 91.7714 123.892 93.4581 123.26C92.3553 121.156 91.3205 119.779 90.0843 119.073C87.9662 117.863 85.257 118.621 80.6026 121.056C66.9296 130.663 62.418 145.262 55.8114 165.681C54.6788 169.181 53.4846 172.853 52.1721 176.7C47.6255 189.396 53.5398 191.962 65.1194 195.982C64.7307 194.658 64.5947 193.193 64.7647 191.575Z" fill="#FFDC60"/>
<path d="M141.68 123.549C143.109 124.292 144.529 125.47 145.892 127.116C156.082 139.382 161.179 156.998 170.111 191.575C170.68 193.695 170.649 195.45 170.111 196.921C183.131 191.268 186.163 186.622 183.273 174.496C182.406 171.34 181.557 168.413 180.716 165.681C174.394 145.162 168.441 135.692 157.475 123.549C153.365 119.418 149.408 117.857 146.175 119.095C146.147 119.106 146.118 119.117 146.09 119.128C144.388 119.808 142.89 121.271 141.68 123.549Z" fill="#FFDC60"/>
<path d="M90.0843 119.073C91.3205 119.779 92.3553 121.156 93.4581 123.26C97.1148 121.89 101.386 122.657 104.3 125.104C109.712 120.127 130.478 122.965 132.058 125.169C134.893 122.474 138.311 121.798 141.68 123.549C142.89 121.271 144.388 119.808 146.09 119.128C146.118 119.117 146.147 119.106 146.175 119.095C138.804 111.161 131.237 114.068 129.045 123.81C127.201 113.893 117.014 107.331 106.878 119.954C104.347 111.042 95.2886 113.32 90.0843 119.073Z" fill="#FFDC60"/>
<path d="M132.058 125.169C130.478 122.965 109.712 120.127 104.3 125.104C104.481 125.256 104.657 125.415 104.828 125.581C107.09 127.774 108.342 131.094 107.472 135.282C112.257 123.447 122.598 125.625 127.154 133.727C128.241 130.316 129.748 127.613 131.51 125.723C131.69 125.53 131.872 125.345 132.058 125.169Z" fill="#D7A100"/>
<path d="M106.358 138.69L95.8284 200.394C95.7936 203.027 96.9248 205.227 98.8462 207.001M106.358 138.69C106.883 137.499 107.248 136.362 107.472 135.282M106.358 138.69C106.683 137.445 107.056 136.311 107.472 135.282M98.8462 207.001C94.7295 208.495 68.7713 208.427 65.1194 195.982M98.8462 207.001C106.718 214.267 127.853 214.379 136.416 207.842M65.1194 195.982C64.7307 194.658 64.5947 193.193 64.7647 191.575C72.4867 164.964 77.0138 150.168 88.9833 126.565C90.2153 124.979 91.7714 123.892 93.4581 123.26M65.1194 195.982C53.5398 191.962 47.6255 189.396 52.1721 176.7C53.4846 172.853 54.6788 169.181 55.8114 165.681C62.418 145.262 66.9296 130.663 80.6026 121.056C85.257 118.621 87.9662 117.863 90.0843 119.073M93.4581 123.26C92.3553 121.156 91.3205 119.779 90.0843 119.073M93.4581 123.26C97.1148 121.89 101.386 122.657 104.3 125.104M93.4581 123.26C97.3426 121.804 101.92 122.761 104.828 125.581M90.0843 119.073C95.2886 113.32 104.347 111.042 106.878 119.954M107.541 123.376C107.434 122.136 107.153 120.921 106.878 119.954M104.3 125.104C109.712 120.127 130.478 122.965 132.058 125.169M104.3 125.104C104.481 125.256 104.657 125.415 104.828 125.581M132.058 125.169C134.893 122.474 138.311 121.798 141.68 123.549M132.058 125.169C131.872 125.345 131.69 125.53 131.51 125.723M127.154 133.727C127.982 135.202 128.62 136.872 128.997 138.69L140.054 200.394C140.355 203.439 138.925 205.926 136.416 207.842M127.154 133.727C122.598 125.625 112.257 123.447 107.472 135.282M127.154 133.727C128.241 130.316 129.748 127.613 131.51 125.723M106.878 119.954C117.014 107.331 127.201 113.893 129.045 123.81C131.237 114.068 138.804 111.161 146.175 119.095M146.175 119.095C149.408 117.857 153.365 119.418 157.475 123.549M146.175 119.095C146.147 119.106 146.118 119.117 146.09 119.128M141.68 123.549C143.109 124.292 144.529 125.47 145.892 127.116C156.082 139.382 161.179 156.998 170.111 191.575C170.68 193.695 170.649 195.45 170.111 196.921M141.68 123.549C142.89 121.271 144.388 119.808 146.09 119.128M141.68 123.549C138.091 121.684 134.446 122.573 131.51 125.723M157.475 123.549C168.441 135.692 174.394 145.162 180.716 165.681C181.557 168.413 182.406 171.34 183.273 174.496C186.163 186.622 183.131 191.268 170.111 196.921M157.475 123.549C153.329 119.382 149.338 117.829 146.09 119.128M136.416 207.842C152.61 204.534 167.47 204.139 170.111 196.921M107.472 135.282C108.342 131.094 107.09 127.774 104.828 125.581" stroke="#D1951E" stroke-width="2"/>
</g>
<defs>
<clipPath id="clip0_565_21028">
<rect width="236" height="270" rx="20" fill="white"/>
</clipPath>
</defs>
</svg>
