<svg width="440" height="440" viewBox="0 0 440 440" fill="none" xmlns="http://www.w3.org/2000/svg">
<g clip-path="url(#clip0_550_21126)">
<path d="M370.444 18.8488L244.167 158.605L268.72 181.351L405.401 46.9791C428.87 25.8785 403.939 -17.8374 370.444 18.8488Z" fill="#182435" stroke="#323232" stroke-width="2.80742"/>
<path d="M290.603 371.309C236.15 436.82 138.972 445.853 73.5508 391.474C8.12929 337.095 -0.752592 239.903 53.7009 174.393C108.154 108.882 205.331 99.8492 270.753 154.228C336.174 208.608 345.056 305.798 290.603 371.309Z" fill="#182435" stroke="#7F7F7F" stroke-width="5.11297"/>
<path d="M265.831 350.719C222.764 402.532 145.908 409.674 94.1697 366.668C42.4313 323.662 35.4045 246.796 78.4721 194.983C121.54 143.171 198.395 136.029 250.133 179.035C301.871 222.04 308.899 298.906 265.831 350.719Z" fill="#253243" stroke="#324053" stroke-width="1.27824"/>
<path d="M425.981 55.5263L406.583 80.076L375.98 71.4116C373.06 70.585 370.674 68.4774 369.492 65.6823L356.205 34.2395L380.421 13.5862C383.097 11.3031 386.777 10.5947 390.11 11.7207L412.629 19.3279L426.835 44.3965C428.84 47.9349 428.502 52.3352 425.981 55.5263Z" fill="#FCD448"/>
<path d="M406.583 80.076L425.981 55.5263C428.502 52.3352 428.84 47.9349 426.835 44.3965L412.629 19.3279M406.583 80.076L387.698 45.4153M406.583 80.076L375.98 71.4116C373.06 70.585 370.674 68.4774 369.492 65.6823L356.205 34.2395M412.629 19.3279L387.698 45.4153M412.629 19.3279L390.11 11.7207C386.777 10.5947 383.097 11.3031 380.421 13.5862L356.205 34.2395M387.698 45.4153L356.205 34.2395" stroke="#EFBE20" stroke-width="3" stroke-linejoin="round"/>
</g>
<defs>
<clipPath id="clip0_550_21126">
<rect width="440" height="440" fill="white"/>
</clipPath>
</defs>
</svg>
