<svg width="440" height="440" viewBox="0 0 440 440" fill="none" xmlns="http://www.w3.org/2000/svg">
<g clip-path="url(#clip0_550_21195)">
<path d="M370.444 18.8488L244.167 158.605L268.72 181.351L405.401 46.9791C428.87 25.8785 403.939 -17.8374 370.444 18.8488Z" fill="#182435" stroke="#323232" stroke-width="2.80742"/>
<path d="M290.603 371.309C236.15 436.82 138.972 445.853 73.5508 391.474C8.12929 337.095 -0.752592 239.903 53.7009 174.393C108.154 108.882 205.331 99.8492 270.753 154.228C336.174 208.608 345.056 305.798 290.603 371.309Z" fill="#182435" stroke="#7F7F7F" stroke-width="5.11297"/>
<path d="M265.831 350.719C222.764 402.532 145.908 409.674 94.1697 366.668C42.4313 323.662 35.4045 246.796 78.4721 194.983C121.54 143.171 198.395 136.029 250.133 179.035C301.871 222.04 308.899 298.906 265.831 350.719Z" fill="#253243" stroke="#324053" stroke-width="1.27824"/>
<path d="M261.501 221.622C227.813 186.504 109.001 180.999 92.0006 205.5C73.2444 232.758 69.3542 247.546 82.5006 272.5C109.065 313.838 229.16 270.25 254.001 259.999C272.917 260.641 291.51 247.054 261.501 221.622Z" fill="#EFBE20" fill-opacity="0.2"/>
<path d="M142.981 300.526L123.583 325.076L92.9796 316.412C90.06 315.585 87.6736 313.477 86.4925 310.682L73.2052 279.24L97.4206 258.586C100.097 256.303 103.777 255.595 107.11 256.721L129.629 264.328L143.835 289.397C145.84 292.935 145.502 297.335 142.981 300.526Z" fill="#FCD448"/>
<path d="M123.583 325.076L142.981 300.526C145.502 297.335 145.84 292.935 143.835 289.397L129.629 264.328M123.583 325.076L104.698 290.415M123.583 325.076L92.9796 316.412C90.06 315.585 87.6736 313.477 86.4925 310.682L73.2052 279.24M129.629 264.328L104.698 290.415M129.629 264.328L107.11 256.721C103.777 255.595 100.097 256.303 97.4206 258.586L73.2052 279.24M104.698 290.415L73.2052 279.24" stroke="#EFBE20" stroke-width="3" stroke-linejoin="round"/>
</g>
<defs>
<clipPath id="clip0_550_21195">
<rect width="440" height="440" fill="white"/>
</clipPath>
</defs>
</svg>
