<svg width="236" height="270" viewBox="0 0 236 270" fill="none" xmlns="http://www.w3.org/2000/svg">
<g clip-path="url(#clip0_575_39134)">
<rect width="236" height="270" rx="20" fill="#97DBFF"/>
<path d="M-1.27726 91.1541C26.9708 66.1261 77.7691 61.1033 122.525 86.1292C161.997 106.555 196.93 101.955 248.461 81.0177" stroke="#D6F4FF"/>
<path d="M-33.2801 139.596C1.25721 102.848 63.6227 95.9343 118.759 133.425C167.376 164.055 210.256 157.604 273.419 127.147" stroke="#D6F4FF"/>
<path d="M-62.5879 182.665C-25.5206 157.007 40.6722 150.875 98.6485 174.94C149.8 194.518 195.333 189.154 262.665 167.083" stroke="#D6F4FF"/>
<path d="M53.2188 51.25C52.125 51.25 51.4688 50.5625 51.4688 49.4375V30.2656C51.4688 29.1406 52.125 28.4531 53.2188 28.4531H59.9219C64.2969 28.4531 67.3438 31.4688 67.3438 35.8594C67.3438 40.2656 64.2344 43.2969 59.8125 43.2969H54.9688V49.4375C54.9688 50.5625 54.2969 51.25 53.2188 51.25ZM54.9688 40.3594H58.9844C62.0312 40.3594 63.7656 38.7188 63.7656 35.875C63.7656 33.0312 62.0312 31.4062 59 31.4062H54.9688V40.3594ZM73.5 51.2812C70.2812 51.2812 68.0156 49.2812 68.0156 46.3281C68.0156 43.4531 70.2344 41.6875 74.125 41.4688L78.6406 41.2031V39.9375C78.6406 38.1094 77.4062 37.0156 75.3438 37.0156C73.7188 37.0156 72.6406 37.5938 71.7031 39.0938C71.3594 39.5938 70.9219 39.8125 70.3281 39.8125C69.4844 39.8125 68.875 39.25 68.875 38.4062C68.875 38.0625 68.9688 37.6875 69.1719 37.3125C70.0312 35.4531 72.5156 34.2656 75.4688 34.2656C79.4531 34.2656 82 36.375 82 39.6719V49.5938C82 50.6562 81.3281 51.2969 80.375 51.2969C79.4375 51.2969 78.7969 50.6875 78.7656 49.6875V48.2969H78.6875C77.7344 50.125 75.6406 51.2812 73.5 51.2812ZM74.4219 48.6094C76.7812 48.6094 78.6406 46.9844 78.6406 44.8438V43.5469L74.5781 43.7969C72.5625 43.9375 71.4219 44.8281 71.4219 46.2344C71.4219 47.6719 72.625 48.6094 74.4219 48.6094ZM86.9688 51.2969C85.9688 51.2969 85.2812 50.625 85.2812 49.5156V35.9688C85.2812 34.9375 85.9062 34.2656 86.8906 34.2656C87.8594 34.2656 88.5312 34.9375 88.5312 35.9844V37.2812H88.6094C89.5 35.4062 91.2188 34.2812 93.75 34.2812C97.375 34.2812 99.4531 36.5938 99.4531 40.3594V49.5156C99.4531 50.625 98.75 51.2969 97.75 51.2969C96.7656 51.2969 96.0625 50.625 96.0625 49.5156V41.0156C96.0625 38.5469 94.9062 37.1875 92.5625 37.1875C90.1875 37.1875 88.6562 38.875 88.6562 41.4219V49.5156C88.6562 50.625 87.9531 51.2969 86.9688 51.2969ZM108.812 51.2812C104.688 51.2812 101.984 47.9688 101.984 42.7812C101.984 37.5938 104.688 34.2969 108.891 34.2969C111.266 34.2969 113.141 35.5 114.109 37.3906H114.188V36C114.188 34.9531 114.812 34.2656 115.828 34.2656C116.844 34.2656 117.469 34.9688 117.469 36V55.0312C117.469 56.1406 116.766 56.8281 115.781 56.8281C114.781 56.8281 114.078 56.1406 114.078 55.0312V48.2344H114.016C113.078 50.0781 111.156 51.2812 108.812 51.2812ZM109.719 48.4219C112.312 48.4219 114.094 46.2031 114.094 42.7812C114.094 39.375 112.312 37.1406 109.719 37.1406C107.078 37.1406 105.438 39.2969 105.438 42.7812C105.438 46.2656 107.078 48.4219 109.719 48.4219ZM126.5 51.2969C122.922 51.2969 120.734 48.9688 120.734 45.2031V36.0625C120.734 34.9375 121.422 34.2656 122.422 34.2656C123.406 34.2656 124.109 34.9375 124.109 36.0625V44.5469C124.109 47.0469 125.297 48.3906 127.625 48.3906C130.062 48.3906 131.531 46.7031 131.531 44.1406V36.0625C131.531 34.9375 132.234 34.2656 133.219 34.2656C134.219 34.2656 134.906 34.9375 134.906 36.0625V49.5781C134.906 50.625 134.266 51.2969 133.297 51.2969C132.328 51.2969 131.672 50.625 131.672 49.5938V48.2188H131.594C130.688 50.1875 129.016 51.2969 126.5 51.2969ZM145.375 51.3125C140.422 51.3125 137.516 48.1719 137.516 42.8594C137.516 37.6406 140.484 34.2656 145.141 34.2656C149.516 34.2656 152.531 37.4219 152.531 41.9062C152.531 43 151.906 43.625 150.859 43.625H140.922V43.7031C140.922 46.7031 142.609 48.5781 145.297 48.5781C147.141 48.5781 148.297 47.9375 149.547 46.2344C149.906 45.8125 150.25 45.6406 150.734 45.6406C151.547 45.6406 152.141 46.1719 152.141 47.0156C152.141 47.2812 152.047 47.5938 151.906 47.9219C150.828 50.0781 148.438 51.3125 145.375 51.3125ZM140.938 41.2656H149.156C149.078 38.6875 147.469 36.9844 145.125 36.9844C142.797 36.9844 141.109 38.7031 140.938 41.2656ZM162.188 51.3125C157.484 51.3125 154.422 48.0469 154.422 42.8125C154.422 37.6094 157.469 34.2656 162.156 34.2656C165.328 34.2656 168.047 35.9531 168.766 38.25C168.859 38.5156 168.922 38.7969 168.922 39.0312C168.922 39.8906 168.312 40.4219 167.484 40.4219C166.766 40.4219 166.359 40.1406 165.953 39.3906C165.109 37.8281 163.953 37.0781 162.219 37.0781C159.578 37.0781 157.859 39.2812 157.859 42.7812C157.859 46.3594 159.609 48.4844 162.219 48.4844C164.047 48.4844 165.156 47.6719 165.953 46.25C166.422 45.4375 166.781 45.1562 167.516 45.1562C168.344 45.1562 168.953 45.7188 168.953 46.5625C168.953 46.8281 168.891 47.1094 168.766 47.4375C167.906 49.7031 165.234 51.3125 162.188 51.3125ZM176.5 51.2812C173.281 51.2812 171.016 49.2812 171.016 46.3281C171.016 43.4531 173.234 41.6875 177.125 41.4688L181.641 41.2031V39.9375C181.641 38.1094 180.406 37.0156 178.344 37.0156C176.719 37.0156 175.641 37.5938 174.703 39.0938C174.359 39.5938 173.922 39.8125 173.328 39.8125C172.484 39.8125 171.875 39.25 171.875 38.4062C171.875 38.0625 171.969 37.6875 172.172 37.3125C173.031 35.4531 175.516 34.2656 178.469 34.2656C182.453 34.2656 185 36.375 185 39.6719V49.5938C185 50.6562 184.328 51.2969 183.375 51.2969C182.438 51.2969 181.797 50.6875 181.766 49.6875V48.2969H181.688C180.734 50.125 178.641 51.2812 176.5 51.2812ZM177.422 48.6094C179.781 48.6094 181.641 46.9844 181.641 44.8438V43.5469L177.578 43.7969C175.562 43.9375 174.422 44.8281 174.422 46.2344C174.422 47.6719 175.625 48.6094 177.422 48.6094ZM53.5781 83.2812C49.4219 83.2812 46.6719 79.9688 46.6719 74.7812C46.6719 69.5938 49.4219 66.2969 53.5469 66.2969C55.9062 66.2969 57.7812 67.4844 58.7031 69.2969H58.7656V61.9375C58.7656 60.8281 59.4688 60.1562 60.4688 60.1562C61.4531 60.1562 62.1562 60.8281 62.1562 61.9375V81.6094C62.1562 82.6719 61.4688 83.2969 60.4844 83.2969C59.5312 83.2969 58.7656 82.6719 58.7656 81.6094V80.0781H58.7188C57.875 82 56.1406 83.2812 53.5781 83.2812ZM54.4688 80.4219C57.0625 80.4219 58.7969 78.2188 58.7969 74.7812C58.7969 71.375 57.0625 69.1406 54.4688 69.1406C51.7969 69.1406 50.125 71.3281 50.125 74.7812C50.125 78.25 51.7969 80.4219 54.4688 80.4219ZM72.75 83.3125C67.7969 83.3125 64.8906 80.1719 64.8906 74.8594C64.8906 69.6406 67.8594 66.2656 72.5156 66.2656C76.8906 66.2656 79.9062 69.4219 79.9062 73.9062C79.9062 75 79.2812 75.625 78.2344 75.625H68.2969V75.7031C68.2969 78.7031 69.9844 80.5781 72.6719 80.5781C74.5156 80.5781 75.6719 79.9375 76.9219 78.2344C77.2812 77.8125 77.625 77.6406 78.1094 77.6406C78.9219 77.6406 79.5156 78.1719 79.5156 79.0156C79.5156 79.2812 79.4219 79.5938 79.2812 79.9219C78.2031 82.0781 75.8125 83.3125 72.75 83.3125ZM68.3125 73.2656H76.5312C76.4531 70.6875 74.8438 68.9844 72.5 68.9844C70.1719 68.9844 68.4844 70.7031 68.3125 73.2656ZM90.7656 83.2969C89.7969 83.2969 89.1562 82.6719 89.1562 81.6094V61.9375C89.1562 60.8281 89.8594 60.1562 90.8438 60.1562C91.8281 60.1562 92.5312 60.8281 92.5312 61.9375V69.3594H92.6094C93.5938 67.4531 95.4844 66.2969 97.8125 66.2969C101.953 66.2969 104.656 69.5781 104.656 74.7812C104.656 80 101.969 83.2812 97.7812 83.2812C95.3906 83.2812 93.5156 82.1094 92.5 80.2031H92.4375V81.6094C92.4375 82.6719 91.75 83.2969 90.7656 83.2969ZM96.875 80.4219C99.5469 80.4219 101.188 78.2656 101.188 74.7812C101.188 71.3281 99.5312 69.1406 96.875 69.1406C94.3281 69.1406 92.5156 71.3906 92.5156 74.7812C92.5156 78.2031 94.3281 80.4219 96.875 80.4219ZM112.094 83.2812C108.875 83.2812 106.609 81.2812 106.609 78.3281C106.609 75.4531 108.828 73.6875 112.719 73.4688L117.234 73.2031V71.9375C117.234 70.1094 116 69.0156 113.938 69.0156C112.312 69.0156 111.234 69.5938 110.297 71.0938C109.953 71.5938 109.516 71.8125 108.922 71.8125C108.078 71.8125 107.469 71.25 107.469 70.4062C107.469 70.0625 107.562 69.6875 107.766 69.3125C108.625 67.4531 111.109 66.2656 114.062 66.2656C118.047 66.2656 120.594 68.375 120.594 71.6719V81.5938C120.594 82.6562 119.922 83.2969 118.969 83.2969C118.031 83.2969 117.391 82.6875 117.359 81.6875V80.2969H117.281C116.328 82.125 114.234 83.2812 112.094 83.2812ZM113.016 80.6094C115.375 80.6094 117.234 78.9844 117.234 76.8438V75.5469L113.172 75.7969C111.156 75.9375 110.016 76.8281 110.016 78.2344C110.016 79.6719 111.219 80.6094 113.016 80.6094ZM125.562 83.2969C124.562 83.2969 123.875 82.625 123.875 81.5156V67.9688C123.875 66.9375 124.5 66.2656 125.484 66.2656C126.453 66.2656 127.125 66.9375 127.125 67.9844V69.2812H127.203C128.094 67.4062 129.812 66.2812 132.344 66.2812C135.969 66.2812 138.047 68.5938 138.047 72.3594V81.5156C138.047 82.625 137.344 83.2969 136.344 83.2969C135.359 83.2969 134.656 82.625 134.656 81.5156V73.0156C134.656 70.5469 133.5 69.1875 131.156 69.1875C128.781 69.1875 127.25 70.875 127.25 73.4219V81.5156C127.25 82.625 126.547 83.2969 125.562 83.2969ZM146.125 83.2812C142.906 83.2812 140.641 81.2812 140.641 78.3281C140.641 75.4531 142.859 73.6875 146.75 73.4688L151.266 73.2031V71.9375C151.266 70.1094 150.031 69.0156 147.969 69.0156C146.344 69.0156 145.266 69.5938 144.328 71.0938C143.984 71.5938 143.547 71.8125 142.953 71.8125C142.109 71.8125 141.5 71.25 141.5 70.4062C141.5 70.0625 141.594 69.6875 141.797 69.3125C142.656 67.4531 145.141 66.2656 148.094 66.2656C152.078 66.2656 154.625 68.375 154.625 71.6719V81.5938C154.625 82.6562 153.953 83.2969 153 83.2969C152.062 83.2969 151.422 82.6875 151.391 81.6875V80.2969H151.312C150.359 82.125 148.266 83.2812 146.125 83.2812ZM147.047 80.6094C149.406 80.6094 151.266 78.9844 151.266 76.8438V75.5469L147.203 75.7969C145.188 75.9375 144.047 76.8281 144.047 78.2344C144.047 79.6719 145.25 80.6094 147.047 80.6094ZM159.594 83.2969C158.594 83.2969 157.906 82.625 157.906 81.5156V67.9688C157.906 66.9375 158.531 66.2656 159.516 66.2656C160.484 66.2656 161.156 66.9375 161.156 67.9844V69.2812H161.234C162.125 67.4062 163.844 66.2812 166.375 66.2812C170 66.2812 172.078 68.5938 172.078 72.3594V81.5156C172.078 82.625 171.375 83.2969 170.375 83.2969C169.391 83.2969 168.688 82.625 168.688 81.5156V73.0156C168.688 70.5469 167.531 69.1875 165.188 69.1875C162.812 69.1875 161.281 70.875 161.281 73.4219V81.5156C161.281 82.625 160.578 83.2969 159.594 83.2969ZM180.156 83.2812C176.938 83.2812 174.672 81.2812 174.672 78.3281C174.672 75.4531 176.891 73.6875 180.781 73.4688L185.297 73.2031V71.9375C185.297 70.1094 184.062 69.0156 182 69.0156C180.375 69.0156 179.297 69.5938 178.359 71.0938C178.016 71.5938 177.578 71.8125 176.984 71.8125C176.141 71.8125 175.531 71.25 175.531 70.4062C175.531 70.0625 175.625 69.6875 175.828 69.3125C176.688 67.4531 179.172 66.2656 182.125 66.2656C186.109 66.2656 188.656 68.375 188.656 71.6719V81.5938C188.656 82.6562 187.984 83.2969 187.031 83.2969C186.094 83.2969 185.453 82.6875 185.422 81.6875V80.2969H185.344C184.391 82.125 182.297 83.2812 180.156 83.2812ZM181.078 80.6094C183.438 80.6094 185.297 78.9844 185.297 76.8438V75.5469L181.234 75.7969C179.219 75.9375 178.078 76.8281 178.078 78.2344C178.078 79.6719 179.281 80.6094 181.078 80.6094Z" fill="white"/>
<path d="M117.5 147C139.32 147 159.025 151.783 173.239 159.466C187.493 167.171 196 177.648 196 188.973C196 200.297 187.493 210.774 173.239 218.479C159.025 226.162 139.32 230.944 117.5 230.944C95.6797 230.944 75.9748 226.162 61.7607 218.479C47.507 210.774 39.0001 200.297 39 188.973C39 177.648 47.5069 167.171 61.7607 159.466C75.9748 151.783 95.6798 147 117.5 147Z" fill="#FDFDFD" stroke="#E3E3E3" stroke-width="2"/>
<path d="M179.375 179.591C179.375 194.276 151.169 206.181 116.375 206.181C81.5811 206.181 53.375 194.276 53.375 179.591C53.375 164.905 81.5811 153 116.375 153C151.169 153 179.375 164.905 179.375 179.591Z" fill="#AD7100"/>
<path d="M179.375 179.591C179.375 194.276 151.169 206.181 116.375 206.181C81.5811 206.181 53.375 194.276 53.375 179.591V195.136C63.6691 226.636 171.14 224.59 179.375 195.136V179.591Z" fill="#B8B8B8"/>
<path d="M178.562 195.017C177.577 198.433 175.151 201.516 171.53 204.234C167.875 206.979 163.047 209.318 157.401 211.222C146.11 215.029 131.671 217.053 117.14 217.181C102.608 217.308 88.0436 215.537 76.498 211.794C64.9565 208.052 56.6803 202.423 54.1875 195V185.819C55.0598 187.459 56.2629 189.031 57.752 190.517C61.0378 193.795 65.7513 196.711 71.5107 199.142C83.0337 204.005 98.8964 206.994 116.375 206.994C133.854 206.994 149.716 204.005 161.239 199.142C166.999 196.711 171.712 193.795 174.998 190.517C176.487 189.031 177.69 187.459 178.562 185.819V195.017ZM116.375 153.812C133.69 153.812 149.328 156.777 160.606 161.537C166.247 163.918 170.76 166.732 173.85 169.815C176.936 172.896 178.562 176.199 178.562 179.591C178.562 182.983 176.936 186.285 173.85 189.365C170.76 192.449 166.247 195.264 160.606 197.645C149.328 202.405 133.69 205.368 116.375 205.368C99.0599 205.368 83.4221 202.405 72.1436 197.645C66.5027 195.264 61.9904 192.449 58.9004 189.365C55.9099 186.381 54.2906 183.189 54.1924 179.908L54.1875 179.591L54.1924 179.272C54.2908 175.992 55.9101 172.799 58.9004 169.815C61.9904 166.732 66.5028 163.918 72.1436 161.537C83.4221 156.777 99.0598 153.813 116.375 153.812Z" stroke="#B8B8B8" stroke-width="1.62581"/>
<path d="M178.374 177.748C178.374 192.339 150.532 204.167 116.187 204.167C81.8421 204.167 54 192.339 54 177.748C54 163.157 81.8421 151.329 116.187 151.329C150.532 151.329 178.374 163.157 178.374 177.748Z" fill="#AD7100"/>
<path d="M178.374 177.748C178.374 192.339 150.532 204.167 116.187 204.167C81.8421 204.167 54 192.339 54 177.748V193.193C64.1613 224.49 170.245 222.458 178.374 193.193V177.748Z" fill="#FFDE5F"/>
<path d="M54.8125 183.977C55.672 185.592 56.8522 187.14 58.3105 188.605C61.5551 191.864 66.2099 194.761 71.8965 197.177C83.2728 202.01 98.9328 204.98 116.188 204.98C133.442 204.98 149.101 202.01 160.478 197.177C166.164 194.761 170.819 191.864 174.063 188.605C175.522 187.14 176.702 185.593 177.562 183.978V193.075C176.589 196.468 174.195 199.53 170.623 202.23C167.016 204.956 162.251 207.279 156.679 209.17C145.535 212.952 131.285 214.964 116.942 215.09C102.599 215.217 88.2239 213.457 76.8291 209.739C65.4386 206.022 57.2722 200.431 54.8125 193.057V183.977ZM116.188 152.141C133.277 152.141 148.711 155.086 159.842 159.815C165.409 162.18 169.862 164.975 172.911 168.038C175.957 171.097 177.561 174.377 177.562 177.748C177.562 181.118 175.957 184.399 172.911 187.458C169.862 190.521 165.409 193.316 159.842 195.681C148.711 200.41 133.277 203.354 116.188 203.354C99.0974 203.354 83.6632 200.41 72.5322 195.681C66.9653 193.316 62.512 190.521 59.4629 187.458C56.5123 184.495 54.9145 181.323 54.8174 178.064L54.8125 177.748L54.8174 177.432C54.9144 174.173 56.5123 171.001 59.4629 168.038C62.512 164.975 66.9652 162.18 72.5322 159.815C83.6632 155.086 99.0973 152.141 116.188 152.141Z" stroke="#9A4D00" stroke-width="1.62581"/>
<path d="M179.999 159.864C179.999 174.455 152.157 186.284 117.812 186.284C83.4671 186.284 55.625 174.455 55.625 159.864C55.625 145.273 83.4671 133.445 117.812 133.445C152.157 133.445 179.999 145.273 179.999 159.864Z" fill="#AD7100"/>
<path d="M179.999 159.864C179.999 174.455 152.157 186.284 117.812 186.284C83.4671 186.284 55.625 174.455 55.625 159.864V175.309C65.7863 206.606 171.87 204.574 179.999 175.309V159.864Z" fill="#FFDE5F"/>
<path d="M56.4375 166.093C57.297 167.709 58.4772 169.256 59.9355 170.721C63.1801 173.98 67.8349 176.878 73.5215 179.293C84.8978 184.127 100.558 187.096 117.812 187.096C135.067 187.096 150.726 184.126 162.103 179.293C167.789 176.878 172.444 173.98 175.688 170.721C177.147 169.257 178.327 167.709 179.187 166.094V175.191C178.214 178.584 175.82 181.646 172.248 184.346C168.641 187.072 163.876 189.396 158.304 191.287C147.16 195.068 132.91 197.08 118.567 197.207C104.224 197.333 89.8489 195.574 78.4541 191.855C67.0636 188.138 58.8972 182.547 56.4375 175.173V166.093ZM117.812 134.257C134.902 134.257 150.336 137.202 161.467 141.931C167.034 144.296 171.487 147.091 174.536 150.154C177.582 153.213 179.186 156.494 179.187 159.864C179.187 163.234 177.582 166.515 174.536 169.575C171.487 172.637 167.034 175.432 161.467 177.797C150.336 182.526 134.902 185.47 117.812 185.47C100.722 185.47 85.2882 182.526 74.1572 177.797C68.5903 175.432 64.137 172.637 61.0879 169.575C58.1373 166.611 56.5395 163.439 56.4424 160.18L56.4375 159.864L56.4424 159.548C56.5394 156.289 58.1373 153.117 61.0879 150.154C64.137 147.091 68.5902 144.296 74.1572 141.931C85.2882 137.202 100.722 134.257 117.812 134.257Z" stroke="#9A4D00" stroke-width="1.62581"/>
<path d="M178.374 144.419C178.374 159.01 150.532 170.839 116.187 170.839C81.8421 170.839 54 159.01 54 144.419C54 129.828 81.8421 118 116.187 118C150.532 118 178.374 129.828 178.374 144.419Z" fill="#AD7100"/>
<path d="M178.374 144.419C178.374 159.01 150.532 170.839 116.187 170.839C81.8421 170.839 54 159.01 54 144.419V159.865C64.1613 191.161 170.245 189.129 178.374 159.865V144.419Z" fill="#FFDE5F"/>
<path d="M54.8125 150.648C55.672 152.264 56.8522 153.812 58.3105 155.276C61.5551 158.535 66.2099 161.433 71.8965 163.849C83.2728 168.682 98.9328 171.651 116.188 171.651C133.442 171.651 149.101 168.682 160.478 163.849C166.164 161.433 170.819 158.535 174.063 155.276C175.522 153.812 176.702 152.264 177.562 150.649V159.746C176.589 163.139 174.195 166.202 170.623 168.901C167.016 171.628 162.251 173.951 156.679 175.842C145.535 179.624 131.285 181.635 116.942 181.762C102.599 181.888 88.2239 180.129 76.8291 176.41C65.4386 172.693 57.2722 167.102 54.8125 159.729V150.648ZM116.188 118.812C133.277 118.813 148.711 121.758 159.842 126.486C165.409 128.851 169.862 131.646 172.911 134.709C175.957 137.768 177.561 141.049 177.562 144.419C177.562 147.789 175.957 151.071 172.911 154.13C169.862 157.192 165.409 159.988 159.842 162.353C148.711 167.081 133.277 170.025 116.188 170.025C99.0974 170.025 83.6632 167.081 72.5322 162.353C66.9653 159.987 62.512 157.192 59.4629 154.13C56.5123 151.166 54.9145 147.995 54.8174 144.735L54.8125 144.419L54.8174 144.104C54.9144 140.844 56.5123 137.673 59.4629 134.709C62.512 131.646 66.9652 128.851 72.5322 126.486C83.6632 121.758 99.0973 118.812 116.188 118.812Z" stroke="#9A4D00" stroke-width="1.62581"/>
<path d="M91 142.5C125.621 150.738 119.417 160.24 115.686 175.005C115.666 175.085 115.656 175.168 115.656 175.25V178.372C115.248 187.416 128.048 187.746 124.93 178.484C124.906 178.412 124.887 178.33 124.88 178.255C123.909 168.366 135.825 168.316 136.291 178.097C136.299 178.273 136.258 178.451 136.188 178.613C135.755 179.607 134.28 183.757 135.214 192.437C136.286 202.398 148.258 202.508 150.346 192.839C150.401 192.586 150.346 192.316 150.201 192.1C147.716 188.373 146.438 186.201 150.427 183.06C156.517 178.193 157.249 175.265 154.878 169.95C154.81 169.798 154.778 169.626 154.793 169.46C155.508 161.196 163.483 159.435 161.836 153.127C158.385 137.711 136.552 125.265 122.674 127.522C108.796 129.779 91 142.5 91 142.5Z" fill="#D1951E" stroke="#BB810D" stroke-width="2" stroke-linecap="round"/>
<path d="M112.692 149.477C106.18 141.915 107.852 131.503 116.444 126.224C125.035 120.944 137.278 122.805 143.791 130.366C150.303 137.928 148.63 148.34 140.039 153.62C131.447 158.899 119.204 157.038 112.692 149.477Z" fill="#EFBE20" stroke="#EFBE20" stroke-width="1.14968"/>
<path d="M112.136 148.831C106.081 141.8 108.049 131.789 116.673 126.49C125.296 121.191 137.179 122.69 143.235 129.721C149.29 136.752 147.32 146.763 138.697 152.062C130.074 157.361 118.192 155.862 112.136 148.831Z" fill="#FFDE5F" stroke="#EFBE20" stroke-width="1.14968"/>
<path d="M119.974 139.851C121.968 140.528 123.117 140.43 124.869 139.914C124.978 139.882 124.97 139.75 124.858 139.718C122.813 139.138 121.656 139.124 119.967 139.66C119.865 139.692 119.87 139.816 119.974 139.851Z" fill="#D1951E" stroke="#D1951E" stroke-width="1.14968"/>
<path d="M131.067 139.251C133.166 139.359 134.196 138.949 135.631 137.968C135.72 137.907 135.663 137.781 135.547 137.781C133.436 137.781 132.358 138.085 130.989 139.068C130.907 139.127 130.957 139.245 131.067 139.251Z" fill="#D1951E" stroke="#D1951E" stroke-width="1.14968"/>
<path d="M132.648 144.275C131.868 142.555 130.985 141.854 129.312 141.003C129.209 140.95 129.098 141.036 129.147 141.13C130.049 142.825 130.837 143.598 132.484 144.396C132.583 144.444 132.689 144.366 132.648 144.275Z" fill="#D1951E" stroke="#D1951E" stroke-width="1.14968"/>
<path d="M124.192 145.819C125.889 144.852 126.407 143.984 126.853 142.427C126.88 142.332 126.749 142.254 126.659 142.313C125.026 143.377 124.398 144.179 124.005 145.704C123.981 145.796 124.102 145.87 124.192 145.819Z" fill="#D1951E" stroke="#D1951E" stroke-width="1.14968"/>
<path d="M129.067 136.296C130.573 135.124 130.939 134.194 131.122 132.584C131.133 132.485 130.991 132.424 130.912 132.494C129.485 133.756 129 134.633 128.864 136.205C128.856 136.299 128.987 136.358 129.067 136.296Z" fill="#D1951E" stroke="#D1951E" stroke-width="1.14968"/>
<path d="M122.908 134.169C123.887 135.821 124.845 136.443 126.601 137.145C126.709 137.188 126.808 137.093 126.748 137.004C125.652 135.387 124.779 134.684 123.055 134.034C122.952 133.995 122.857 134.082 122.908 134.169Z" fill="#D1951E" stroke="#D1951E" stroke-width="1.14968"/>
<path d="M112.128 115.575C121.431 115.575 128.815 122.022 128.815 129.797C128.815 137.571 121.43 144.017 112.128 144.018C102.825 144.018 95.4407 137.571 95.4404 129.797C95.4404 122.022 102.825 115.575 112.128 115.575Z" fill="#EFBE20" stroke="#EFBE20" stroke-width="1.14968"/>
<path d="M112.916 115.575C121.566 115.575 128.49 121.989 128.49 129.797C128.49 137.605 121.565 144.018 112.916 144.018C104.267 144.017 97.343 137.605 97.3428 129.797C97.3428 121.989 104.267 115.575 112.916 115.575Z" fill="#FFDE5F" stroke="#EFBE20" stroke-width="1.14968"/>
<path d="M116.225 124.856C114.738 125.693 114.248 126.428 113.806 127.719C113.772 127.82 113.882 127.906 113.972 127.849C115.408 126.933 115.987 126.249 116.385 124.985C116.416 124.888 116.313 124.807 116.225 124.856Z" fill="#D1951E" stroke="#D1951E" stroke-width="1.14968"/>
<path d="M111.263 131.867C110.172 133.054 109.988 133.881 110.06 135.223C110.065 135.326 110.205 135.375 110.269 135.296C111.281 134.048 111.569 133.245 111.466 131.941C111.458 131.842 111.328 131.795 111.263 131.867Z" fill="#D1951E" stroke="#D1951E" stroke-width="1.14968"/>
<path d="M106.535 130.204C108.245 130.609 109.232 130.446 110.695 129.897C110.802 129.858 110.782 129.727 110.666 129.706C108.918 129.383 107.922 129.457 106.511 130.016C106.41 130.056 106.426 130.178 106.535 130.204Z" fill="#D1951E" stroke="#D1951E" stroke-width="1.14968"/>
<path d="M109.404 124.334C109.354 125.816 109.784 126.575 110.778 127.626C110.85 127.702 110.997 127.651 110.993 127.551C110.94 126.058 110.609 125.27 109.615 124.264C109.545 124.193 109.407 124.239 109.404 124.334Z" fill="#D1951E" stroke="#D1951E" stroke-width="1.14968"/>
<path d="M114.625 132.228C114.826 133.696 115.38 134.396 116.539 135.318C116.622 135.384 116.758 135.311 116.738 135.211C116.433 133.745 115.973 133.004 114.821 132.126C114.741 132.065 114.612 132.132 114.625 132.228Z" fill="#D1951E" stroke="#D1951E" stroke-width="1.14968"/>
<path d="M119.299 129.563C117.544 129.308 116.582 129.556 115.194 130.229C115.092 130.279 115.123 130.406 115.24 130.417C117.022 130.587 118.005 130.426 119.34 129.747C119.435 129.698 119.409 129.579 119.299 129.563Z" fill="#D1951E" stroke="#D1951E" stroke-width="1.14968"/>
<path d="M101.263 127.615C110.537 127.615 117.939 134.314 117.939 142.442C117.939 150.57 110.537 157.269 101.263 157.27C91.9882 157.27 84.586 150.57 84.5859 142.442C84.5859 134.314 91.9882 127.615 101.263 127.615Z" fill="#EFBE20" stroke="#EFBE20" stroke-width="1.17157"/>
<path d="M102.053 127.615C110.674 127.615 117.616 134.279 117.616 142.442C117.616 150.606 110.674 157.27 102.053 157.27C93.4317 157.269 86.4903 150.606 86.4902 142.442C86.4902 134.279 93.4316 127.615 102.053 127.615Z" fill="#FFDE5F" stroke="#EFBE20" stroke-width="1.17157"/>
<path d="M105.356 137.298C103.871 138.169 103.382 138.935 102.94 140.28C102.906 140.384 103.021 140.47 103.112 140.41C104.545 139.457 105.123 138.744 105.521 137.427C105.551 137.328 105.445 137.246 105.356 137.298Z" fill="#D1951E" stroke="#D1951E" stroke-width="1.17157"/>
<path d="M100.395 144.601C99.3059 145.837 99.1225 146.699 99.1947 148.096C99.2002 148.203 99.3423 148.25 99.4067 148.167C100.417 146.868 100.704 146.032 100.6 144.674C100.593 144.573 100.461 144.527 100.395 144.601Z" fill="#D1951E" stroke="#D1951E" stroke-width="1.17157"/>
<path d="M95.6712 142.866C97.3816 143.288 98.368 143.119 99.8315 142.548C99.9385 142.506 99.9193 142.37 99.8033 142.348C98.0555 142.011 97.0589 142.088 95.6478 142.671C95.5473 142.712 95.5626 142.84 95.6712 142.866Z" fill="#D1951E" stroke="#D1951E" stroke-width="1.17157"/>
<path d="M98.5408 136.751C98.49 138.296 98.9206 139.086 99.9143 140.181C99.9866 140.261 100.133 140.209 100.13 140.105C100.077 138.549 99.7462 137.727 98.7526 136.68C98.6822 136.605 98.544 136.652 98.5408 136.751Z" fill="#D1951E" stroke="#D1951E" stroke-width="1.17157"/>
<path d="M103.759 144.972C103.96 146.504 104.514 147.233 105.673 148.194C105.757 148.263 105.894 148.19 105.873 148.086C105.569 146.557 105.108 145.784 103.957 144.87C103.876 144.805 103.746 144.872 103.759 144.972Z" fill="#D1951E" stroke="#D1951E" stroke-width="1.17157"/>
<path d="M108.433 142.198C106.678 141.933 105.717 142.191 104.329 142.893C104.227 142.944 104.258 143.077 104.376 143.089C106.157 143.265 107.14 143.098 108.474 142.39C108.57 142.339 108.543 142.215 108.433 142.198Z" fill="#D1951E" stroke="#D1951E" stroke-width="1.17157"/>
</g>
<defs>
<clipPath id="clip0_575_39134">
<rect width="236" height="270" rx="20" fill="white"/>
</clipPath>
</defs>
</svg>
