<svg width="440" height="440" viewBox="0 0 440 440" fill="none" xmlns="http://www.w3.org/2000/svg">
<g clip-path="url(#clip0_550_21153)">
<path d="M370.444 18.8488L244.167 158.605L268.72 181.351L405.401 46.9791C428.87 25.8785 403.939 -17.8374 370.444 18.8488Z" fill="#182435" stroke="#323232" stroke-width="2.80742"/>
<path d="M290.603 371.309C236.15 436.82 138.972 445.853 73.5508 391.474C8.12929 337.095 -0.752592 239.903 53.7009 174.393C108.154 108.882 205.331 99.8492 270.753 154.228C336.174 208.608 345.056 305.798 290.603 371.309Z" fill="#182435" stroke="#7F7F7F" stroke-width="5.11297"/>
<path d="M265.831 350.719C222.764 402.532 145.908 409.674 94.1697 366.668C42.4313 323.662 35.4045 246.796 78.4721 194.983C121.54 143.171 198.395 136.029 250.133 179.035C301.871 222.04 308.899 298.906 265.831 350.719Z" fill="#253243" stroke="#324053" stroke-width="1.27824"/>
<path d="M330.981 97.5263L311.583 122.076L280.98 113.412C278.06 112.585 275.674 110.477 274.492 107.682L261.205 76.2395L285.421 55.5862C288.097 53.3031 291.777 52.5947 295.11 53.7207L317.629 61.3279L331.835 86.3965C333.84 89.9349 333.502 94.3352 330.981 97.5263Z" fill="#FCD448"/>
<path d="M311.583 122.076L330.981 97.5263C333.502 94.3352 333.84 89.9349 331.835 86.3965L317.629 61.3279M311.583 122.076L292.698 87.4153M311.583 122.076L280.98 113.412C278.06 112.585 275.674 110.477 274.492 107.682L261.205 76.2395M317.629 61.3279L292.698 87.4153M317.629 61.3279L295.11 53.7207C291.777 52.5947 288.097 53.3031 285.421 55.5862L261.205 76.2395M292.698 87.4153L261.205 76.2395" stroke="#EFBE20" stroke-width="3" stroke-linejoin="round"/>
</g>
<defs>
<clipPath id="clip0_550_21153">
<rect width="440" height="440" fill="white"/>
</clipPath>
</defs>
</svg>
