<svg width="440" height="440" viewBox="0 0 440 440" fill="none" xmlns="http://www.w3.org/2000/svg">
<g clip-path="url(#clip0_550_21161)">
<path d="M370.444 18.8488L244.167 158.605L268.72 181.351L405.401 46.9791C428.87 25.8785 403.939 -17.8374 370.444 18.8488Z" fill="#182435" stroke="#323232" stroke-width="2.80742"/>
<path d="M290.603 371.309C236.15 436.82 138.972 445.853 73.5508 391.474C8.12929 337.095 -0.752592 239.903 53.7009 174.393C108.154 108.882 205.331 99.8492 270.753 154.228C336.174 208.608 345.056 305.798 290.603 371.309Z" fill="#182435" stroke="#7F7F7F" stroke-width="5.11297"/>
<path d="M265.831 350.719C222.764 402.532 145.908 409.674 94.1697 366.668C42.4313 323.662 35.4045 246.796 78.4721 194.983C121.54 143.171 198.395 136.029 250.133 179.035C301.871 222.04 308.899 298.906 265.831 350.719Z" fill="#253243" stroke="#324053" stroke-width="1.27824"/>
<path d="M317.981 148.526L298.583 173.076L267.98 164.412C265.06 163.585 262.674 161.477 261.492 158.682L248.205 127.24L272.421 106.586C275.097 104.303 278.777 103.595 282.11 104.721L304.629 112.328L318.835 137.397C320.84 140.935 320.502 145.335 317.981 148.526Z" fill="#FCD448"/>
<path d="M298.583 173.076L317.981 148.526C320.502 145.335 320.84 140.935 318.835 137.397L304.629 112.328M298.583 173.076L279.698 138.415M298.583 173.076L267.98 164.412C265.06 163.585 262.674 161.477 261.492 158.682L248.205 127.24M304.629 112.328L279.698 138.415M304.629 112.328L282.11 104.721C278.777 103.595 275.097 104.303 272.421 106.586L248.205 127.24M279.698 138.415L248.205 127.24" stroke="#EFBE20" stroke-width="3" stroke-linejoin="round"/>
</g>
<defs>
<clipPath id="clip0_550_21161">
<rect width="440" height="440" fill="white"/>
</clipPath>
</defs>
</svg>
