<svg width="440" height="440" viewBox="0 0 440 440" fill="none" xmlns="http://www.w3.org/2000/svg">
<g clip-path="url(#clip0_550_21213)">
<path d="M370.444 18.8488L244.167 158.605L268.72 181.351L405.401 46.9791C428.87 25.8785 403.939 -17.8374 370.444 18.8488Z" fill="#182435" stroke="#323232" stroke-width="2.80742"/>
<path d="M290.603 371.309C236.15 436.82 138.972 445.853 73.5508 391.474C8.12929 337.095 -0.752592 239.903 53.7009 174.393C108.154 108.882 205.331 99.8492 270.753 154.228C336.174 208.608 345.056 305.798 290.603 371.309Z" fill="#182435" stroke="#7F7F7F" stroke-width="5.11297"/>
<path d="M265.831 350.719C222.764 402.532 145.908 409.674 94.1697 366.668C42.4313 323.662 35.4045 246.796 78.4721 194.983C121.54 143.171 198.395 136.029 250.133 179.035C301.871 222.04 308.899 298.906 265.831 350.719Z" fill="#253243" stroke="#324053" stroke-width="1.27824"/>
<path d="M261.5 221.623C234.169 150.281 113.46 155.589 92.0003 205.5C57.3335 237.987 67.9395 323.11 97.9998 342.5C124.564 383.838 174.158 325.251 198.999 315C217.915 315.643 291.509 247.055 261.5 221.623Z" fill="#EFBE20" fill-opacity="0.2"/>
<path d="M211.981 344.526L192.583 369.076L161.98 360.412C159.06 359.585 156.674 357.477 155.492 354.682L142.205 323.24L166.421 302.586C169.097 300.303 172.777 299.595 176.11 300.721L198.629 308.328L212.835 333.397C214.84 336.935 214.502 341.335 211.981 344.526Z" fill="#FCD448"/>
<path d="M192.583 369.076L211.981 344.526C214.502 341.335 214.84 336.935 212.835 333.397L198.629 308.328M192.583 369.076L173.698 334.415M192.583 369.076L161.98 360.412C159.06 359.585 156.674 357.477 155.492 354.682L142.205 323.24M198.629 308.328L173.698 334.415M198.629 308.328L176.11 300.721C172.777 299.595 169.097 300.303 166.421 302.586L142.205 323.24M173.698 334.415L142.205 323.24" stroke="#EFBE20" stroke-width="3" stroke-linejoin="round"/>
</g>
<defs>
<clipPath id="clip0_550_21213">
<rect width="440" height="440" fill="white"/>
</clipPath>
</defs>
</svg>
